SplineFontDB: 3.0
FontName: BlackOpsOne-Regular
FullName: BlackOpsOne-Regular
FamilyName: Black Ops One
Weight: Book
Copyright: Copyright (c) 2011-2012, Sorkin Type Co (www.sorkintype.com)\nwith Reserved Font Names "Black Ops" and "Black Ops One".
Version: 1.002
ItalicAngle: 0
UnderlinePosition: -105
UnderlineWidth: 193
Ascent: 1638
Descent: 410
LayerCount: 2
Layer: 0 1 "Back"  1
Layer: 1 1 "Fore"  0
XUID: [1021 631 1661839179 8588148]
FSType: 0
OS2Version: 3
OS2_WeightWidthSlopeOnly: 0
OS2_UseTypoMetrics: 1
CreationTime: 1334963100
ModificationTime: 1334967163
PfmFamily: 17
TTFWeight: 400
TTFWidth: 5
LineGap: 0
VLineGap: 0
Panose: 2 0 0 0 0 0 0 0 0 0
OS2TypoAscent: 233
OS2TypoAOffset: 1
OS2TypoDescent: -279
OS2TypoDOffset: 1
OS2TypoLinegap: 0
OS2WinAscent: 0
OS2WinAOffset: 1
OS2WinDescent: 0
OS2WinDOffset: 1
HheadAscent: 0
HheadAOffset: 1
HheadDescent: 0
HheadDOffset: 1
OS2SubXSize: 1434
OS2SubYSize: 1331
OS2SubXOff: 0
OS2SubYOff: 287
OS2SupXSize: 1434
OS2SupYSize: 1331
OS2SupXOff: 0
OS2SupYOff: 977
OS2StrikeYSize: 239
OS2StrikeYPos: 620
OS2Vendor: 'STC '
OS2CodePages: 20000093.00000000
OS2UnicodeRanges: a00000af.4000204a.00000000.00000000
Lookup: 258 0 0 "'kern' Horizontal Kerning in Latin lookup 0"  {"'kern' Horizontal Kerning in Latin lookup 0 subtable"  } ['kern' ('latn' <'dflt' > ) ]
DEI: 91125
TtTable: prep
PUSHW_2
 2048
 2048
MUL
DUP
PUSHB_1
 1
SWAP
WCVTP
DUP
PUSHB_1
 3
SWAP
WCVTF
PUSHB_1
 23
RCVT
DUP
DUP
MPPEM
PUSHB_1
 15
LT
MPPEM
PUSHB_1
 5
GT
AND
IF
PUSHB_1
 52
ELSE
PUSHB_1
 40
EIF
ADD
FLOOR
DUP
ROLL
NEQ
IF
PUSHB_1
 2
CINDEX
SUB
PUSHB_1
 1
RCVT
MUL
SWAP
DIV
PUSHB_1
 2
SWAP
WCVTP
PUSHB_4
 10
 13
 3
 2
CALL
PUSHB_4
 14
 19
 3
 2
CALL
PUSHB_4
 20
 25
 3
 2
CALL
EIF
PUSHB_3
 4
 40
 7
RCVT
GT
WCVTP
PUSHB_4
 14
 19
 4
 2
CALL
PUSHW_1
 511
SCANCTRL
PUSHB_1
 4
SCANTYPE
PUSHB_2
 5
 0
WCVTP
EndTTInstrs
TtTable: fpgm
PUSHB_1
 0
FDEF
DUP
ABS
PUSHB_1
 32
ADD
FLOOR
SWAP
PUSHB_1
 0
LT
IF
NEG
EIF
ENDF
PUSHB_1
 1
FDEF
DUP
ABS
DUP
PUSHB_1
 192
LT
PUSHB_1
 4
MINDEX
AND

StartChar: .notdef
Encoding: 65536 -1 0
Width: 1837
Flags: W
LayerCount: 2
Fore
SplineSet
604 142 m 1,0,-1
 917 457 l 1,1,-1
 1229 142 l 1,2,-1
 1396 312 l 1,3,-1
 1081 623 l 1,4,-1
 1394 933 l 1,5,-1
 1229 1101 l 1,6,-1
 918 786 l 1,7,-1
 607 1102 l 1,8,-1
 442 932 l 1,9,-1
 755 621 l 1,10,-1
 440 310 l 1,11,-1
 604 142 l 1,0,-1
1674 1443 m 1,12,-1
 1674 -168 l 1,13,-1
 162 -168 l 1,14,-1
 162 1443 l 1,15,-1
 1674 1443 l 1,12,-1
EndSplineSet
EndChar

StartChar: exclam
Encoding: 33 33 23
Width: 753
GlyphClass: 2
Flags: W
LayerCount: 2
Fore
SplineSet
584 442 m 1,0,-1
 169 442 l 1,1,-1
 142 1327 l 1,2,-1
 612 1327 l 1,3,-1
 584 442 l 1,0,-1
156 309 m 1,4,-1
 598 309 l 1,5,-1
 598 0 l 1,6,-1
 156 0 l 1,7,-1
 156 309 l 1,4,-1
EndSplineSet
EndChar

StartChar: quotedbl
Encoding: 34 34 24
Width: 1359
GlyphClass: 2
Flags: W
LayerCount: 2
Fore
SplineSet
181 1327 m 1,0,-1
 592 1327 l 1,1,-1
 545 664 l 1,2,-1
 227 664 l 1,3,-1
 181 1327 l 1,0,-1
766 1327 m 1,4,-1
 1177 1327 l 1,5,-1
 1130 664 l 1,6,-1
 812 664 l 1,7,-1
 766 1327 l 1,4,-1
EndSplineSet
EndChar

StartChar: numbersign
Encoding: 35 35 25
Width: 1699
GlyphClass: 2
Flags: W
LayerCount: 2
Fore
SplineSet
696 522 m 1,0,-1
 907 522 l 1,1,-1
 886 285 l 1,2,-1
 674 285 l 1,3,-1
 649 0 l 1,4,-1
 412 0 l 1,5,-1
 437 285 l 1,6,-1
 186 285 l 1,7,-1
 206 522 l 1,8,-1
 456 522 l 1,9,-1
 481 805 l 1,10,-1
 232 805 l 1,11,-1
 253 1042 l 1,12,-1
 502 1042 l 1,13,-1
 527 1327 l 1,14,-1
 764 1327 l 1,15,-1
 740 1042 l 1,16,-1
 954 1042 l 1,17,-1
 932 805 l 1,18,-1
 718 805 l 1,19,-1
 696 522 l 1,0,-1
1047 1327 m 1,20,-1
 1285 1327 l 1,21,-1
 1260 1042 l 1,22,-1
 1513 1042 l 1,23,-1
 1491 805 l 1,24,-1
 1240 805 l 1,25,-1
 1216 522 l 1,26,-1
 1467 522 l 1,27,-1
 1445 285 l 1,28,-1
 1194 285 l 1,29,-1
 1169 0 l 1,30,-1
 932 0 l 1,31,-1
 1047 1327 l 1,20,-1
EndSplineSet
EndChar

StartChar: dollar
Encoding: 36 36 26
Width: 1743
GlyphClass: 2
Flags: W
LayerCount: 2
Fore
SplineSet
672 797 m 1,0,-1
 1248 797 l 1,1,-1
 1513 530 l 1,2,-1
 1513 265 l 1,3,-1
 1248 0 l 1,4,-1
 1070 0 l 1,5,-1
 1070 530 l 1,6,-1
 495 530 l 1,7,-1
 230 797 l 1,8,-1
 230 1062 l 1,9,-1
 495 1327 l 1,10,-1
 672 1327 l 1,11,-1
 672 797 l 1,0,-1
672 265 m 1,12,-1
 1003 265 l 1,13,-1
 1003 -157 l 1,14,-1
 701 -157 l 1,15,-1
 701 0 l 1,16,-1
 495 0 l 1,17,-1
 230 265 l 1,18,-1
 230 398 l 1,19,-1
 672 398 l 1,20,-1
 672 265 l 1,12,-1
740 1062 m 1,21,-1
 740 1476 l 1,22,-1
 1039 1476 l 1,23,-1
 1039 1327 l 1,24,-1
 1248 1327 l 1,25,-1
 1513 1062 l 1,26,-1
 1513 929 l 1,27,-1
 1070 929 l 1,28,-1
 1070 1062 l 1,29,-1
 740 1062 l 1,21,-1
EndSplineSet
EndChar

StartChar: percent
Encoding: 37 37 27
Width: 2392
GlyphClass: 2
Flags: W
LayerCount: 2
Fore
SplineSet
1029 783 m 1,0,-1
 829 582 l 1,1,-1
 631 582 l 1,2,-1
 631 783 l 1,3,-1
 696 783 l 1,4,-1
 696 1129 l 1,5,-1
 631 1129 l 1,6,-1
 631 1329 l 1,7,-1
 829 1329 l 1,8,-1
 1029 1129 l 1,9,-1
 1029 783 l 1,0,-1
497 783 m 1,10,-1
 561 783 l 1,11,-1
 561 582 l 1,12,-1
 364 582 l 1,13,-1
 164 783 l 1,14,-1
 164 1129 l 1,15,-1
 364 1329 l 1,16,-1
 561 1329 l 1,17,-1
 561 1129 l 1,18,-1
 497 1129 l 1,19,-1
 497 783 l 1,10,-1
2227 200 m 1,20,-1
 2028 0 l 1,21,-1
 1829 0 l 1,22,-1
 1829 200 l 1,23,-1
 1895 200 l 1,24,-1
 1895 547 l 1,25,-1
 1829 547 l 1,26,-1
 1829 746 l 1,27,-1
 2028 746 l 1,28,-1
 2227 547 l 1,29,-1
 2227 200 l 1,20,-1
1695 200 m 1,30,-1
 1759 200 l 1,31,-1
 1759 0 l 1,32,-1
 1562 0 l 1,33,-1
 1363 200 l 1,34,-1
 1363 547 l 1,35,-1
 1562 746 l 1,36,-1
 1759 746 l 1,37,-1
 1759 547 l 1,38,-1
 1695 547 l 1,39,-1
 1695 200 l 1,30,-1
1359 1458 m 1,40,-1
 1609 1458 l 1,41,-1
 996 -196 l 1,42,-1
 746 -196 l 1,43,-1
 1359 1458 l 1,40,-1
EndSplineSet
EndChar

StartChar: ampersand
Encoding: 38 38 28
Width: 1666
GlyphClass: 2
Flags: W
LayerCount: 2
Fore
SplineSet
286 904 m 1,0,-1
 285 905 l 1,1,-1
 285 1103 l 1,2,-1
 511 1327 l 1,3,-1
 710 1327 l 1,4,-1
 710 980 l 1,5,-1
 1060 574 l 1,6,-1
 1361 808 l 1,7,-1
 1579 556 l 1,8,-1
 1283 315 l 1,9,-1
 1555 0 l 1,10,-1
 1066 0 l 1,11,-1
 286 904 l 1,0,-1
374 0 m 1,12,-1
 151 219 l 1,13,-1
 151 539 l 1,14,-1
 342 736 l 1,15,-1
 548 496 l 1,16,-1
 548 255 l 1,17,-1
 759 255 l 1,18,-1
 933 49 l 1,19,-1
 876 0 l 1,20,-1
 374 0 l 1,12,-1
1365 1105 m 1,21,-1
 1365 929 l 1,22,-1
 950 929 l 1,23,-1
 950 1062 l 1,24,-1
 780 1062 l 1,25,-1
 780 1327 l 1,26,-1
 1143 1327 l 1,27,-1
 1365 1105 l 1,21,-1
EndSplineSet
EndChar

StartChar: quotesingle
Encoding: 39 39 29
Width: 773
GlyphClass: 2
Flags: W
LayerCount: 2
Fore
SplineSet
181 1327 m 1,0,-1
 592 1327 l 1,1,-1
 545 664 l 1,2,-1
 227 664 l 1,3,-1
 181 1327 l 1,0,-1
EndSplineSet
EndChar

StartChar: parenleft
Encoding: 40 40 30
Width: 978
GlyphClass: 2
Flags: W
LayerCount: 2
Fore
SplineSet
672 124 m 1,0,-1
 836 124 l 1,1,-1
 836 -142 l 1,2,-1
 495 -142 l 1,3,-1
 238 124 l 1,4,-1
 238 1204 l 1,5,-1
 495 1469 l 1,6,-1
 836 1469 l 1,7,-1
 836 1204 l 1,8,-1
 672 1204 l 1,9,-1
 672 124 l 1,0,-1
EndSplineSet
EndChar

StartChar: parenright
Encoding: 41 41 31
Width: 978
GlyphClass: 2
Flags: W
LayerCount: 2
Fore
SplineSet
307 124 m 1,0,-1
 143 124 l 1,1,-1
 143 -142 l 1,2,-1
 484 -142 l 1,3,-1
 741 124 l 1,4,-1
 741 1204 l 1,5,-1
 484 1469 l 1,6,-1
 143 1469 l 1,7,-1
 143 1204 l 1,8,-1
 307 1204 l 1,9,-1
 307 124 l 1,0,-1
EndSplineSet
EndChar

StartChar: asterisk
Encoding: 42 42 32
Width: 1392
GlyphClass: 2
Flags: W
LayerCount: 2
Fore
SplineSet
696 678 m 1,0,-1
 480 461 l 1,1,-1
 289 600 l 1,2,-1
 429 871 l 1,3,-1
 161 1008 l 1,4,-1
 232 1230 l 1,5,-1
 531 1184 l 1,6,-1
 578 1481 l 1,7,-1
 811 1481 l 1,8,-1
 857 1184 l 1,9,-1
 1159 1233 l 1,10,-1
 1231 1008 l 1,11,-1
 960 871 l 1,12,-1
 1102 598 l 1,13,-1
 912 461 l 1,14,-1
 696 678 l 1,0,-1
EndSplineSet
EndChar

StartChar: plus
Encoding: 43 43 33
Width: 1439
GlyphClass: 2
Flags: W
LayerCount: 2
Fore
SplineSet
186 740 m 1,0,-1
 601 740 l 1,1,-1
 601 1153 l 1,2,-1
 842 1153 l 1,3,-1
 842 740 l 1,4,-1
 1253 740 l 1,5,-1
 1253 501 l 1,6,-1
 842 501 l 1,7,-1
 842 86 l 1,8,-1
 601 86 l 1,9,-1
 601 501 l 1,10,-1
 186 501 l 1,11,-1
 186 740 l 1,0,-1
EndSplineSet
EndChar

StartChar: comma
Encoding: 44 44 34
Width: 736
GlyphClass: 2
Flags: W
LayerCount: 2
Fore
SplineSet
147 309 m 1,0,-1
 589 309 l 1,1,-1
 589 0 l 1,2,-1
 412 -265 l 1,3,-1
 147 -265 l 1,4,-1
 270 0 l 1,5,-1
 147 0 l 1,6,-1
 147 309 l 1,0,-1
EndSplineSet
EndChar

StartChar: hyphen
Encoding: 45 45 35
Width: 1255
GlyphClass: 2
Flags: W
LayerCount: 2
Fore
SplineSet
186 740 m 1,0,-1
 1069 740 l 1,1,-1
 1069 501 l 1,2,-1
 186 501 l 1,3,-1
 186 740 l 1,0,-1
EndSplineSet
EndChar

StartChar: period
Encoding: 46 46 36
Width: 736
GlyphClass: 2
Flags: W
LayerCount: 2
Fore
SplineSet
147 309 m 1,0,-1
 589 309 l 1,1,-1
 589 0 l 1,2,-1
 147 0 l 1,3,-1
 147 309 l 1,0,-1
EndSplineSet
EndChar

StartChar: slash
Encoding: 47 47 37
Width: 746
GlyphClass: 2
Flags: W
LayerCount: 2
Fore
SplineSet
532 1418 m 1,0,-1
 782 1418 l 1,1,-1
 169 -196 l 1,2,-1
 -80 -196 l 1,3,-1
 532 1418 l 1,0,-1
EndSplineSet
EndChar

StartChar: zero
Encoding: 48 48 38
Width: 1499
GlyphClass: 2
Flags: W
LayerCount: 2
Fore
SplineSet
1391 265 m 1,0,-1
 1126 0 l 1,1,-1
 618 0 l 1,2,-1
 618 265 l 1,3,-1
 949 265 l 1,4,-1
 949 1327 l 1,5,-1
 1126 1327 l 1,6,-1
 1391 1062 l 1,7,-1
 1391 265 l 1,0,-1
550 0 m 1,8,-1
 374 0 l 1,9,-1
 108 265 l 1,10,-1
 108 1062 l 1,11,-1
 374 1327 l 1,12,-1
 881 1327 l 1,13,-1
 881 1062 l 1,14,-1
 550 1062 l 1,15,-1
 550 0 l 1,8,-1
EndSplineSet
EndChar

StartChar: one
Encoding: 49 49 39
Width: 1167
GlyphClass: 2
Flags: W
LayerCount: 2
Fore
SplineSet
142 1194 m 1,0,-1
 274 1327 l 1,1,-1
 805 1327 l 1,2,-1
 805 326 l 1,3,-1
 363 326 l 1,4,-1
 363 1062 l 1,5,-1
 142 1062 l 1,6,-1
 142 1194 l 1,0,-1
142 265 m 1,7,-1
 1026 265 l 1,8,-1
 1026 0 l 1,9,-1
 142 0 l 1,10,-1
 142 265 l 1,7,-1
EndSplineSet
EndChar

StartChar: two
Encoding: 50 50 40
Width: 1464
GlyphClass: 2
Flags: W
LayerCount: 2
Fore
SplineSet
550 0 m 1,0,-1
 108 0 l 1,1,-1
 108 476 l 1,2,-1
 391 742 l 1,3,-1
 914 742 l 1,4,-1
 914 1327 l 1,5,-1
 1091 1327 l 1,6,-1
 1356 1062 l 1,7,-1
 1356 734 l 1,8,-1
 1091 469 l 1,9,-1
 550 469 l 1,10,-1
 550 0 l 1,0,-1
550 1088 m 1,11,-1
 550 895 l 1,12,-1
 108 895 l 1,13,-1
 108 1062 l 1,14,-1
 374 1327 l 1,15,-1
 844 1327 l 1,16,-1
 844 1088 l 1,17,-1
 550 1088 l 1,11,-1
620 0 m 1,18,-1
 620 239 l 1,19,-1
 1356 239 l 1,20,-1
 1356 0 l 1,21,-1
 620 0 l 1,18,-1
EndSplineSet
EndChar

StartChar: three
Encoding: 51 51 41
Width: 1495
GlyphClass: 2
Flags: W
LayerCount: 2
Fore
SplineSet
1121 1327 m 1,0,-1
 1387 1062 l 1,1,-1
 1387 801 l 1,2,-1
 1230 668 l 1,3,-1
 1387 533 l 1,4,-1
 1387 264 l 1,5,-1
 1121 0 l 1,6,-1
 944 0 l 1,7,-1
 944 560 l 1,8,-1
 636 560 l 1,9,-1
 636 791 l 1,10,-1
 944 791 l 1,11,-1
 944 1327 l 1,12,-1
 1121 1327 l 1,0,-1
546 1045 m 1,13,-1
 546 851 l 1,14,-1
 104 851 l 1,15,-1
 104 1062 l 1,16,-1
 369 1327 l 1,17,-1
 874 1327 l 1,18,-1
 874 1045 l 1,19,-1
 546 1045 l 1,13,-1
104 265 m 1,20,-1
 104 470 l 1,21,-1
 546 470 l 1,22,-1
 546 283 l 1,23,-1
 874 283 l 1,24,-1
 874 0 l 1,25,-1
 369 0 l 1,26,-1
 104 265 l 1,20,-1
EndSplineSet
EndChar

StartChar: four
Encoding: 52 52 42
Width: 1392
GlyphClass: 2
Flags: W
LayerCount: 2
Fore
SplineSet
1187 444 m 1,0,-1
 1337 444 l 1,1,-1
 1337 185 l 1,2,-1
 1187 185 l 1,3,-1
 1187 0 l 1,4,-1
 762 0 l 1,5,-1
 762 1327 l 1,6,-1
 1187 1327 l 1,7,-1
 1187 444 l 1,0,-1
13 431 m 1,8,-1
 692 1237 l 1,9,-1
 692 712 l 1,10,-1
 451 444 l 1,11,-1
 692 444 l 1,12,-1
 692 185 l 1,13,-1
 118 185 l 1,14,-1
 13 431 l 1,8,-1
EndSplineSet
EndChar

StartChar: five
Encoding: 53 53 43
Width: 1498
GlyphClass: 2
Flags: W
LayerCount: 2
Fore
SplineSet
506 594 m 1,0,-1
 107 594 l 1,1,-1
 107 1327 l 1,2,-1
 1303 1327 l 1,3,-1
 1303 1062 l 1,4,-1
 506 1062 l 1,5,-1
 506 594 l 1,0,-1
922 0 m 1,6,-1
 922 594 l 1,7,-1
 576 594 l 1,8,-1
 576 842 l 1,9,-1
 1099 842 l 1,10,-1
 1364 576 l 1,11,-1
 1364 265 l 1,12,-1
 1099 0 l 1,13,-1
 922 0 l 1,6,-1
852 265 m 1,14,-1
 852 0 l 1,15,-1
 373 0 l 1,16,-1
 107 265 l 1,17,-1
 107 414 l 1,18,-1
 550 414 l 1,19,-1
 550 265 l 1,20,-1
 852 265 l 1,14,-1
EndSplineSet
EndChar

StartChar: six
Encoding: 54 54 44
Width: 1499
GlyphClass: 2
Flags: W
LayerCount: 2
Fore
SplineSet
550 265 m 1,0,-1
 717 265 l 1,1,-1
 717 0 l 1,2,-1
 374 0 l 1,3,-1
 108 265 l 1,4,-1
 108 1062 l 1,5,-1
 374 1327 l 1,6,-1
 717 1327 l 1,7,-1
 717 1062 l 1,8,-1
 550 1062 l 1,9,-1
 550 265 l 1,0,-1
618 576 m 1,10,-1
 618 824 l 1,11,-1
 1131 824 l 1,12,-1
 1391 581 l 1,13,-1
 1391 265 l 1,14,-1
 1126 0 l 1,15,-1
 787 0 l 1,16,-1
 787 265 l 1,17,-1
 966 265 l 1,18,-1
 966 576 l 1,19,-1
 618 576 l 1,10,-1
787 1062 m 1,20,-1
 787 1327 l 1,21,-1
 1126 1327 l 1,22,-1
 1391 1062 l 1,23,-1
 1391 965 l 1,24,-1
 949 965 l 1,25,-1
 949 1062 l 1,26,-1
 787 1062 l 1,20,-1
EndSplineSet
EndChar

StartChar: seven
Encoding: 55 55 45
Width: 1299
GlyphClass: 2
Flags: W
LayerCount: 2
Fore
SplineSet
791 994 m 1,0,-1
 1215 994 l 1,1,-1
 814 0 l 1,2,-1
 346 0 l 1,3,-1
 791 994 l 1,0,-1
485 860 m 1,4,-1
 52 860 l 1,5,-1
 52 1194 l 1,6,-1
 183 1327 l 1,7,-1
 1247 1327 l 1,8,-1
 1247 1062 l 1,9,-1
 485 1062 l 1,10,-1
 485 860 l 1,4,-1
EndSplineSet
EndChar

StartChar: eight
Encoding: 56 56 46
Width: 1541
GlyphClass: 2
Flags: W
LayerCount: 2
Fore
SplineSet
546 265 m 1,0,-1
 738 265 l 1,1,-1
 738 0 l 1,2,-1
 374 0 l 1,3,-1
 108 265 l 1,4,-1
 108 541 l 1,5,-1
 267 672 l 1,6,-1
 108 802 l 1,7,-1
 108 1062 l 1,8,-1
 374 1327 l 1,9,-1
 738 1327 l 1,10,-1
 738 1062 l 1,11,-1
 546 1062 l 1,12,-1
 546 796 l 1,13,-1
 738 796 l 1,14,-1
 738 548 l 1,15,-1
 546 548 l 1,16,-1
 546 265 l 1,0,-1
1013 1062 m 1,17,-1
 808 1062 l 1,18,-1
 808 1327 l 1,19,-1
 1168 1326 l 1,20,-1
 1433 1061 l 1,21,-1
 1433 804 l 1,22,-1
 1275 671 l 1,23,-1
 1433 538 l 1,24,-1
 1433 264 l 1,25,-1
 1168 -1 l 1,26,-1
 808 0 l 1,27,-1
 808 265 l 1,28,-1
 1013 265 l 1,29,-1
 1013 548 l 1,30,-1
 808 548 l 1,31,-1
 808 796 l 1,32,-1
 1013 796 l 1,33,-1
 1013 1062 l 1,17,-1
EndSplineSet
EndChar

StartChar: nine
Encoding: 57 57 47
Width: 1499
GlyphClass: 2
Flags: W
LayerCount: 2
Fore
SplineSet
949 1062 m 1,0,-1
 783 1062 l 1,1,-1
 783 1327 l 1,2,-1
 1126 1327 l 1,3,-1
 1391 1062 l 1,4,-1
 1391 265 l 1,5,-1
 1126 0 l 1,6,-1
 783 0 l 1,7,-1
 783 265 l 1,8,-1
 949 265 l 1,9,-1
 949 1062 l 1,0,-1
881 762 m 1,10,-1
 881 496 l 1,11,-1
 374 496 l 1,12,-1
 108 762 l 1,13,-1
 108 1062 l 1,14,-1
 374 1327 l 1,15,-1
 715 1327 l 1,16,-1
 715 1062 l 1,17,-1
 550 1062 l 1,18,-1
 550 762 l 1,19,-1
 881 762 l 1,10,-1
715 265 m 1,20,-1
 715 0 l 1,21,-1
 374 0 l 1,22,-1
 108 265 l 1,23,-1
 108 354 l 1,24,-1
 550 354 l 1,25,-1
 550 265 l 1,26,-1
 715 265 l 1,20,-1
EndSplineSet
EndChar

StartChar: colon
Encoding: 58 58 48
Width: 736
GlyphClass: 2
Flags: W
LayerCount: 2
Fore
SplineSet
147 1062 m 1,0,-1
 589 1062 l 1,1,-1
 589 753 l 1,2,-1
 147 753 l 1,3,-1
 147 1062 l 1,0,-1
147 309 m 1,4,-1
 589 309 l 1,5,-1
 589 0 l 1,6,-1
 147 0 l 1,7,-1
 147 309 l 1,4,-1
EndSplineSet
EndChar

StartChar: semicolon
Encoding: 59 59 49
Width: 736
GlyphClass: 2
Flags: W
LayerCount: 2
Fore
SplineSet
147 1062 m 1,0,-1
 589 1062 l 1,1,-1
 589 753 l 1,2,-1
 147 753 l 1,3,-1
 147 1062 l 1,0,-1
147 309 m 1,4,-1
 589 309 l 1,5,-1
 589 0 l 1,6,-1
 412 -265 l 1,7,-1
 147 -265 l 1,8,-1
 270 0 l 1,9,-1
 147 0 l 1,10,-1
 147 309 l 1,4,-1
EndSplineSet
EndChar

StartChar: less
Encoding: 60 60 50
Width: 1439
GlyphClass: 2
Flags: W
LayerCount: 2
Fore
SplineSet
186 524 m 1,0,-1
 186 759 l 1,1,-1
 1253 1051 l 1,2,-1
 1253 802 l 1,3,-1
 186 524 l 1,0,-1
240 466 m 1,4,-1
 692 582 l 1,5,-1
 1253 434 l 1,6,-1
 1253 186 l 1,7,-1
 240 466 l 1,4,-1
EndSplineSet
EndChar

StartChar: equal
Encoding: 61 61 51
Width: 1439
GlyphClass: 2
Flags: W
LayerCount: 2
Fore
SplineSet
186 1000 m 1,0,-1
 1253 1000 l 1,1,-1
 1253 761 l 1,2,-1
 186 761 l 1,3,-1
 186 1000 l 1,0,-1
186 442 m 1,4,-1
 1253 442 l 1,5,-1
 1253 204 l 1,6,-1
 186 204 l 1,7,-1
 186 442 l 1,4,-1
EndSplineSet
EndChar

StartChar: greater
Encoding: 62 62 52
Width: 1439
GlyphClass: 2
Flags: W
LayerCount: 2
Fore
SplineSet
1253 713 m 1,0,-1
 1253 478 l 1,1,-1
 186 186 l 1,2,-1
 186 435 l 1,3,-1
 1253 713 l 1,0,-1
1199 771 m 1,4,-1
 747 655 l 1,5,-1
 186 803 l 1,6,-1
 186 1051 l 1,7,-1
 1199 771 l 1,4,-1
EndSplineSet
EndChar

StartChar: question
Encoding: 63 63 53
Width: 1407
GlyphClass: 2
Flags: W
LayerCount: 2
Fore
SplineSet
1062 1327 m 1,0,-1
 1327 1062 l 1,1,-1
 1327 832 l 1,2,-1
 1062 566 l 1,3,-1
 872 566 l 1,4,-1
 872 442 l 1,5,-1
 428 442 l 1,6,-1
 428 566 l 1,7,-1
 694 832 l 1,8,-1
 885 832 l 1,9,-1
 885 1062 l 1,10,-1
 522 1062 l 1,11,-1
 522 929 l 1,12,-1
 79 929 l 1,13,-1
 79 1060 l 1,14,-1
 345 1327 l 1,15,-1
 1062 1327 l 1,0,-1
428 309 m 1,16,-1
 872 309 l 1,17,-1
 872 0 l 1,18,-1
 428 0 l 1,19,-1
 428 309 l 1,16,-1
EndSplineSet
EndChar

StartChar: at
Encoding: 64 64 54
Width: 1585
GlyphClass: 2
Flags: W
LayerCount: 2
Fore
SplineSet
95 264 m 1,0,-1
 95 973 l 1,1,-1
 402 1282 l 1,2,-1
 765 1282 l 1,3,-1
 765 1062 l 1,4,-1
 533 1062 l 1,5,-1
 315 844 l 1,6,-1
 315 395 l 1,7,-1
 533 177 l 1,8,-1
 785 177 l 1,9,-1
 785 -43 l 1,10,-1
 400 -43 l 1,11,-1
 95 264 l 1,0,-1
1048 1062 m 1,12,-1
 819 1062 l 1,13,-1
 819 1282 l 1,14,-1
 1182 1282 l 1,15,-1
 1490 973 l 1,16,-1
 1490 398 l 1,17,-1
 1271 398 l 1,18,-1
 1271 841 l 1,19,-1
 1048 1062 l 1,12,-1
687 398 m 1,20,-1
 687 841 l 1,21,-1
 899 841 l 1,22,-1
 899 321 l 1,23,-1
 1043 178 l 1,24,-1
 1359 177 l 1,25,-1
 1182 -43 l 1,26,-1
 839 -43 l 1,27,-1
 839 398 l 1,28,-1
 687 398 l 1,20,-1
EndSplineSet
EndChar

StartChar: A
Encoding: 65 65 55
Width: 1500
GlyphClass: 2
Flags: W
LayerCount: 2
Fore
SplineSet
988 145 m 1,0,-1
 554 145 l 1,1,-1
 646 408 l 1,2,-1
 886 408 l 1,3,-1
 531 1327 l 1,4,-1
 962 1327 l 1,5,-1
 1491 0 l 1,6,-1
 1044 0 l 1,7,-1
 988 145 l 1,0,-1
436 0 m 1,8,-1
 9 0 l 1,9,-1
 483 1267 l 1,10,-1
 679 740 l 1,11,-1
 436 0 l 1,8,-1
EndSplineSet
EndChar

StartChar: B
Encoding: 66 66 56
Width: 1495
GlyphClass: 2
Flags: W
LayerCount: 2
Fore
SplineSet
957 1062 m 1,0,-1
 629 1062 l 1,1,-1
 629 1327 l 1,2,-1
 1142 1327 l 1,3,-1
 1408 1062 l 1,4,-1
 1408 792 l 1,5,-1
 1275 659 l 1,6,-1
 1408 526 l 1,7,-1
 1408 265 l 1,8,-1
 1142 0 l 1,9,-1
 629 0 l 1,10,-1
 629 265 l 1,11,-1
 957 265 l 1,12,-1
 957 548 l 1,13,-1
 629 548 l 1,14,-1
 629 779 l 1,15,-1
 957 779 l 1,16,-1
 957 1062 l 1,0,-1
117 1327 m 1,17,-1
 559 1327 l 1,18,-1
 559 0 l 1,19,-1
 117 0 l 1,20,-1
 117 1327 l 1,17,-1
EndSplineSet
EndChar

StartChar: C
Encoding: 67 67 57
Width: 1440
GlyphClass: 2
Flags: W
LayerCount: 2
Fore
SplineSet
539 0 m 1,0,-1
 363 0 l 1,1,-1
 97 265 l 1,2,-1
 97 1062 l 1,3,-1
 363 1327 l 1,4,-1
 539 1327 l 1,5,-1
 539 0 l 1,0,-1
609 1062 m 1,6,-1
 609 1327 l 1,7,-1
 1080 1327 l 1,8,-1
 1345 1062 l 1,9,-1
 1345 795 l 1,10,-1
 903 795 l 1,11,-1
 903 1062 l 1,12,-1
 609 1062 l 1,6,-1
609 0 m 1,13,-1
 609 265 l 1,14,-1
 903 265 l 1,15,-1
 903 459 l 1,16,-1
 1345 459 l 1,17,-1
 1345 265 l 1,18,-1
 1080 0 l 1,19,-1
 609 0 l 1,13,-1
EndSplineSet
EndChar

StartChar: D
Encoding: 68 68 58
Width: 1486
GlyphClass: 2
Flags: W
LayerCount: 2
Fore
SplineSet
629 0 m 1,0,-1
 629 265 l 1,1,-1
 957 265 l 1,2,-1
 957 1062 l 1,3,-1
 629 1062 l 1,4,-1
 629 1327 l 1,5,-1
 1134 1327 l 1,6,-1
 1400 1062 l 1,7,-1
 1400 265 l 1,8,-1
 1134 0 l 1,9,-1
 629 0 l 1,0,-1
117 1327 m 1,10,-1
 559 1327 l 1,11,-1
 559 0 l 1,12,-1
 117 0 l 1,13,-1
 117 1327 l 1,10,-1
EndSplineSet
EndChar

StartChar: E
Encoding: 69 69 59
Width: 1415
GlyphClass: 2
Flags: W
LayerCount: 2
Fore
SplineSet
559 545 m 1,0,-1
 559 0 l 1,1,-1
 117 0 l 1,2,-1
 117 1327 l 1,3,-1
 559 1327 l 1,4,-1
 559 801 l 1,5,-1
 982 801 l 1,6,-1
 982 545 l 1,7,-1
 559 545 l 1,0,-1
629 1070 m 1,8,-1
 629 1327 l 1,9,-1
 1320 1327 l 1,10,-1
 1320 943 l 1,11,-1
 904 943 l 1,12,-1
 904 1070 l 1,13,-1
 629 1070 l 1,8,-1
629 0 m 1,14,-1
 629 265 l 1,15,-1
 878 265 l 1,16,-1
 878 398 l 1,17,-1
 1320 398 l 1,18,-1
 1320 0 l 1,19,-1
 629 0 l 1,14,-1
EndSplineSet
EndChar

StartChar: F
Encoding: 70 70 60
Width: 1329
GlyphClass: 2
Flags: W
LayerCount: 2
Fore
SplineSet
117 1327 m 1,0,-1
 559 1327 l 1,1,-1
 559 734 l 1,2,-1
 967 734 l 1,3,-1
 967 473 l 1,4,-1
 559 473 l 1,5,-1
 559 0 l 1,6,-1
 117 0 l 1,7,-1
 117 1327 l 1,0,-1
629 1062 m 1,8,-1
 629 1327 l 1,9,-1
 1303 1327 l 1,10,-1
 1303 887 l 1,11,-1
 861 887 l 1,12,-1
 861 1062 l 1,13,-1
 629 1062 l 1,8,-1
EndSplineSet
EndChar

StartChar: G
Encoding: 71 71 61
Width: 1495
GlyphClass: 2
Flags: W
LayerCount: 2
Fore
SplineSet
557 265 m 1,0,-1
 936 265 l 1,1,-1
 936 0 l 1,2,-1
 380 0 l 1,3,-1
 115 265 l 1,4,-1
 115 1062 l 1,5,-1
 380 1327 l 1,6,-1
 557 1327 l 1,7,-1
 557 265 l 1,0,-1
791 736 m 1,8,-1
 1398 736 l 1,9,-1
 1398 0 l 1,10,-1
 1006 0 l 1,11,-1
 1006 473 l 1,12,-1
 791 473 l 1,13,-1
 791 736 l 1,8,-1
627 1062 m 1,14,-1
 627 1327 l 1,15,-1
 1166 1327 l 1,16,-1
 1398 1062 l 1,17,-1
 1398 929 l 1,18,-1
 956 929 l 1,19,-1
 956 1062 l 1,20,-1
 627 1062 l 1,14,-1
EndSplineSet
EndChar

StartChar: H
Encoding: 72 72 62
Width: 1516
GlyphClass: 2
Flags: W
LayerCount: 2
Fore
SplineSet
954 1327 m 1,0,-1
 1400 1327 l 1,1,-1
 1400 0 l 1,2,-1
 957 0 l 1,3,-1
 957 539 l 1,4,-1
 629 539 l 1,5,-1
 629 805 l 1,6,-1
 954 805 l 1,7,-1
 954 1327 l 1,0,-1
559 0 m 1,8,-1
 117 0 l 1,9,-1
 117 1327 l 1,10,-1
 559 1327 l 1,11,-1
 559 0 l 1,8,-1
EndSplineSet
EndChar

StartChar: I
Encoding: 73 73 63
Width: 902
GlyphClass: 2
Flags: W
LayerCount: 2
Fore
SplineSet
97 283 m 1,0,-1
 230 283 l 1,1,-1
 230 1045 l 1,2,-1
 97 1045 l 1,3,-1
 97 1327 l 1,4,-1
 805 1327 l 1,5,-1
 805 1045 l 1,6,-1
 672 1045 l 1,7,-1
 672 283 l 1,8,-1
 805 283 l 1,9,-1
 805 0 l 1,10,-1
 97 0 l 1,11,-1
 97 283 l 1,0,-1
EndSplineSet
EndChar

StartChar: J
Encoding: 74 74 64
Width: 1369
GlyphClass: 2
Flags: W
LayerCount: 2
Fore
SplineSet
213 1327 m 1,0,-1
 1265 1327 l 1,1,-1
 1265 265 l 1,2,-1
 1000 0 l 1,3,-1
 823 0 l 1,4,-1
 823 1038 l 1,5,-1
 213 1038 l 1,6,-1
 213 1327 l 1,0,-1
511 265 m 1,7,-1
 753 265 l 1,8,-1
 753 0 l 1,9,-1
 318 0 l 1,10,-1
 52 265 l 1,11,-1
 52 556 l 1,12,-1
 511 556 l 1,13,-1
 511 265 l 1,7,-1
EndSplineSet
EndChar

StartChar: K
Encoding: 75 75 65
Width: 1370
GlyphClass: 2
Flags: W
LayerCount: 2
Fore
SplineSet
117 0 m 1,0,-1
 117 1327 l 1,1,-1
 559 1327 l 1,2,-1
 559 0 l 1,3,-1
 117 0 l 1,0,-1
627 188 m 1,4,-1
 627 833 l 1,5,-1
 937 1326 l 1,6,-1
 1397 1327 l 1,7,-1
 627 188 l 1,4,-1
1418 0 m 1,8,-1
 940 0 l 1,9,-1
 790 309 l 1,10,-1
 1052 702 l 1,11,-1
 1418 0 l 1,8,-1
EndSplineSet
EndChar

StartChar: L
Encoding: 76 76 66
Width: 1267
GlyphClass: 2
Flags: W
LayerCount: 2
Fore
SplineSet
117 0 m 1,0,-1
 117 1327 l 1,1,-1
 559 1327 l 1,2,-1
 559 0 l 1,3,-1
 117 0 l 1,0,-1
629 0 m 1,4,-1
 629 265 l 1,5,-1
 848 265 l 1,6,-1
 848 433 l 1,7,-1
 1249 433 l 1,8,-1
 1249 0 l 1,9,-1
 629 0 l 1,4,-1
EndSplineSet
EndChar

StartChar: M
Encoding: 77 77 67
Width: 1848
GlyphClass: 2
Flags: W
LayerCount: 2
Fore
SplineSet
118 1327 m 1,0,-1
 588 1327 l 1,1,-1
 944 737 l 1,2,-1
 1224 1217 l 1,3,-1
 1224 549 l 1,4,-1
 905 0 l 1,5,-1
 118 1327 l 1,0,-1
1289 0 m 1,6,-1
 1289 1327 l 1,7,-1
 1731 1327 l 1,8,-1
 1731 0 l 1,9,-1
 1289 0 l 1,6,-1
117 0 m 1,10,-1
 117 1204 l 1,11,-1
 530 511 l 1,12,-1
 530 0 l 1,13,-1
 117 0 l 1,10,-1
EndSplineSet
EndChar

StartChar: N
Encoding: 78 78 68
Width: 1508
GlyphClass: 2
Flags: W
LayerCount: 2
Fore
SplineSet
1391 0 m 1,0,-1
 921 0 l 1,1,-1
 117 1327 l 1,2,-1
 584 1327 l 1,3,-1
 1391 0 l 1,0,-1
117 0 m 1,4,-1
 117 1201 l 1,5,-1
 502 570 l 1,6,-1
 502 0 l 1,7,-1
 117 0 l 1,4,-1
1391 1327 m 1,8,-1
 1391 126 l 1,9,-1
 1006 760 l 1,10,-1
 1006 1327 l 1,11,-1
 1391 1327 l 1,8,-1
EndSplineSet
EndChar

StartChar: O
Encoding: 79 79 69
Width: 1463
GlyphClass: 2
Flags: W
LayerCount: 2
Fore
SplineSet
529 270 m 1,0,-1
 695 270 l 1,1,-1
 695 0 l 1,2,-1
 355 0 l 1,3,-1
 86 265 l 1,4,-1
 86 1062 l 1,5,-1
 355 1327 l 1,6,-1
 695 1327 l 1,7,-1
 695 1058 l 1,8,-1
 529 1058 l 1,9,-1
 529 270 l 1,0,-1
934 1058 m 1,10,-1
 765 1058 l 1,11,-1
 765 1327 l 1,12,-1
 1108 1327 l 1,13,-1
 1376 1062 l 1,14,-1
 1376 265 l 1,15,-1
 1108 0 l 1,16,-1
 765 0 l 1,17,-1
 765 270 l 1,18,-1
 934 270 l 1,19,-1
 934 1058 l 1,10,-1
EndSplineSet
EndChar

StartChar: P
Encoding: 80 80 70
Width: 1458
GlyphClass: 2
Flags: W
LayerCount: 2
Fore
SplineSet
115 0 m 1,0,-1
 115 1327 l 1,1,-1
 549 1327 l 1,2,-1
 549 0 l 1,3,-1
 115 0 l 1,0,-1
619 1062 m 1,4,-1
 619 1327 l 1,5,-1
 1115 1327 l 1,6,-1
 1380 1062 l 1,7,-1
 1380 607 l 1,8,-1
 1115 341 l 1,9,-1
 619 341 l 1,10,-1
 619 607 l 1,11,-1
 940 607 l 1,12,-1
 940 1062 l 1,13,-1
 619 1062 l 1,4,-1
EndSplineSet
EndChar

StartChar: Q
Encoding: 81 81 71
Width: 1477
GlyphClass: 2
Flags: W
LayerCount: 2
Fore
SplineSet
693 0 m 1,0,-1
 362 0 l 1,1,-1
 96 265 l 1,2,-1
 96 1062 l 1,3,-1
 362 1327 l 1,4,-1
 703 1327 l 1,5,-1
 703 1062 l 1,6,-1
 538 1062 l 1,7,-1
 538 265 l 1,8,-1
 888 265 l 1,9,-1
 1319 -142 l 1,10,-1
 1082 -372 l 1,11,-1
 693 0 l 1,0,-1
1379 265 m 1,12,-1
 1188 72 l 1,13,-1
 937 304 l 1,14,-1
 937 1062 l 1,15,-1
 771 1062 l 1,16,-1
 771 1327 l 1,17,-1
 1114 1327 l 1,18,-1
 1379 1062 l 1,19,-1
 1379 265 l 1,12,-1
EndSplineSet
EndChar

StartChar: R
Encoding: 82 82 72
Width: 1486
GlyphClass: 2
Flags: W
LayerCount: 2
Fore
SplineSet
117 0 m 1,0,-1
 117 1327 l 1,1,-1
 559 1327 l 1,2,-1
 559 0 l 1,3,-1
 117 0 l 1,0,-1
629 1062 m 1,4,-1
 629 1327 l 1,5,-1
 1134 1327 l 1,6,-1
 1400 1062 l 1,7,-1
 1400 664 l 1,8,-1
 1196 460 l 1,9,-1
 1182 488 l 1,10,-1
 767 433 l 1,11,-1
 783 398 l 1,12,-1
 629 398 l 1,13,-1
 629 655 l 1,14,-1
 961 655 l 1,15,-1
 961 1062 l 1,16,-1
 629 1062 l 1,4,-1
1445 0 m 1,17,-1
 973 0 l 1,18,-1
 783 398 l 1,19,-1
 1134 398 l 1,20,-1
 1196 460 l 1,21,-1
 1445 0 l 1,17,-1
EndSplineSet
EndChar

StartChar: S
Encoding: 83 83 73
Width: 1477
GlyphClass: 2
Flags: W
LayerCount: 2
Fore
SplineSet
937 0 m 1,0,-1
 937 497 l 1,1,-1
 363 497 l 1,2,-1
 97 763 l 1,3,-1
 97 1062 l 1,4,-1
 363 1327 l 1,5,-1
 513 1327 l 1,6,-1
 513 856 l 1,7,-1
 1123 856 l 1,8,-1
 1380 590 l 1,9,-1
 1380 265 l 1,10,-1
 1115 0 l 1,11,-1
 937 0 l 1,0,-1
583 1088 m 1,12,-1
 583 1327 l 1,13,-1
 1114 1327 l 1,14,-1
 1344 1096 l 1,15,-1
 1344 955 l 1,16,-1
 937 955 l 1,17,-1
 937 1088 l 1,18,-1
 583 1088 l 1,12,-1
97 398 m 1,19,-1
 539 398 l 1,20,-1
 539 240 l 1,21,-1
 867 240 l 1,22,-1
 867 0 l 1,23,-1
 320 0 l 1,24,-1
 97 265 l 1,25,-1
 97 398 l 1,19,-1
EndSplineSet
EndChar

StartChar: T
Encoding: 84 84 74
Width: 1256
GlyphClass: 2
Flags: W
LayerCount: 2
Fore
SplineSet
398 969 m 1,0,-1
 858 969 l 1,1,-1
 858 0 l 1,2,-1
 398 0 l 1,3,-1
 398 969 l 1,0,-1
52 1327 m 1,4,-1
 1204 1327 l 1,5,-1
 1204 1038 l 1,6,-1
 52 1038 l 1,7,-1
 52 1327 l 1,4,-1
EndSplineSet
EndChar

StartChar: U
Encoding: 85 85 75
Width: 1495
GlyphClass: 2
Flags: W
LayerCount: 2
Fore
SplineSet
1388 265 m 1,0,-1
 1123 0 l 1,1,-1
 782 0 l 1,2,-1
 782 265 l 1,3,-1
 946 265 l 1,4,-1
 946 1327 l 1,5,-1
 1388 1327 l 1,6,-1
 1388 265 l 1,0,-1
549 265 m 1,7,-1
 712 265 l 1,8,-1
 712 0 l 1,9,-1
 372 0 l 1,10,-1
 106 265 l 1,11,-1
 106 1327 l 1,12,-1
 549 1327 l 1,13,-1
 549 265 l 1,7,-1
EndSplineSet
EndChar

StartChar: V
Encoding: 86 86 76
Width: 1371
GlyphClass: 2
Flags: W
LayerCount: 2
Fore
SplineSet
884 0 m 1,0,-1
 454 0 l 1,1,-1
 -26 1327 l 1,2,-1
 425 1327 l 1,3,-1
 884 0 l 1,0,-1
953 1327 m 1,4,-1
 1397 1327 l 1,5,-1
 938 40 l 1,6,-1
 739 624 l 1,7,-1
 953 1327 l 1,4,-1
EndSplineSet
EndChar

StartChar: W
Encoding: 87 87 77
Width: 1928
GlyphClass: 2
Flags: W
LayerCount: 2
Fore
SplineSet
609 598 m 1,0,-1
 742 1155 l 1,1,-1
 915 525 l 1,2,-1
 772 0 l 1,3,-1
 371 0 l 1,4,-1
 -26 1327 l 1,5,-1
 414 1327 l 1,6,-1
 609 598 l 1,0,-1
1547 0 m 1,7,-1
 1125 0 l 1,8,-1
 761 1327 l 1,9,-1
 1207 1327 l 1,10,-1
 1547 0 l 1,7,-1
1551 1327 m 1,11,-1
 1954 1327 l 1,12,-1
 1594 69 l 1,13,-1
 1414 776 l 1,14,-1
 1551 1327 l 1,11,-1
EndSplineSet
EndChar

StartChar: X
Encoding: 88 88 78
Width: 1342
GlyphClass: 2
Flags: W
LayerCount: 2
Fore
SplineSet
956 727 m 1,0,-1
 720 1072 l 1,1,-1
 875 1327 l 1,2,-1
 1349 1327 l 1,3,-1
 956 727 l 1,0,-1
-26 0 m 1,4,-1
 397 618 l 1,5,-1
 634 258 l 1,6,-1
 479 0 l 1,7,-1
 -26 0 l 1,4,-1
1368 0 m 1,8,-1
 886 0 l 1,9,-1
 1 1327 l 1,10,-1
 478 1327 l 1,11,-1
 1368 0 l 1,8,-1
EndSplineSet
EndChar

StartChar: Y
Encoding: 89 89 79
Width: 1297
GlyphClass: 2
Flags: W
LayerCount: 2
Fore
SplineSet
424 422 m 1,0,-1
 -26 1327 l 1,1,-1
 408 1327 l 1,2,-1
 867 391 l 1,3,-1
 867 0 l 1,4,-1
 424 0 l 1,5,-1
 424 422 l 1,0,-1
895 484 m 1,6,-1
 680 920 l 1,7,-1
 898 1327 l 1,8,-1
 1323 1327 l 1,9,-1
 895 484 l 1,6,-1
EndSplineSet
EndChar

StartChar: Z
Encoding: 90 90 80
Width: 1271
GlyphClass: 2
Flags: W
LayerCount: 2
Fore
SplineSet
52 248 m 1,0,-1
 919 1327 l 1,1,-1
 1219 1327 l 1,2,-1
 1219 1070 l 1,3,-1
 343 0 l 1,4,-1
 52 0 l 1,5,-1
 52 248 l 1,0,-1
1201 0 m 1,6,-1
 432 0 l 1,7,-1
 684 291 l 1,8,-1
 1201 291 l 1,9,-1
 1201 0 l 1,6,-1
79 1327 m 1,10,-1
 832 1327 l 1,11,-1
 581 1037 l 1,12,-1
 79 1037 l 1,13,-1
 79 1327 l 1,10,-1
EndSplineSet
EndChar

StartChar: bracketleft
Encoding: 91 91 81
Width: 978
GlyphClass: 2
Flags: W
LayerCount: 2
Fore
SplineSet
672 124 m 1,0,-1
 836 124 l 1,1,-1
 836 -142 l 1,2,-1
 274 -142 l 1,3,-1
 274 1469 l 1,4,-1
 836 1469 l 1,5,-1
 836 1204 l 1,6,-1
 672 1204 l 1,7,-1
 672 124 l 1,0,-1
EndSplineSet
EndChar

StartChar: backslash
Encoding: 92 92 82
Width: 746
GlyphClass: 2
Flags: W
LayerCount: 2
Fore
SplineSet
216 1418 m 1,0,-1
 -34 1418 l 1,1,-1
 579 -196 l 1,2,-1
 828 -196 l 1,3,-1
 216 1418 l 1,0,-1
EndSplineSet
EndChar

StartChar: bracketright
Encoding: 93 93 83
Width: 978
GlyphClass: 2
Flags: W
LayerCount: 2
Fore
SplineSet
306 124 m 1,0,-1
 142 124 l 1,1,-1
 142 -142 l 1,2,-1
 704 -142 l 1,3,-1
 704 1469 l 1,4,-1
 142 1469 l 1,5,-1
 142 1204 l 1,6,-1
 306 1204 l 1,7,-1
 306 124 l 1,0,-1
EndSplineSet
EndChar

StartChar: asciicircum
Encoding: 94 94 84
Width: 1290
GlyphClass: 2
Flags: W
LayerCount: 2
Fore
SplineSet
534 1167 m 1,0,-1
 770 1167 l 1,1,-1
 1116 100 l 1,2,-1
 850 100 l 1,3,-1
 534 1167 l 1,0,-1
476 1113 m 1,4,-1
 598 681 l 1,5,-1
 440 100 l 1,6,-1
 174 100 l 1,7,-1
 476 1113 l 1,4,-1
EndSplineSet
EndChar

StartChar: underscore
Encoding: 95 95 85
Width: 1331
GlyphClass: 2
Flags: W
LayerCount: 2
Fore
SplineSet
-86 -200 m 1,0,-1
 1417 -200 l 1,1,-1
 1417 -393 l 1,2,-1
 -86 -393 l 1,3,-1
 -86 -200 l 1,0,-1
EndSplineSet
EndChar

StartChar: grave
Encoding: 96 96 86
Width: 1098
GlyphClass: 2
Flags: W
LayerCount: 2
Fore
SplineSet
791 1291 m 1,0,-1
 730 1144 l 1,1,-1
 175 1311 l 1,2,-1
 121 1522 l 1,3,-1
 305 1607 l 1,4,-1
 791 1291 l 1,0,-1
EndSplineSet
EndChar

StartChar: a
Encoding: 97 97 87
Width: 1331
GlyphClass: 2
Flags: W
LayerCount: 2
Fore
SplineSet
804 0 m 1,0,-1
 804 797 l 1,1,-1
 175 797 l 1,2,-1
 175 929 l 1,3,-1
 308 1062 l 1,4,-1
 971 1062 l 1,5,-1
 1236 797 l 1,6,-1
 1236 0 l 1,7,-1
 804 0 l 1,0,-1
734 618 m 1,8,-1
 734 434 l 1,9,-1
 506 434 l 1,10,-1
 506 248 l 1,11,-1
 734 248 l 1,12,-1
 734 131 l 1,13,-1
 602 0 l 1,14,-1
 264 0 l 1,15,-1
 86 175 l 1,16,-1
 86 441 l 1,17,-1
 264 618 l 1,18,-1
 734 618 l 1,8,-1
EndSplineSet
EndChar

StartChar: b
Encoding: 98 98 88
Width: 1340
GlyphClass: 2
Flags: W
LayerCount: 2
Fore
SplineSet
546 1467 m 1,0,-1
 546 0 l 1,1,-1
 104 0 l 1,2,-1
 104 1467 l 1,3,-1
 546 1467 l 1,0,-1
814 797 m 1,4,-1
 616 797 l 1,5,-1
 616 931 l 1,6,-1
 746 1062 l 1,7,-1
 988 1062 l 1,8,-1
 1254 797 l 1,9,-1
 1254 265 l 1,10,-1
 988 0 l 1,11,-1
 616 0 l 1,12,-1
 616 248 l 1,13,-1
 814 248 l 1,14,-1
 814 797 l 1,4,-1
EndSplineSet
EndChar

StartChar: c
Encoding: 99 99 89
Width: 1323
GlyphClass: 2
Flags: W
LayerCount: 2
Fore
SplineSet
537 0 m 1,0,-1
 360 0 l 1,1,-1
 95 265 l 1,2,-1
 95 797 l 1,3,-1
 360 1062 l 1,4,-1
 537 1062 l 1,5,-1
 537 0 l 1,0,-1
607 797 m 1,6,-1
 607 1062 l 1,7,-1
 980 1062 l 1,8,-1
 1245 797 l 1,9,-1
 1245 638 l 1,10,-1
 803 638 l 1,11,-1
 803 797 l 1,12,-1
 607 797 l 1,6,-1
607 0 m 1,13,-1
 607 248 l 1,14,-1
 803 248 l 1,15,-1
 803 381 l 1,16,-1
 1245 381 l 1,17,-1
 1245 265 l 1,18,-1
 980 0 l 1,19,-1
 607 0 l 1,13,-1
EndSplineSet
EndChar

StartChar: d
Encoding: 100 100 90
Width: 1366
GlyphClass: 2
Flags: W
LayerCount: 2
Fore
SplineSet
1262 1467 m 1,0,-1
 1262 0 l 1,1,-1
 820 0 l 1,2,-1
 820 1467 l 1,3,-1
 1262 1467 l 1,0,-1
537 248 m 1,4,-1
 750 248 l 1,5,-1
 750 105 l 1,6,-1
 645 0 l 1,7,-1
 334 0 l 1,8,-1
 95 239 l 1,9,-1
 95 823 l 1,10,-1
 334 1062 l 1,11,-1
 750 1062 l 1,12,-1
 750 797 l 1,13,-1
 537 797 l 1,14,-1
 537 248 l 1,4,-1
EndSplineSet
EndChar

StartChar: e
Encoding: 101 101 91
Width: 1331
GlyphClass: 2
Flags: W
LayerCount: 2
Fore
SplineSet
537 0 m 1,0,-1
 360 0 l 1,1,-1
 95 265 l 1,2,-1
 95 797 l 1,3,-1
 360 1062 l 1,4,-1
 537 1062 l 1,5,-1
 537 0 l 1,0,-1
607 426 m 1,6,-1
 607 611 l 1,7,-1
 840 611 l 1,8,-1
 840 797 l 1,9,-1
 607 797 l 1,10,-1
 607 1062 l 1,11,-1
 982 1062 l 1,12,-1
 1247 797 l 1,13,-1
 1247 426 l 1,14,-1
 607 426 l 1,6,-1
607 0 m 1,15,-1
 607 248 l 1,16,-1
 1201 248 l 1,17,-1
 1201 133 l 1,18,-1
 1069 0 l 1,19,-1
 607 0 l 1,15,-1
EndSplineSet
EndChar

StartChar: f
Encoding: 102 102 92
Width: 907
GlyphClass: 2
Flags: W
LayerCount: 2
Fore
SplineSet
586 1202 m 1,0,-1
 586 0 l 1,1,-1
 143 0 l 1,2,-1
 143 797 l 1,3,-1
 38 797 l 1,4,-1
 38 1062 l 1,5,-1
 143 1062 l 1,6,-1
 143 1219 l 1,7,-1
 410 1467 l 1,8,-1
 906 1467 l 1,9,-1
 906 1202 l 1,10,-1
 586 1202 l 1,0,-1
653 797 m 1,11,-1
 656 1062 l 1,12,-1
 906 1062 l 1,13,-1
 906 797 l 1,14,-1
 653 797 l 1,11,-1
EndSplineSet
EndChar

StartChar: g
Encoding: 103 103 93
Width: 1340
GlyphClass: 2
Flags: W
LayerCount: 2
Fore
SplineSet
803 797 m 1,0,-1
 607 797 l 1,1,-1
 607 1062 l 1,2,-1
 980 1062 l 1,3,-1
 1245 797 l 1,4,-1
 1245 -105 l 1,5,-1
 980 -372 l 1,6,-1
 397 -372 l 1,7,-1
 264 -238 l 1,8,-1
 264 -140 l 1,9,-1
 803 -140 l 1,10,-1
 803 797 l 1,0,-1
733 248 m 1,11,-1
 733 131 l 1,12,-1
 601 0 l 1,13,-1
 360 0 l 1,14,-1
 95 265 l 1,15,-1
 95 797 l 1,16,-1
 360 1062 l 1,17,-1
 537 1062 l 1,18,-1
 537 248 l 1,19,-1
 733 248 l 1,11,-1
EndSplineSet
EndChar

StartChar: h
Encoding: 104 104 94
Width: 1349
GlyphClass: 2
Flags: W
LayerCount: 2
Fore
SplineSet
104 1467 m 1,0,-1
 546 1467 l 1,1,-1
 546 0 l 1,2,-1
 104 0 l 1,3,-1
 104 1467 l 1,0,-1
811 797 m 1,4,-1
 616 797 l 1,5,-1
 616 931 l 1,6,-1
 746 1062 l 1,7,-1
 988 1062 l 1,8,-1
 1254 797 l 1,9,-1
 1254 0 l 1,10,-1
 811 0 l 1,11,-1
 811 797 l 1,4,-1
EndSplineSet
EndChar

StartChar: i
Encoding: 105 105 95
Width: 653
GlyphClass: 2
Flags: W
LayerCount: 2
Fore
SplineSet
105 1062 m 1,0,-1
 548 1062 l 1,1,-1
 548 0 l 1,2,-1
 105 0 l 1,3,-1
 105 1062 l 1,0,-1
105 1476 m 1,4,-1
 548 1476 l 1,5,-1
 548 1194 l 1,6,-1
 105 1194 l 1,7,-1
 105 1476 l 1,4,-1
EndSplineSet
EndChar

StartChar: j
Encoding: 106 106 96
Width: 653
GlyphClass: 2
Flags: W
LayerCount: 2
Fore
SplineSet
-100 -88 m 1,0,-1
 105 -88 l 1,1,-1
 105 1062 l 1,2,-1
 548 1062 l 1,3,-1
 548 -88 l 1,4,-1
 282 -354 l 1,5,-1
 -100 -354 l 1,6,-1
 -100 -88 l 1,0,-1
105 1476 m 1,7,-1
 547 1476 l 1,8,-1
 547 1194 l 1,9,-1
 105 1194 l 1,10,-1
 105 1476 l 1,7,-1
EndSplineSet
EndChar

StartChar: k
Encoding: 107 107 97
Width: 1312
GlyphClass: 2
Flags: W
LayerCount: 2
Fore
SplineSet
546 0 m 1,0,-1
 104 0 l 1,1,-1
 104 1467 l 1,2,-1
 546 1467 l 1,3,-1
 546 0 l 1,0,-1
615 150 m 1,4,-1
 615 756 l 1,5,-1
 819 1060 l 1,6,-1
 1276 1061 l 1,7,-1
 615 150 l 1,4,-1
1299 0 m 1,8,-1
 819 0 l 1,9,-1
 746 214 l 1,10,-1
 1007 566 l 1,11,-1
 1299 0 l 1,8,-1
EndSplineSet
EndChar

StartChar: l
Encoding: 108 108 98
Width: 753
GlyphClass: 2
Flags: W
LayerCount: 2
Fore
SplineSet
744 0 m 1,0,-1
 352 0 l 1,1,-1
 104 248 l 1,2,-1
 104 1467 l 1,3,-1
 546 1467 l 1,4,-1
 546 265 l 1,5,-1
 744 265 l 1,6,-1
 744 0 l 1,0,-1
EndSplineSet
EndChar

StartChar: m
Encoding: 109 109 99
Width: 2043
GlyphClass: 2
Flags: W
LayerCount: 2
Fore
SplineSet
119 0 m 1,0,-1
 119 1062 l 1,1,-1
 562 1062 l 1,2,-1
 562 0 l 1,3,-1
 119 0 l 1,0,-1
812 797 m 1,4,-1
 632 797 l 1,5,-1
 632 922 l 1,6,-1
 771 1062 l 1,7,-1
 1113 1062 l 1,8,-1
 1255 920 l 1,9,-1
 1255 0 l 1,10,-1
 812 0 l 1,11,-1
 812 797 l 1,4,-1
1505 797 m 1,12,-1
 1325 797 l 1,13,-1
 1325 920 l 1,14,-1
 1461 1062 l 1,15,-1
 1731 1062 l 1,16,-1
 1947 844 l 1,17,-1
 1947 0 l 1,18,-1
 1505 0 l 1,19,-1
 1505 797 l 1,12,-1
EndSplineSet
EndChar

StartChar: n
Encoding: 110 110 100
Width: 1356
GlyphClass: 2
Flags: W
LayerCount: 2
Fore
SplineSet
104 0 m 1,0,-1
 104 1062 l 1,1,-1
 550 1062 l 1,2,-1
 550 0 l 1,3,-1
 104 0 l 1,0,-1
812 797 m 1,4,-1
 622 797 l 1,5,-1
 622 913 l 1,6,-1
 770 1062 l 1,7,-1
 1016 1062 l 1,8,-1
 1255 823 l 1,9,-1
 1255 0 l 1,10,-1
 812 0 l 1,11,-1
 812 797 l 1,4,-1
EndSplineSet
EndChar

StartChar: o
Encoding: 111 111 101
Width: 1383
GlyphClass: 2
Flags: W
LayerCount: 2
Fore
SplineSet
1288 265 m 1,0,-1
 1023 0 l 1,1,-1
 727 0 l 1,2,-1
 727 248 l 1,3,-1
 837 248 l 1,4,-1
 837 797 l 1,5,-1
 727 797 l 1,6,-1
 727 1062 l 1,7,-1
 1023 1062 l 1,8,-1
 1288 797 l 1,9,-1
 1288 265 l 1,0,-1
542 248 m 1,10,-1
 657 248 l 1,11,-1
 657 0 l 1,12,-1
 360 0 l 1,13,-1
 95 265 l 1,14,-1
 95 797 l 1,15,-1
 360 1062 l 1,16,-1
 657 1062 l 1,17,-1
 657 797 l 1,18,-1
 542 797 l 1,19,-1
 542 248 l 1,10,-1
EndSplineSet
EndChar

StartChar: p
Encoding: 112 112 102
Width: 1349
GlyphClass: 2
Flags: W
LayerCount: 2
Fore
SplineSet
104 -354 m 1,0,-1
 104 1062 l 1,1,-1
 546 1062 l 1,2,-1
 546 -354 l 1,3,-1
 104 -354 l 1,0,-1
811 797 m 1,4,-1
 616 797 l 1,5,-1
 616 931 l 1,6,-1
 746 1062 l 1,7,-1
 988 1062 l 1,8,-1
 1254 797 l 1,9,-1
 1254 265 l 1,10,-1
 988 0 l 1,11,-1
 616 0 l 1,12,-1
 616 248 l 1,13,-1
 811 248 l 1,14,-1
 811 797 l 1,4,-1
EndSplineSet
EndChar

StartChar: q
Encoding: 113 113 103
Width: 1350
GlyphClass: 2
Flags: W
LayerCount: 2
Fore
SplineSet
934 -354 m 1,0,-1
 804 -221 l 1,1,-1
 804 797 l 1,2,-1
 607 797 l 1,3,-1
 607 1062 l 1,4,-1
 980 1062 l 1,5,-1
 1246 797 l 1,6,-1
 1246 -354 l 1,7,-1
 934 -354 l 1,0,-1
537 248 m 1,8,-1
 734 248 l 1,9,-1
 734 131 l 1,10,-1
 602 0 l 1,11,-1
 361 0 l 1,12,-1
 95 265 l 1,13,-1
 95 797 l 1,14,-1
 361 1062 l 1,15,-1
 537 1062 l 1,16,-1
 537 248 l 1,8,-1
EndSplineSet
EndChar

StartChar: r
Encoding: 114 114 104
Width: 1280
GlyphClass: 2
Flags: W
LayerCount: 2
Fore
SplineSet
805 797 m 1,0,-1
 617 797 l 1,1,-1
 617 913 l 1,2,-1
 765 1062 l 1,3,-1
 1033 1062 l 1,4,-1
 1248 814 l 1,5,-1
 1248 539 l 1,6,-1
 805 539 l 1,7,-1
 805 797 l 1,0,-1
104 0 m 1,8,-1
 104 1062 l 1,9,-1
 546 1062 l 1,10,-1
 546 0 l 1,11,-1
 104 0 l 1,8,-1
EndSplineSet
EndChar

StartChar: s
Encoding: 115 115 105
Width: 1315
GlyphClass: 2
Flags: W
LayerCount: 2
Fore
SplineSet
335 1062 m 1,0,-1
 512 1062 l 1,1,-1
 512 687 l 1,2,-1
 1016 687 l 1,3,-1
 1246 455 l 1,4,-1
 1246 248 l 1,5,-1
 999 0 l 1,6,-1
 804 0 l 1,7,-1
 804 401 l 1,8,-1
 326 401 l 1,9,-1
 96 622 l 1,10,-1
 96 824 l 1,11,-1
 335 1062 l 1,0,-1
538 195 m 1,12,-1
 734 195 l 1,13,-1
 734 0 l 1,14,-1
 279 1 l 1,15,-1
 95 219 l 1,16,-1
 95 304 l 1,17,-1
 538 304 l 1,18,-1
 538 195 l 1,12,-1
804 867 m 1,19,-1
 582 867 l 1,20,-1
 582 1062 l 1,21,-1
 1052 1062 l 1,22,-1
 1210 904 l 1,23,-1
 1210 784 l 1,24,-1
 804 784 l 1,25,-1
 804 867 l 1,19,-1
EndSplineSet
EndChar

StartChar: t
Encoding: 116 116 106
Width: 915
GlyphClass: 2
Flags: W
LayerCount: 2
Fore
SplineSet
558 265 m 1,0,-1
 850 265 l 1,1,-1
 850 0 l 1,2,-1
 382 0 l 1,3,-1
 116 265 l 1,4,-1
 116 797 l 1,5,-1
 28 797 l 1,6,-1
 28 1062 l 1,7,-1
 116 1062 l 1,8,-1
 116 1177 l 1,9,-1
 558 1327 l 1,10,-1
 558 265 l 1,0,-1
628 797 m 1,11,-1
 628 1062 l 1,12,-1
 866 1062 l 1,13,-1
 866 797 l 1,14,-1
 628 797 l 1,11,-1
EndSplineSet
EndChar

StartChar: u
Encoding: 117 117 107
Width: 1350
GlyphClass: 2
Flags: W
LayerCount: 2
Fore
SplineSet
1246 1062 m 1,0,-1
 1246 0 l 1,1,-1
 804 0 l 1,2,-1
 804 1062 l 1,3,-1
 1246 1062 l 1,0,-1
537 265 m 1,4,-1
 734 265 l 1,5,-1
 734 133 l 1,6,-1
 606 0 l 1,7,-1
 361 0 l 1,8,-1
 95 265 l 1,9,-1
 95 1062 l 1,10,-1
 537 1062 l 1,11,-1
 537 265 l 1,4,-1
EndSplineSet
EndChar

StartChar: v
Encoding: 118 118 108
Width: 1192
GlyphClass: 2
Flags: W
LayerCount: 2
Fore
SplineSet
-14 1062 m 1,0,-1
 425 1062 l 1,1,-1
 803 0 l 1,2,-1
 383 0 l 1,3,-1
 -14 1062 l 1,0,-1
848 59 m 1,4,-1
 650 621 l 1,5,-1
 793 1062 l 1,6,-1
 1206 1062 l 1,7,-1
 848 59 l 1,4,-1
EndSplineSet
EndChar

StartChar: w
Encoding: 119 119 109
Width: 1846
GlyphClass: 2
Flags: W
LayerCount: 2
Fore
SplineSet
-14 1062 m 1,0,-1
 408 1062 l 1,1,-1
 581 509 l 1,2,-1
 704 892 l 1,3,-1
 863 403 l 1,4,-1
 737 -1 l 1,5,-1
 736 0 l 1,6,-1
 367 0 l 1,7,-1
 -14 1062 l 1,0,-1
710 1062 m 1,8,-1
 1127 1062 l 1,9,-1
 1469 0 l 1,10,-1
 1068 0 l 1,11,-1
 710 1062 l 1,8,-1
1513 66 m 1,12,-1
 1327 638 l 1,13,-1
 1446 1062 l 1,14,-1
 1860 1062 l 1,15,-1
 1513 66 l 1,12,-1
EndSplineSet
EndChar

StartChar: x
Encoding: 120 120 110
Width: 1140
GlyphClass: 2
Flags: W
LayerCount: 2
Fore
SplineSet
446 1062 m 1,0,-1
 1153 0 l 1,1,-1
 694 0 l 1,2,-1
 -14 1062 l 1,3,-1
 446 1062 l 1,0,-1
619 915 m 1,4,-1
 694 1062 l 1,5,-1
 1153 1062 l 1,6,-1
 847 572 l 1,7,-1
 619 915 l 1,4,-1
446 0 m 1,8,-1
 -14 0 l 1,9,-1
 281 506 l 1,10,-1
 518 149 l 1,11,-1
 446 0 l 1,8,-1
EndSplineSet
EndChar

StartChar: y
Encoding: 121 121 111
Width: 1221
GlyphClass: 2
Flags: W
LayerCount: 2
Fore
SplineSet
696 -370 m 1,0,-1
 272 -370 l 1,1,-1
 810 1062 l 1,2,-1
 1235 1062 l 1,3,-1
 696 -370 l 1,0,-1
-14 1062 m 1,4,-1
 427 1062 l 1,5,-1
 576 630 l 1,6,-1
 378 89 l 1,7,-1
 -14 1062 l 1,4,-1
EndSplineSet
EndChar

StartChar: z
Encoding: 122 122 112
Width: 1181
GlyphClass: 2
Flags: W
LayerCount: 2
Fore
SplineSet
1091 0 m 1,0,-1
 473 0 l 1,1,-1
 708 265 l 1,2,-1
 1091 265 l 1,3,-1
 1091 0 l 1,0,-1
105 1062 m 1,4,-1
 702 1062 l 1,5,-1
 473 797 l 1,6,-1
 105 797 l 1,7,-1
 105 1062 l 1,4,-1
95 257 m 1,8,-1
 785 1062 l 1,9,-1
 1090 1062 l 1,10,-1
 1090 797 l 1,11,-1
 391 0 l 1,12,-1
 95 0 l 1,13,-1
 95 257 l 1,8,-1
EndSplineSet
EndChar

StartChar: braceleft
Encoding: 123 123 113
Width: 978
GlyphClass: 2
Flags: W
LayerCount: 2
Fore
SplineSet
664 817 m 1,0,-1
 520 684 l 1,1,-1
 664 510 l 1,2,-1
 664 124 l 1,3,-1
 828 124 l 1,4,-1
 828 -142 l 1,5,-1
 495 -142 l 1,6,-1
 230 124 l 1,7,-1
 230 510 l 1,8,-1
 87 664 l 1,9,-1
 230 817 l 1,10,-1
 230 1204 l 1,11,-1
 495 1469 l 1,12,-1
 828 1469 l 1,13,-1
 828 1204 l 1,14,-1
 664 1204 l 1,15,-1
 664 817 l 1,0,-1
EndSplineSet
EndChar

StartChar: bar
Encoding: 124 124 114
Width: 700
GlyphClass: 2
Flags: W
LayerCount: 2
Fore
SplineSet
230 -196 m 1,0,-1
 230 1418 l 1,1,-1
 470 1418 l 1,2,-1
 470 -196 l 1,3,-1
 230 -196 l 1,0,-1
EndSplineSet
EndChar

StartChar: braceright
Encoding: 125 125 115
Width: 978
GlyphClass: 2
Flags: W
LayerCount: 2
Fore
SplineSet
313 817 m 1,0,-1
 457 684 l 1,1,-1
 313 510 l 1,2,-1
 313 124 l 1,3,-1
 149 124 l 1,4,-1
 149 -142 l 1,5,-1
 482 -142 l 1,6,-1
 747 124 l 1,7,-1
 747 510 l 1,8,-1
 890 664 l 1,9,-1
 747 817 l 1,10,-1
 747 1204 l 1,11,-1
 482 1469 l 1,12,-1
 149 1469 l 1,13,-1
 149 1204 l 1,14,-1
 313 1204 l 1,15,-1
 313 817 l 1,0,-1
EndSplineSet
EndChar

StartChar: asciitilde
Encoding: 126 126 116
Width: 1491
GlyphClass: 2
Flags: W
LayerCount: 2
Fore
SplineSet
1153 336 m 1,0,-1
 750 336 l 1,1,-1
 517 569 l 1,2,-1
 409 569 l 1,3,-1
 200 425 l 1,4,-1
 113 513 l 1,5,-1
 350 807 l 1,6,-1
 750 807 l 1,7,-1
 988 569 l 1,8,-1
 1091 569 l 1,9,-1
 1299 718 l 1,10,-1
 1387 628 l 1,11,-1
 1153 336 l 1,0,-1
EndSplineSet
EndChar

StartChar: exclamdown
Encoding: 161 161 118
Width: 753
GlyphClass: 2
Flags: W
LayerCount: 2
Fore
SplineSet
170 781 m 1,0,-1
 585 781 l 1,1,-1
 612 -104 l 1,2,-1
 142 -104 l 1,3,-1
 170 781 l 1,0,-1
598 914 m 1,4,-1
 156 914 l 1,5,-1
 156 1223 l 1,6,-1
 598 1223 l 1,7,-1
 598 914 l 1,4,-1
EndSplineSet
EndChar

StartChar: cent
Encoding: 162 162 119
Width: 1610
GlyphClass: 2
Flags: W
LayerCount: 2
Fore
SplineSet
605 133 m 1,0,-1
 495 133 l 1,1,-1
 230 398 l 1,2,-1
 230 929 l 1,3,-1
 495 1194 l 1,4,-1
 672 1194 l 1,5,-1
 672 398 l 1,6,-1
 870 398 l 1,7,-1
 870 -17 l 1,8,-1
 605 -17 l 1,9,-1
 605 133 l 1,0,-1
740 929 m 1,10,-1
 740 1344 l 1,11,-1
 1005 1344 l 1,12,-1
 1005 1194 l 1,13,-1
 1115 1194 l 1,14,-1
 1380 929 l 1,15,-1
 1380 797 l 1,16,-1
 937 797 l 1,17,-1
 937 929 l 1,18,-1
 740 929 l 1,10,-1
937 133 m 1,19,-1
 937 530 l 1,20,-1
 1380 530 l 1,21,-1
 1380 398 l 1,22,-1
 1115 133 l 1,23,-1
 937 133 l 1,19,-1
EndSplineSet
EndChar

StartChar: sterling
Encoding: 163 163 120
Width: 1743
GlyphClass: 2
Flags: W
LayerCount: 2
Fore
SplineSet
849 708 m 1,0,-1
 1156 708 l 1,1,-1
 1156 520 l 1,2,-1
 849 520 l 1,3,-1
 849 0 l 1,4,-1
 230 0 l 1,5,-1
 230 265 l 1,6,-1
 407 264 l 1,7,-1
 407 265 l 1,8,-1
 407 520 l 1,9,-1
 230 520 l 1,10,-1
 230 708 l 1,11,-1
 407 708 l 1,12,-1
 407 1151 l 1,13,-1
 672 1416 l 1,14,-1
 849 1416 l 1,15,-1
 849 708 l 1,0,-1
917 1151 m 1,16,-1
 917 1416 l 1,17,-1
 1239 1416 l 1,18,-1
 1504 1151 l 1,19,-1
 1504 1020 l 1,20,-1
 1105 1020 l 1,21,-1
 1105 1151 l 1,22,-1
 917 1151 l 1,16,-1
917 0 m 1,23,-1
 917 265 l 1,24,-1
 1513 264 l 1,25,-1
 1513 0 l 1,26,-1
 917 0 l 1,23,-1
EndSplineSet
EndChar

StartChar: currency
Encoding: 164 164 121
Width: 1461
GlyphClass: 2
Flags: W
LayerCount: 2
Fore
SplineSet
485 709 m 1,0,-1
 244 709 l 1,1,-1
 244 861 l 1,2,-1
 329 945 l 1,3,-1
 110 1168 l 1,4,-1
 225 1285 l 1,5,-1
 449 1065 l 1,6,-1
 543 1159 l 1,7,-1
 696 1159 l 1,8,-1
 696 906 l 1,9,-1
 485 906 l 1,10,-1
 485 709 l 1,0,-1
1235 709 m 1,11,-1
 994 709 l 1,12,-1
 994 906 l 1,13,-1
 778 906 l 1,14,-1
 778 1159 l 1,15,-1
 936 1159 l 1,16,-1
 1020 1072 l 1,17,-1
 1235 1285 l 1,18,-1
 1351 1168 l 1,19,-1
 1140 954 l 1,20,-1
 1235 861 l 1,21,-1
 1235 709 l 1,11,-1
329 382 m 1,22,-1
 244 466 l 1,23,-1
 244 628 l 1,24,-1
 485 628 l 1,25,-1
 485 417 l 1,26,-1
 696 417 l 1,27,-1
 696 168 l 1,28,-1
 543 168 l 1,29,-1
 449 262 l 1,30,-1
 225 42 l 1,31,-1
 110 157 l 1,32,-1
 329 382 l 1,22,-1
1020 255 m 1,33,-1
 936 168 l 1,34,-1
 778 168 l 1,35,-1
 778 417 l 1,36,-1
 994 417 l 1,37,-1
 994 628 l 1,38,-1
 1235 628 l 1,39,-1
 1235 466 l 1,40,-1
 1140 373 l 1,41,-1
 1351 157 l 1,42,-1
 1235 42 l 1,43,-1
 1020 255 l 1,33,-1
EndSplineSet
EndChar

StartChar: yen
Encoding: 165 165 122
Width: 1739
GlyphClass: 2
Flags: W
LayerCount: 2
Fore
SplineSet
371 556 m 1,0,-1
 615 556 l 1,1,-1
 195 1327 l 1,2,-1
 620 1327 l 1,3,-1
 1042 556 l 1,4,-1
 1362 556 l 1,5,-1
 1362 423 l 1,6,-1
 1088 423 l 1,7,-1
 1088 314 l 1,8,-1
 1362 314 l 1,9,-1
 1362 182 l 1,10,-1
 1088 182 l 1,11,-1
 1088 0 l 1,12,-1
 645 0 l 1,13,-1
 645 182 l 1,14,-1
 371 182 l 1,15,-1
 371 314 l 1,16,-1
 645 314 l 1,17,-1
 645 423 l 1,18,-1
 371 423 l 1,19,-1
 371 556 l 1,0,-1
1148 616 m 1,20,-1
 1091 616 l 1,21,-1
 895 964 l 1,22,-1
 1119 1327 l 1,23,-1
 1544 1327 l 1,24,-1
 1148 616 l 1,20,-1
EndSplineSet
EndChar

StartChar: brokenbar
Encoding: 166 166 123
Width: 698
GlyphClass: 2
Flags: W
LayerCount: 2
Fore
SplineSet
230 697 m 1,0,-1
 230 1418 l 1,1,-1
 468 1418 l 1,2,-1
 468 697 l 1,3,-1
 230 697 l 1,0,-1
230 -196 m 1,4,-1
 230 512 l 1,5,-1
 468 512 l 1,6,-1
 468 -196 l 1,7,-1
 230 -196 l 1,4,-1
EndSplineSet
EndChar

StartChar: section
Encoding: 167 167 124
Width: 1573
GlyphClass: 2
Flags: W
LayerCount: 2
Fore
SplineSet
956 540 m 1,0,-1
 956 896 l 1,1,-1
 370 897 l 1,2,-1
 181 1085 l 1,3,-1
 181 1300 l 1,4,-1
 371 1490 l 1,5,-1
 751 1490 l 1,6,-1
 751 1300 l 1,7,-1
 618 1300 l 1,8,-1
 618 1085 l 1,9,-1
 1177 1085 l 1,10,-1
 1369 896 l 1,11,-1
 1369 540 l 1,12,-1
 956 540 l 1,0,-1
1202 473 m 1,13,-1
 1392 283 l 1,14,-1
 1392 68 l 1,15,-1
 1203 -121 l 1,16,-1
 823 -121 l 1,17,-1
 823 68 l 1,18,-1
 956 68 l 1,19,-1
 956 283 l 1,20,-1
 409 283 l 1,21,-1
 216 473 l 1,22,-1
 216 829 l 1,23,-1
 618 829 l 1,24,-1
 618 473 l 1,25,-1
 1202 473 l 1,13,-1
822 1490 m 1,26,-1
 1202 1490 l 1,27,-1
 1392 1300 l 1,28,-1
 1392 1187 l 1,29,-1
 955 1187 l 1,30,-1
 955 1300 l 1,31,-1
 822 1300 l 1,32,-1
 822 1490 l 1,26,-1
752 -121 m 1,33,-1
 372 -121 l 1,34,-1
 181 68 l 1,35,-1
 181 181 l 1,36,-1
 619 181 l 1,37,-1
 619 68 l 1,38,-1
 752 68 l 1,39,-1
 752 -121 l 1,33,-1
EndSplineSet
EndChar

StartChar: dieresis
Encoding: 168 168 125
Width: 1414
GlyphClass: 2
Flags: W
LayerCount: 2
Fore
SplineSet
274 1560 m 1,0,-1
 610 1560 l 1,1,-1
 610 1279 l 1,2,-1
 274 1279 l 1,3,-1
 274 1560 l 1,0,-1
804 1560 m 1,4,-1
 1140 1560 l 1,5,-1
 1140 1279 l 1,6,-1
 804 1279 l 1,7,-1
 804 1560 l 1,4,-1
EndSplineSet
EndChar

StartChar: copyright
Encoding: 169 169 126
Width: 1586
GlyphClass: 2
Flags: W
LayerCount: 2
Fore
SplineSet
822 1062 m 1,0,-1
 822 1282 l 1,1,-1
 1183 1282 l 1,2,-1
 1491 973 l 1,3,-1
 1491 265 l 1,4,-1
 1183 -43 l 1,5,-1
 839 -43 l 1,6,-1
 839 177 l 1,7,-1
 1046 177 l 1,8,-1
 1236 368 l 1,9,-1
 1236 530 l 1,10,-1
 899 530 l 1,11,-1
 899 398 l 1,12,-1
 687 398 l 1,13,-1
 687 841 l 1,14,-1
 899 841 l 1,15,-1
 899 708 l 1,16,-1
 1236 708 l 1,17,-1
 1236 867 l 1,18,-1
 1045 1062 l 1,19,-1
 822 1062 l 1,0,-1
95 265 m 1,20,-1
 95 973 l 1,21,-1
 404 1282 l 1,22,-1
 768 1282 l 1,23,-1
 768 1062 l 1,24,-1
 545 1062 l 1,25,-1
 351 867 l 1,26,-1
 351 370 l 1,27,-1
 543 177 l 1,28,-1
 786 177 l 1,29,-1
 786 -43 l 1,30,-1
 404 -43 l 1,31,-1
 95 265 l 1,20,-1
EndSplineSet
EndChar

StartChar: ordfeminine
Encoding: 170 170 127
Width: 1145
GlyphClass: 2
Flags: W
LayerCount: 2
Fore
SplineSet
670 530 m 1,0,-1
 670 1128 l 1,1,-1
 206 1128 l 1,2,-1
 206 1228 l 1,3,-1
 306 1327 l 1,4,-1
 804 1327 l 1,5,-1
 1003 1128 l 1,6,-1
 1003 530 l 1,7,-1
 670 530 l 1,0,-1
603 1001 m 1,8,-1
 603 856 l 1,9,-1
 473 856 l 1,10,-1
 473 729 l 1,11,-1
 603 729 l 1,12,-1
 603 628 l 1,13,-1
 504 530 l 1,14,-1
 274 530 l 1,15,-1
 142 662 l 1,16,-1
 142 869 l 1,17,-1
 274 1001 l 1,18,-1
 603 1001 l 1,8,-1
483 361 m 1,19,-1
 660 361 l 1,20,-1
 792 228 l 1,21,-1
 792 52 l 1,22,-1
 660 -81 l 1,23,-1
 483 -81 l 1,24,-1
 350 52 l 1,25,-1
 350 228 l 1,26,-1
 483 361 l 1,19,-1
EndSplineSet
EndChar

StartChar: guillemotleft
Encoding: 171 171 128
Width: 1722
GlyphClass: 2
Flags: W
LayerCount: 2
Fore
SplineSet
834 613 m 1,0,-1
 1254 1045 l 1,1,-1
 1519 1045 l 1,2,-1
 1238 536 l 1,3,-1
 1519 27 l 1,4,-1
 1254 27 l 1,5,-1
 834 459 l 1,6,-1
 834 613 l 1,0,-1
202 613 m 1,7,-1
 622 1045 l 1,8,-1
 887 1045 l 1,9,-1
 606 536 l 1,10,-1
 887 27 l 1,11,-1
 622 27 l 1,12,-1
 202 459 l 1,13,-1
 202 613 l 1,7,-1
EndSplineSet
EndChar

StartChar: logicalnot
Encoding: 172 172 129
Width: 1623
GlyphClass: 2
Flags: W
LayerCount: 2
Fore
SplineSet
186 969 m 1,0,-1
 1437 969 l 1,1,-1
 1437 270 l 1,2,-1
 1198 270 l 1,3,-1
 1198 731 l 1,4,-1
 186 731 l 1,5,-1
 186 969 l 1,0,-1
EndSplineSet
EndChar

StartChar: uni00AD
Encoding: 173 173 130
Width: 1077
GlyphClass: 2
Flags: W
LayerCount: 2
Fore
SplineSet
97 752 m 1,0,-1
 982 752 l 1,1,-1
 982 486 l 1,2,-1
 97 486 l 1,3,-1
 97 752 l 1,0,-1
EndSplineSet
EndChar

StartChar: registered
Encoding: 174 174 131
Width: 1586
GlyphClass: 2
Flags: W
LayerCount: 2
Fore
SplineSet
1085 -43 m 1,0,-1
 1085 177 l 1,1,-1
 1267 177 l 1,2,-1
 1103 483 l 1,3,-1
 1237 618 l 1,4,-1
 1237 885 l 1,5,-1
 1060 1062 l 1,6,-1
 820 1062 l 1,7,-1
 820 1282 l 1,8,-1
 1183 1282 l 1,9,-1
 1491 973 l 1,10,-1
 1491 265 l 1,11,-1
 1183 -43 l 1,12,-1
 1085 -43 l 1,0,-1
404 -43 m 1,13,-1
 95 265 l 1,14,-1
 95 973 l 1,15,-1
 404 1282 l 1,16,-1
 766 1282 l 1,17,-1
 766 1062 l 1,18,-1
 347 1062 l 1,19,-1
 347 177 l 1,20,-1
 501 177 l 1,21,-1
 501 -43 l 1,22,-1
 404 -43 l 1,13,-1
905 177 m 1,23,-1
 1032 177 l 1,24,-1
 1032 -43 l 1,25,-1
 555 -43 l 1,26,-1
 555 177 l 1,27,-1
 696 177 l 1,28,-1
 696 442 l 1,29,-1
 772 442 l 1,30,-1
 905 177 l 1,23,-1
696 849 m 1,31,-1
 891 849 l 1,32,-1
 891 655 l 1,33,-1
 696 655 l 1,34,-1
 696 849 l 1,31,-1
EndSplineSet
EndChar

StartChar: macron
Encoding: 175 175 132
Width: 1238
GlyphClass: 2
Flags: W
LayerCount: 2
Fore
SplineSet
251 1393 m 1,0,-1
 980 1393 l 1,1,-1
 980 1223 l 1,2,-1
 251 1223 l 1,3,-1
 251 1393 l 1,0,-1
EndSplineSet
EndChar

StartChar: degree
Encoding: 176 176 133
Width: 1173
GlyphClass: 2
Flags: W
LayerCount: 2
Fore
SplineSet
620 481 m 1,0,-1
 620 718 l 1,1,-1
 767 718 l 1,2,-1
 767 1081 l 1,3,-1
 620 1081 l 1,4,-1
 620 1327 l 1,5,-1
 792 1327 l 1,6,-1
 1035 1084 l 1,7,-1
 1035 724 l 1,8,-1
 792 481 l 1,9,-1
 620 481 l 1,0,-1
553 718 m 1,10,-1
 553 481 l 1,11,-1
 380 481 l 1,12,-1
 138 724 l 1,13,-1
 138 1084 l 1,14,-1
 380 1327 l 1,15,-1
 553 1327 l 1,16,-1
 553 1081 l 1,17,-1
 406 1081 l 1,18,-1
 406 718 l 1,19,-1
 553 718 l 1,10,-1
EndSplineSet
EndChar

StartChar: plusminus
Encoding: 177 177 134
Width: 1439
GlyphClass: 2
Flags: W
LayerCount: 2
Fore
SplineSet
186 910 m 1,0,-1
 601 910 l 1,1,-1
 601 1140 l 1,2,-1
 842 1140 l 1,3,-1
 842 910 l 1,4,-1
 1253 910 l 1,5,-1
 1253 670 l 1,6,-1
 842 670 l 1,7,-1
 842 442 l 1,8,-1
 601 442 l 1,9,-1
 601 670 l 1,10,-1
 186 670 l 1,11,-1
 186 910 l 1,0,-1
186 313 m 1,12,-1
 1253 313 l 1,13,-1
 1253 74 l 1,14,-1
 186 74 l 1,15,-1
 186 313 l 1,12,-1
EndSplineSet
EndChar

StartChar: twosuperior
Encoding: 178 178 135
Width: 1083
GlyphClass: 2
Flags: W
LayerCount: 2
Fore
SplineSet
424 398 m 1,0,-1
 97 398 l 1,1,-1
 97 738 l 1,2,-1
 283 924 l 1,3,-1
 667 924 l 1,4,-1
 667 1327 l 1,5,-1
 791 1327 l 1,6,-1
 994 1141 l 1,7,-1
 994 924 l 1,8,-1
 809 738 l 1,9,-1
 424 738 l 1,10,-1
 424 398 l 1,0,-1
283 1327 m 1,11,-1
 597 1327 l 1,12,-1
 597 1141 l 1,13,-1
 407 1141 l 1,14,-1
 407 1047 l 1,15,-1
 97 1047 l 1,16,-1
 97 1141 l 1,17,-1
 283 1327 l 1,11,-1
485 398 m 1,18,-1
 485 584 l 1,19,-1
 1012 584 l 1,20,-1
 1012 398 l 1,21,-1
 485 398 l 1,18,-1
EndSplineSet
EndChar

StartChar: threesuperior
Encoding: 179 179 136
Width: 1076
GlyphClass: 2
Flags: W
LayerCount: 2
Fore
SplineSet
665 398 m 1,0,-1
 665 772 l 1,1,-1
 359 772 l 1,2,-1
 359 956 l 1,3,-1
 665 956 l 1,4,-1
 665 1327 l 1,5,-1
 792 1327 l 1,6,-1
 978 1145 l 1,7,-1
 978 956 l 1,8,-1
 886 861 l 1,9,-1
 978 772 l 1,10,-1
 978 582 l 1,11,-1
 792 398 l 1,12,-1
 665 398 l 1,0,-1
265 1327 m 1,13,-1
 598 1327 l 1,14,-1
 598 1141 l 1,15,-1
 389 1141 l 1,16,-1
 389 1047 l 1,17,-1
 79 1047 l 1,18,-1
 79 1141 l 1,19,-1
 265 1327 l 1,13,-1
598 582 m 1,20,-1
 598 398 l 1,21,-1
 265 398 l 1,22,-1
 79 582 l 1,23,-1
 79 677 l 1,24,-1
 389 677 l 1,25,-1
 389 582 l 1,26,-1
 598 582 l 1,20,-1
EndSplineSet
EndChar

StartChar: acute
Encoding: 180 180 137
Width: 1098
GlyphClass: 2
Flags: W
LayerCount: 2
Fore
SplineSet
760 1607 m 1,0,-1
 944 1522 l 1,1,-1
 890 1311 l 1,2,-1
 336 1144 l 1,3,-1
 274 1291 l 1,4,-1
 760 1607 l 1,0,-1
EndSplineSet
EndChar

StartChar: mu
Encoding: 181 181 138
AltUni2: 0003bc.ffffffff.0
Width: 1412
GlyphClass: 2
Flags: W
LayerCount: 2
Fore
SplineSet
431 1062 m 1,0,-1
 431 -354 l 1,1,-1
 121 -354 l 1,2,-1
 121 1062 l 1,3,-1
 431 1062 l 1,0,-1
499 237 m 1,4,-1
 893 237 l 1,5,-1
 893 1062 l 1,6,-1
 1210 1062 l 1,7,-1
 1210 237 l 1,8,-1
 1377 237 l 1,9,-1
 1377 0 l 1,10,-1
 1185 0 l 1,11,-1
 1052 133 l 1,12,-1
 919 0 l 1,13,-1
 626 0 l 1,14,-1
 499 133 l 1,15,-1
 499 237 l 1,4,-1
EndSplineSet
EndChar

StartChar: paragraph
Encoding: 182 182 139
Width: 1610
GlyphClass: 2
Flags: W
LayerCount: 2
Fore
SplineSet
917 444 m 1,0,-1
 917 177 l 1,1,-1
 442 177 l 1,2,-1
 176 444 l 1,3,-1
 176 1062 l 1,4,-1
 442 1327 l 1,5,-1
 917 1327 l 1,6,-1
 917 1062 l 1,7,-1
 785 1062 l 1,8,-1
 785 444 l 1,9,-1
 917 444 l 1,0,-1
1424 74 m 1,10,-1
 1159 -191 l 1,11,-1
 983 -191 l 1,12,-1
 983 1327 l 1,13,-1
 1424 1327 l 1,14,-1
 1424 74 l 1,10,-1
EndSplineSet
EndChar

StartChar: periodcentered
Encoding: 183 183 140
Width: 725
GlyphClass: 2
Flags: W
LayerCount: 2
Fore
SplineSet
273 906 m 1,0,-1
 450 906 l 1,1,-1
 583 773 l 1,2,-1
 583 596 l 1,3,-1
 450 464 l 1,4,-1
 273 464 l 1,5,-1
 141 596 l 1,6,-1
 141 773 l 1,7,-1
 273 906 l 1,0,-1
EndSplineSet
EndChar

StartChar: cedilla
Encoding: 184 184 141
Width: 1008
GlyphClass: 2
Flags: W
LayerCount: 2
Fore
SplineSet
570 -225 m 1,0,-1
 570 -62 l 1,1,-1
 772 -62 l 1,2,-1
 772 -307 l 1,3,-1
 597 -507 l 1,4,-1
 285 -507 l 1,5,-1
 285 -225 l 1,6,-1
 570 -225 l 1,0,-1
EndSplineSet
EndChar

StartChar: onesuperior
Encoding: 185 185 142
Width: 902
GlyphClass: 2
Flags: W
LayerCount: 2
Fore
SplineSet
622 651 m 1,0,-1
 297 651 l 1,1,-1
 297 1141 l 1,2,-1
 142 1141 l 1,3,-1
 142 1327 l 1,4,-1
 622 1327 l 1,5,-1
 622 651 l 1,0,-1
142 584 m 1,6,-1
 778 584 l 1,7,-1
 778 398 l 1,8,-1
 142 398 l 1,9,-1
 142 584 l 1,6,-1
EndSplineSet
EndChar

StartChar: ordmasculine
Encoding: 186 186 143
Width: 1148
GlyphClass: 2
Flags: W
LayerCount: 2
Fore
SplineSet
1007 731 m 1,0,-1
 807 530 l 1,1,-1
 607 530 l 1,2,-1
 607 731 l 1,3,-1
 674 731 l 1,4,-1
 674 1129 l 1,5,-1
 607 1129 l 1,6,-1
 607 1329 l 1,7,-1
 807 1329 l 1,8,-1
 1007 1129 l 1,9,-1
 1007 731 l 1,0,-1
474 731 m 1,10,-1
 539 731 l 1,11,-1
 539 530 l 1,12,-1
 341 530 l 1,13,-1
 142 731 l 1,14,-1
 142 1129 l 1,15,-1
 341 1329 l 1,16,-1
 539 1329 l 1,17,-1
 539 1129 l 1,18,-1
 474 1129 l 1,19,-1
 474 731 l 1,10,-1
486 361 m 1,20,-1
 664 361 l 1,21,-1
 796 228 l 1,22,-1
 796 52 l 1,23,-1
 664 -81 l 1,24,-1
 486 -81 l 1,25,-1
 353 52 l 1,26,-1
 353 228 l 1,27,-1
 486 361 l 1,20,-1
EndSplineSet
EndChar

StartChar: guillemotright
Encoding: 187 187 144
Width: 1720
GlyphClass: 2
Flags: W
LayerCount: 2
Fore
SplineSet
888 458 m 1,0,-1
 468 26 l 1,1,-1
 203 26 l 1,2,-1
 484 535 l 1,3,-1
 203 1044 l 1,4,-1
 468 1044 l 1,5,-1
 888 612 l 1,6,-1
 888 458 l 1,0,-1
1518 458 m 1,7,-1
 1098 26 l 1,8,-1
 833 26 l 1,9,-1
 1114 535 l 1,10,-1
 833 1044 l 1,11,-1
 1098 1044 l 1,12,-1
 1518 612 l 1,13,-1
 1518 458 l 1,7,-1
EndSplineSet
EndChar

StartChar: onequarter
Encoding: 188 188 145
Width: 2398
GlyphClass: 2
Flags: W
LayerCount: 2
Fore
SplineSet
1268 1327 m 1,0,-1
 1516 1327 l 1,1,-1
 1037 0 l 1,2,-1
 789 0 l 1,3,-1
 1268 1327 l 1,0,-1
649 651 m 1,4,-1
 341 651 l 1,5,-1
 341 1141 l 1,6,-1
 186 1141 l 1,7,-1
 186 1327 l 1,8,-1
 649 1327 l 1,9,-1
 649 651 l 1,4,-1
186 584 m 1,10,-1
 805 584 l 1,11,-1
 805 398 l 1,12,-1
 186 398 l 1,13,-1
 186 584 l 1,10,-1
2145 309 m 1,14,-1
 2290 309 l 1,15,-1
 2290 139 l 1,16,-1
 2145 139 l 1,17,-1
 2145 0 l 1,18,-1
 1836 0 l 1,19,-1
 1836 929 l 1,20,-1
 2145 929 l 1,21,-1
 2145 309 l 1,14,-1
1314 309 m 1,22,-1
 1769 839 l 1,23,-1
 1769 471 l 1,24,-1
 1611 309 l 1,25,-1
 1769 309 l 1,26,-1
 1769 139 l 1,27,-1
 1314 139 l 1,28,-1
 1314 309 l 1,22,-1
EndSplineSet
EndChar

StartChar: onehalf
Encoding: 189 189 146
Width: 2550
GlyphClass: 2
Flags: W
LayerCount: 2
Fore
SplineSet
1267 1327 m 1,0,-1
 1516 1327 l 1,1,-1
 1037 0 l 1,2,-1
 787 0 l 1,3,-1
 1267 1327 l 1,0,-1
649 651 m 1,4,-1
 340 651 l 1,5,-1
 340 1141 l 1,6,-1
 186 1141 l 1,7,-1
 186 1327 l 1,8,-1
 649 1327 l 1,9,-1
 649 651 l 1,4,-1
186 584 m 1,10,-1
 805 584 l 1,11,-1
 805 398 l 1,12,-1
 186 398 l 1,13,-1
 186 584 l 1,10,-1
1813 15 m 1,14,-1
 1486 15 l 1,15,-1
 1486 355 l 1,16,-1
 1672 541 l 1,17,-1
 2056 541 l 1,18,-1
 2056 944 l 1,19,-1
 2180 944 l 1,20,-1
 2383 758 l 1,21,-1
 2383 541 l 1,22,-1
 2198 355 l 1,23,-1
 1813 355 l 1,24,-1
 1813 15 l 1,14,-1
1672 944 m 1,25,-1
 1986 944 l 1,26,-1
 1986 758 l 1,27,-1
 1796 758 l 1,28,-1
 1796 664 l 1,29,-1
 1486 664 l 1,30,-1
 1486 758 l 1,31,-1
 1672 944 l 1,25,-1
1874 15 m 1,32,-1
 1874 201 l 1,33,-1
 2401 201 l 1,34,-1
 2401 15 l 1,35,-1
 1874 15 l 1,32,-1
EndSplineSet
EndChar

StartChar: threequarters
Encoding: 190 190 147
Width: 2519
GlyphClass: 2
Flags: W
LayerCount: 2
Fore
SplineSet
1395 1327 m 1,0,-1
 1645 1327 l 1,1,-1
 1166 0 l 1,2,-1
 916 0 l 1,3,-1
 1395 1327 l 1,0,-1
2291 309 m 1,4,-1
 2436 309 l 1,5,-1
 2436 139 l 1,6,-1
 2291 139 l 1,7,-1
 2291 0 l 1,8,-1
 1982 0 l 1,9,-1
 1982 929 l 1,10,-1
 2291 929 l 1,11,-1
 2291 309 l 1,4,-1
1460 309 m 1,12,-1
 1915 839 l 1,13,-1
 1915 471 l 1,14,-1
 1757 309 l 1,15,-1
 1915 309 l 1,16,-1
 1915 139 l 1,17,-1
 1460 139 l 1,18,-1
 1460 309 l 1,12,-1
665 398 m 1,19,-1
 665 772 l 1,20,-1
 359 772 l 1,21,-1
 359 956 l 1,22,-1
 665 956 l 1,23,-1
 665 1327 l 1,24,-1
 792 1327 l 1,25,-1
 978 1145 l 1,26,-1
 978 956 l 1,27,-1
 886 861 l 1,28,-1
 978 772 l 1,29,-1
 978 582 l 1,30,-1
 792 398 l 1,31,-1
 665 398 l 1,19,-1
265 1327 m 1,32,-1
 598 1327 l 1,33,-1
 598 1141 l 1,34,-1
 389 1141 l 1,35,-1
 389 1047 l 1,36,-1
 79 1047 l 1,37,-1
 79 1141 l 1,38,-1
 265 1327 l 1,32,-1
598 582 m 1,39,-1
 598 398 l 1,40,-1
 265 398 l 1,41,-1
 79 582 l 1,42,-1
 79 677 l 1,43,-1
 389 677 l 1,44,-1
 389 582 l 1,45,-1
 598 582 l 1,39,-1
EndSplineSet
EndChar

StartChar: questiondown
Encoding: 191 191 148
Width: 1407
GlyphClass: 2
Flags: W
LayerCount: 2
Fore
SplineSet
344 -104 m 1,0,-1
 79 161 l 1,1,-1
 79 391 l 1,2,-1
 344 657 l 1,3,-1
 534 657 l 1,4,-1
 534 781 l 1,5,-1
 978 781 l 1,6,-1
 978 657 l 1,7,-1
 712 391 l 1,8,-1
 521 391 l 1,9,-1
 521 161 l 1,10,-1
 884 161 l 1,11,-1
 884 294 l 1,12,-1
 1327 294 l 1,13,-1
 1327 163 l 1,14,-1
 1061 -104 l 1,15,-1
 344 -104 l 1,0,-1
978 914 m 1,16,-1
 534 914 l 1,17,-1
 534 1223 l 1,18,-1
 978 1223 l 1,19,-1
 978 914 l 1,16,-1
EndSplineSet
EndChar

StartChar: Agrave
Encoding: 192 192 149
Width: 1500
GlyphClass: 2
Flags: W
LayerCount: 2
Fore
SplineSet
988 145 m 1,0,-1
 554 145 l 1,1,-1
 646 408 l 1,2,-1
 886 408 l 1,3,-1
 531 1327 l 1,4,-1
 962 1327 l 1,5,-1
 1491 0 l 1,6,-1
 1044 0 l 1,7,-1
 988 145 l 1,0,-1
436 0 m 1,8,-1
 9 0 l 1,9,-1
 483 1267 l 1,10,-1
 679 740 l 1,11,-1
 436 0 l 1,8,-1
906 1527 m 1,12,-1
 854 1405 l 1,13,-1
 352 1520 l 1,14,-1
 305 1689 l 1,15,-1
 460 1767 l 1,16,-1
 906 1527 l 1,12,-1
EndSplineSet
EndChar

StartChar: Aacute
Encoding: 193 193 150
Width: 1500
GlyphClass: 2
Flags: W
LayerCount: 2
Fore
SplineSet
988 145 m 1,0,-1
 554 145 l 1,1,-1
 646 408 l 1,2,-1
 886 408 l 1,3,-1
 531 1327 l 1,4,-1
 962 1327 l 1,5,-1
 1491 0 l 1,6,-1
 1044 0 l 1,7,-1
 988 145 l 1,0,-1
436 0 m 1,8,-1
 9 0 l 1,9,-1
 483 1267 l 1,10,-1
 679 740 l 1,11,-1
 436 0 l 1,8,-1
1032 1767 m 1,12,-1
 1187 1689 l 1,13,-1
 1140 1520 l 1,14,-1
 637 1405 l 1,15,-1
 586 1527 l 1,16,-1
 1032 1767 l 1,12,-1
EndSplineSet
EndChar

StartChar: Acircumflex
Encoding: 194 194 151
Width: 1500
GlyphClass: 2
Flags: W
LayerCount: 2
Fore
SplineSet
988 145 m 1,0,-1
 554 145 l 1,1,-1
 646 408 l 1,2,-1
 886 408 l 1,3,-1
 531 1327 l 1,4,-1
 962 1327 l 1,5,-1
 1491 0 l 1,6,-1
 1044 0 l 1,7,-1
 988 145 l 1,0,-1
436 0 m 1,8,-1
 9 0 l 1,9,-1
 483 1267 l 1,10,-1
 679 740 l 1,11,-1
 436 0 l 1,8,-1
619 1732 m 1,12,-1
 871 1732 l 1,13,-1
 1125 1472 l 1,14,-1
 1049 1393 l 1,15,-1
 746 1552 l 1,16,-1
 440 1393 l 1,17,-1
 363 1473 l 1,18,-1
 619 1732 l 1,12,-1
EndSplineSet
EndChar

StartChar: Atilde
Encoding: 195 195 152
Width: 1500
GlyphClass: 2
Flags: W
LayerCount: 2
Fore
SplineSet
988 145 m 1,0,-1
 554 145 l 1,1,-1
 646 408 l 1,2,-1
 886 408 l 1,3,-1
 531 1327 l 1,4,-1
 962 1327 l 1,5,-1
 1491 0 l 1,6,-1
 1044 0 l 1,7,-1
 988 145 l 1,0,-1
436 0 m 1,8,-1
 9 0 l 1,9,-1
 483 1267 l 1,10,-1
 679 740 l 1,11,-1
 436 0 l 1,8,-1
931 1610 m 1,12,-1
 1112 1717 l 1,13,-1
 1176 1639 l 1,14,-1
 969 1425 l 1,15,-1
 764 1425 l 1,16,-1
 604 1541 l 1,17,-1
 563 1541 l 1,18,-1
 382 1435 l 1,19,-1
 318 1513 l 1,20,-1
 525 1727 l 1,21,-1
 730 1727 l 1,22,-1
 890 1610 l 1,23,-1
 931 1610 l 1,12,-1
EndSplineSet
EndChar

StartChar: Adieresis
Encoding: 196 196 153
Width: 1500
GlyphClass: 2
Flags: W
LayerCount: 2
Fore
SplineSet
988 145 m 1,0,-1
 554 145 l 1,1,-1
 646 408 l 1,2,-1
 886 408 l 1,3,-1
 531 1327 l 1,4,-1
 962 1327 l 1,5,-1
 1491 0 l 1,6,-1
 1044 0 l 1,7,-1
 988 145 l 1,0,-1
436 0 m 1,8,-1
 9 0 l 1,9,-1
 483 1267 l 1,10,-1
 679 740 l 1,11,-1
 436 0 l 1,8,-1
313 1682 m 1,12,-1
 649 1682 l 1,13,-1
 649 1461 l 1,14,-1
 313 1461 l 1,15,-1
 313 1682 l 1,12,-1
843 1682 m 1,16,-1
 1179 1682 l 1,17,-1
 1179 1461 l 1,18,-1
 843 1461 l 1,19,-1
 843 1682 l 1,16,-1
EndSplineSet
EndChar

StartChar: Aring
Encoding: 197 197 154
Width: 1500
GlyphClass: 2
Flags: W
LayerCount: 2
Fore
SplineSet
858 1386 m 1,0,-1
 858 1612 l 1,1,-1
 781 1612 l 1,2,-1
 781 1767 l 1,3,-1
 895 1767 l 1,4,-1
 1034 1630 l 1,5,-1
 1034 1401 l 1,6,-1
 959 1327 l 1,7,-1
 962 1327 l 1,8,-1
 1491 0 l 1,9,-1
 1044 0 l 1,10,-1
 998 117 l 1,11,-1
 544 117 l 1,12,-1
 636 380 l 1,13,-1
 897 380 l 1,14,-1
 531 1327 l 1,15,-1
 532 1327 l 1,16,-1
 458 1401 l 1,17,-1
 458 1630 l 1,18,-1
 596 1767 l 1,19,-1
 711 1767 l 1,20,-1
 711 1612 l 1,21,-1
 635 1612 l 1,22,-1
 635 1386 l 1,23,-1
 858 1386 l 1,0,-1
436 0 m 1,24,-1
 9 0 l 1,25,-1
 483 1267 l 1,26,-1
 679 740 l 1,27,-1
 436 0 l 1,24,-1
EndSplineSet
EndChar

StartChar: AE
Encoding: 198 198 155
Width: 2305
GlyphClass: 2
Flags: W
LayerCount: 2
Fore
SplineSet
1449 530 m 1,0,-1
 1449 0 l 1,1,-1
 1007 0 l 1,2,-1
 1007 1327 l 1,3,-1
 1449 1327 l 1,4,-1
 1449 797 l 1,5,-1
 1891 797 l 1,6,-1
 1891 530 l 1,7,-1
 1449 530 l 1,0,-1
939 211 m 1,8,-1
 560 211 l 1,9,-1
 465 0 l 1,10,-1
 9 0 l 1,11,-1
 642 1327 l 1,12,-1
 939 1327 l 1,13,-1
 939 1051 l 1,14,-1
 678 474 l 1,15,-1
 939 474 l 1,16,-1
 939 211 l 1,8,-1
1516 1062 m 1,17,-1
 1516 1327 l 1,18,-1
 2246 1327 l 1,19,-1
 2246 929 l 1,20,-1
 1803 929 l 1,21,-1
 1803 1062 l 1,22,-1
 1516 1062 l 1,17,-1
1516 0 m 1,23,-1
 1516 265 l 1,24,-1
 1803 265 l 1,25,-1
 1803 398 l 1,26,-1
 2246 398 l 1,27,-1
 2246 0 l 1,28,-1
 1516 0 l 1,23,-1
EndSplineSet
EndChar

StartChar: Ccedilla
Encoding: 199 199 156
Width: 1440
GlyphClass: 2
Flags: W
LayerCount: 2
Fore
SplineSet
539 0 m 1,0,-1
 363 0 l 1,1,-1
 97 265 l 1,2,-1
 97 1062 l 1,3,-1
 363 1327 l 1,4,-1
 539 1327 l 1,5,-1
 539 0 l 1,0,-1
609 1062 m 1,6,-1
 609 1327 l 1,7,-1
 1080 1327 l 1,8,-1
 1345 1062 l 1,9,-1
 1345 795 l 1,10,-1
 903 795 l 1,11,-1
 903 1062 l 1,12,-1
 609 1062 l 1,6,-1
609 0 m 1,13,-1
 609 265 l 1,14,-1
 903 265 l 1,15,-1
 903 459 l 1,16,-1
 1345 459 l 1,17,-1
 1345 265 l 1,18,-1
 1080 0 l 1,19,-1
 609 0 l 1,13,-1
722 -225 m 1,20,-1
 722 -62 l 1,21,-1
 924 -62 l 1,22,-1
 924 -307 l 1,23,-1
 749 -507 l 1,24,-1
 437 -507 l 1,25,-1
 437 -225 l 1,26,-1
 722 -225 l 1,20,-1
EndSplineSet
EndChar

StartChar: Egrave
Encoding: 200 200 157
Width: 1415
GlyphClass: 2
Flags: W
LayerCount: 2
Fore
SplineSet
559 545 m 1,0,-1
 559 0 l 1,1,-1
 117 0 l 1,2,-1
 117 1327 l 1,3,-1
 559 1327 l 1,4,-1
 559 801 l 1,5,-1
 982 801 l 1,6,-1
 982 545 l 1,7,-1
 559 545 l 1,0,-1
629 1070 m 1,8,-1
 629 1327 l 1,9,-1
 1320 1327 l 1,10,-1
 1320 943 l 1,11,-1
 904 943 l 1,12,-1
 904 1070 l 1,13,-1
 629 1070 l 1,8,-1
629 0 m 1,14,-1
 629 265 l 1,15,-1
 878 265 l 1,16,-1
 878 398 l 1,17,-1
 1320 398 l 1,18,-1
 1320 0 l 1,19,-1
 629 0 l 1,14,-1
895 1527 m 1,20,-1
 843 1405 l 1,21,-1
 341 1520 l 1,22,-1
 294 1689 l 1,23,-1
 449 1767 l 1,24,-1
 895 1527 l 1,20,-1
EndSplineSet
EndChar

StartChar: Eacute
Encoding: 201 201 158
Width: 1415
GlyphClass: 2
Flags: W
LayerCount: 2
Fore
SplineSet
559 545 m 1,0,-1
 559 0 l 1,1,-1
 117 0 l 1,2,-1
 117 1327 l 1,3,-1
 559 1327 l 1,4,-1
 559 801 l 1,5,-1
 982 801 l 1,6,-1
 982 545 l 1,7,-1
 559 545 l 1,0,-1
629 1070 m 1,8,-1
 629 1327 l 1,9,-1
 1320 1327 l 1,10,-1
 1320 943 l 1,11,-1
 904 943 l 1,12,-1
 904 1070 l 1,13,-1
 629 1070 l 1,8,-1
629 0 m 1,14,-1
 629 265 l 1,15,-1
 878 265 l 1,16,-1
 878 398 l 1,17,-1
 1320 398 l 1,18,-1
 1320 0 l 1,19,-1
 629 0 l 1,14,-1
1021 1767 m 1,20,-1
 1176 1689 l 1,21,-1
 1129 1520 l 1,22,-1
 626 1405 l 1,23,-1
 575 1527 l 1,24,-1
 1021 1767 l 1,20,-1
EndSplineSet
EndChar

StartChar: Ecircumflex
Encoding: 202 202 159
Width: 1415
GlyphClass: 2
Flags: W
LayerCount: 2
Fore
SplineSet
559 545 m 1,0,-1
 559 0 l 1,1,-1
 117 0 l 1,2,-1
 117 1327 l 1,3,-1
 559 1327 l 1,4,-1
 559 801 l 1,5,-1
 982 801 l 1,6,-1
 982 545 l 1,7,-1
 559 545 l 1,0,-1
629 1070 m 1,8,-1
 629 1327 l 1,9,-1
 1320 1327 l 1,10,-1
 1320 943 l 1,11,-1
 904 943 l 1,12,-1
 904 1070 l 1,13,-1
 629 1070 l 1,8,-1
629 0 m 1,14,-1
 629 265 l 1,15,-1
 878 265 l 1,16,-1
 878 398 l 1,17,-1
 1320 398 l 1,18,-1
 1320 0 l 1,19,-1
 629 0 l 1,14,-1
608 1732 m 1,20,-1
 860 1732 l 1,21,-1
 1114 1472 l 1,22,-1
 1038 1393 l 1,23,-1
 735 1552 l 1,24,-1
 429 1393 l 1,25,-1
 352 1473 l 1,26,-1
 608 1732 l 1,20,-1
EndSplineSet
EndChar

StartChar: Edieresis
Encoding: 203 203 160
Width: 1415
GlyphClass: 2
Flags: W
LayerCount: 2
Fore
SplineSet
559 545 m 1,0,-1
 559 0 l 1,1,-1
 117 0 l 1,2,-1
 117 1327 l 1,3,-1
 559 1327 l 1,4,-1
 559 801 l 1,5,-1
 982 801 l 1,6,-1
 982 545 l 1,7,-1
 559 545 l 1,0,-1
629 1070 m 1,8,-1
 629 1327 l 1,9,-1
 1320 1327 l 1,10,-1
 1320 943 l 1,11,-1
 904 943 l 1,12,-1
 904 1070 l 1,13,-1
 629 1070 l 1,8,-1
629 0 m 1,14,-1
 629 265 l 1,15,-1
 878 265 l 1,16,-1
 878 398 l 1,17,-1
 1320 398 l 1,18,-1
 1320 0 l 1,19,-1
 629 0 l 1,14,-1
302 1682 m 1,20,-1
 638 1682 l 1,21,-1
 638 1461 l 1,22,-1
 302 1461 l 1,23,-1
 302 1682 l 1,20,-1
832 1682 m 1,24,-1
 1168 1682 l 1,25,-1
 1168 1461 l 1,26,-1
 832 1461 l 1,27,-1
 832 1682 l 1,24,-1
EndSplineSet
EndChar

StartChar: Igrave
Encoding: 204 204 161
Width: 902
GlyphClass: 2
Flags: W
LayerCount: 2
Fore
SplineSet
97 283 m 1,0,-1
 230 283 l 1,1,-1
 230 1045 l 1,2,-1
 97 1045 l 1,3,-1
 97 1327 l 1,4,-1
 805 1327 l 1,5,-1
 805 1045 l 1,6,-1
 672 1045 l 1,7,-1
 672 283 l 1,8,-1
 805 283 l 1,9,-1
 805 0 l 1,10,-1
 97 0 l 1,11,-1
 97 283 l 1,0,-1
612 1526 m 1,12,-1
 560 1404 l 1,13,-1
 58 1519 l 1,14,-1
 11 1688 l 1,15,-1
 166 1766 l 1,16,-1
 612 1526 l 1,12,-1
EndSplineSet
EndChar

StartChar: Iacute
Encoding: 205 205 162
Width: 902
GlyphClass: 2
Flags: W
LayerCount: 2
Fore
SplineSet
97 283 m 1,0,-1
 230 283 l 1,1,-1
 230 1045 l 1,2,-1
 97 1045 l 1,3,-1
 97 1327 l 1,4,-1
 805 1327 l 1,5,-1
 805 1045 l 1,6,-1
 672 1045 l 1,7,-1
 672 283 l 1,8,-1
 805 283 l 1,9,-1
 805 0 l 1,10,-1
 97 0 l 1,11,-1
 97 283 l 1,0,-1
737 1766 m 1,12,-1
 892 1688 l 1,13,-1
 845 1519 l 1,14,-1
 342 1404 l 1,15,-1
 291 1526 l 1,16,-1
 737 1766 l 1,12,-1
EndSplineSet
EndChar

StartChar: Icircumflex
Encoding: 206 206 163
Width: 902
GlyphClass: 2
Flags: W
LayerCount: 2
Fore
SplineSet
97 283 m 1,0,-1
 230 283 l 1,1,-1
 230 1045 l 1,2,-1
 97 1045 l 1,3,-1
 97 1327 l 1,4,-1
 805 1327 l 1,5,-1
 805 1045 l 1,6,-1
 672 1045 l 1,7,-1
 672 283 l 1,8,-1
 805 283 l 1,9,-1
 805 0 l 1,10,-1
 97 0 l 1,11,-1
 97 283 l 1,0,-1
325 1731 m 1,12,-1
 577 1731 l 1,13,-1
 831 1471 l 1,14,-1
 755 1392 l 1,15,-1
 452 1551 l 1,16,-1
 146 1392 l 1,17,-1
 69 1472 l 1,18,-1
 325 1731 l 1,12,-1
EndSplineSet
EndChar

StartChar: Idieresis
Encoding: 207 207 164
Width: 902
GlyphClass: 2
Flags: W
LayerCount: 2
Fore
SplineSet
97 283 m 1,0,-1
 230 283 l 1,1,-1
 230 1045 l 1,2,-1
 97 1045 l 1,3,-1
 97 1327 l 1,4,-1
 805 1327 l 1,5,-1
 805 1045 l 1,6,-1
 672 1045 l 1,7,-1
 672 283 l 1,8,-1
 805 283 l 1,9,-1
 805 0 l 1,10,-1
 97 0 l 1,11,-1
 97 283 l 1,0,-1
19 1681 m 1,12,-1
 355 1681 l 1,13,-1
 355 1460 l 1,14,-1
 19 1460 l 1,15,-1
 19 1681 l 1,12,-1
549 1681 m 1,16,-1
 885 1681 l 1,17,-1
 885 1460 l 1,18,-1
 549 1460 l 1,19,-1
 549 1681 l 1,16,-1
EndSplineSet
EndChar

StartChar: Eth
Encoding: 208 208 165
Width: 1496
GlyphClass: 2
Flags: W
LayerCount: 2
Fore
SplineSet
629 0 m 1,0,-1
 629 265 l 1,1,-1
 957 265 l 1,2,-1
 957 1062 l 1,3,-1
 629 1062 l 1,4,-1
 629 1327 l 1,5,-1
 1134 1327 l 1,6,-1
 1400 1062 l 1,7,-1
 1400 265 l 1,8,-1
 1134 0 l 1,9,-1
 629 0 l 1,0,-1
29 757 m 1,10,-1
 117 757 l 1,11,-1
 117 1327 l 1,12,-1
 559 1327 l 1,13,-1
 559 757 l 1,14,-1
 774 757 l 1,15,-1
 774 570 l 1,16,-1
 559 570 l 1,17,-1
 559 0 l 1,18,-1
 117 0 l 1,19,-1
 117 570 l 1,20,-1
 29 570 l 1,21,-1
 29 757 l 1,10,-1
EndSplineSet
EndChar

StartChar: Ntilde
Encoding: 209 209 166
Width: 1508
GlyphClass: 2
Flags: W
LayerCount: 2
Fore
SplineSet
1391 0 m 1,0,-1
 921 0 l 1,1,-1
 117 1327 l 1,2,-1
 584 1327 l 1,3,-1
 1391 0 l 1,0,-1
117 0 m 1,4,-1
 117 1201 l 1,5,-1
 502 570 l 1,6,-1
 502 0 l 1,7,-1
 117 0 l 1,4,-1
1391 1327 m 1,8,-1
 1391 126 l 1,9,-1
 1006 760 l 1,10,-1
 1006 1327 l 1,11,-1
 1391 1327 l 1,8,-1
929 1609 m 1,12,-1
 1110 1716 l 1,13,-1
 1174 1638 l 1,14,-1
 967 1424 l 1,15,-1
 762 1424 l 1,16,-1
 602 1540 l 1,17,-1
 561 1540 l 1,18,-1
 380 1434 l 1,19,-1
 316 1512 l 1,20,-1
 523 1726 l 1,21,-1
 728 1726 l 1,22,-1
 888 1609 l 1,23,-1
 929 1609 l 1,12,-1
EndSplineSet
EndChar

StartChar: Ograve
Encoding: 210 210 167
Width: 1463
GlyphClass: 2
Flags: W
LayerCount: 2
Fore
SplineSet
529 270 m 1,0,-1
 695 270 l 1,1,-1
 695 0 l 1,2,-1
 355 0 l 1,3,-1
 86 265 l 1,4,-1
 86 1062 l 1,5,-1
 355 1327 l 1,6,-1
 695 1327 l 1,7,-1
 695 1058 l 1,8,-1
 529 1058 l 1,9,-1
 529 270 l 1,0,-1
934 1058 m 1,10,-1
 765 1058 l 1,11,-1
 765 1327 l 1,12,-1
 1108 1327 l 1,13,-1
 1376 1062 l 1,14,-1
 1376 265 l 1,15,-1
 1108 0 l 1,16,-1
 765 0 l 1,17,-1
 765 270 l 1,18,-1
 934 270 l 1,19,-1
 934 1058 l 1,10,-1
891 1527 m 1,20,-1
 839 1405 l 1,21,-1
 337 1520 l 1,22,-1
 290 1689 l 1,23,-1
 445 1767 l 1,24,-1
 891 1527 l 1,20,-1
EndSplineSet
EndChar

StartChar: Oacute
Encoding: 211 211 168
Width: 1463
GlyphClass: 2
Flags: W
LayerCount: 2
Fore
SplineSet
529 270 m 1,0,-1
 695 270 l 1,1,-1
 695 0 l 1,2,-1
 355 0 l 1,3,-1
 86 265 l 1,4,-1
 86 1062 l 1,5,-1
 355 1327 l 1,6,-1
 695 1327 l 1,7,-1
 695 1058 l 1,8,-1
 529 1058 l 1,9,-1
 529 270 l 1,0,-1
934 1058 m 1,10,-1
 765 1058 l 1,11,-1
 765 1327 l 1,12,-1
 1108 1327 l 1,13,-1
 1376 1062 l 1,14,-1
 1376 265 l 1,15,-1
 1108 0 l 1,16,-1
 765 0 l 1,17,-1
 765 270 l 1,18,-1
 934 270 l 1,19,-1
 934 1058 l 1,10,-1
1017 1767 m 1,20,-1
 1172 1689 l 1,21,-1
 1125 1520 l 1,22,-1
 622 1405 l 1,23,-1
 571 1527 l 1,24,-1
 1017 1767 l 1,20,-1
EndSplineSet
EndChar

StartChar: Ocircumflex
Encoding: 212 212 169
Width: 1463
GlyphClass: 2
Flags: W
LayerCount: 2
Fore
SplineSet
529 270 m 1,0,-1
 695 270 l 1,1,-1
 695 0 l 1,2,-1
 355 0 l 1,3,-1
 86 265 l 1,4,-1
 86 1062 l 1,5,-1
 355 1327 l 1,6,-1
 695 1327 l 1,7,-1
 695 1058 l 1,8,-1
 529 1058 l 1,9,-1
 529 270 l 1,0,-1
934 1058 m 1,10,-1
 765 1058 l 1,11,-1
 765 1327 l 1,12,-1
 1108 1327 l 1,13,-1
 1376 1062 l 1,14,-1
 1376 265 l 1,15,-1
 1108 0 l 1,16,-1
 765 0 l 1,17,-1
 765 270 l 1,18,-1
 934 270 l 1,19,-1
 934 1058 l 1,10,-1
604 1732 m 1,20,-1
 856 1732 l 1,21,-1
 1110 1472 l 1,22,-1
 1034 1393 l 1,23,-1
 731 1552 l 1,24,-1
 425 1393 l 1,25,-1
 348 1473 l 1,26,-1
 604 1732 l 1,20,-1
EndSplineSet
EndChar

StartChar: Otilde
Encoding: 213 213 170
Width: 1463
GlyphClass: 2
Flags: W
LayerCount: 2
Fore
SplineSet
529 270 m 1,0,-1
 695 270 l 1,1,-1
 695 0 l 1,2,-1
 355 0 l 1,3,-1
 86 265 l 1,4,-1
 86 1062 l 1,5,-1
 355 1327 l 1,6,-1
 695 1327 l 1,7,-1
 695 1058 l 1,8,-1
 529 1058 l 1,9,-1
 529 270 l 1,0,-1
934 1058 m 1,10,-1
 765 1058 l 1,11,-1
 765 1327 l 1,12,-1
 1108 1327 l 1,13,-1
 1376 1062 l 1,14,-1
 1376 265 l 1,15,-1
 1108 0 l 1,16,-1
 765 0 l 1,17,-1
 765 270 l 1,18,-1
 934 270 l 1,19,-1
 934 1058 l 1,10,-1
916 1610 m 1,20,-1
 1097 1717 l 1,21,-1
 1161 1639 l 1,22,-1
 954 1425 l 1,23,-1
 749 1425 l 1,24,-1
 589 1541 l 1,25,-1
 548 1541 l 1,26,-1
 367 1435 l 1,27,-1
 303 1513 l 1,28,-1
 510 1727 l 1,29,-1
 715 1727 l 1,30,-1
 875 1610 l 1,31,-1
 916 1610 l 1,20,-1
EndSplineSet
EndChar

StartChar: Odieresis
Encoding: 214 214 171
Width: 1463
GlyphClass: 2
Flags: W
LayerCount: 2
Fore
SplineSet
529 270 m 1,0,-1
 695 270 l 1,1,-1
 695 0 l 1,2,-1
 355 0 l 1,3,-1
 86 265 l 1,4,-1
 86 1062 l 1,5,-1
 355 1327 l 1,6,-1
 695 1327 l 1,7,-1
 695 1058 l 1,8,-1
 529 1058 l 1,9,-1
 529 270 l 1,0,-1
934 1058 m 1,10,-1
 765 1058 l 1,11,-1
 765 1327 l 1,12,-1
 1108 1327 l 1,13,-1
 1376 1062 l 1,14,-1
 1376 265 l 1,15,-1
 1108 0 l 1,16,-1
 765 0 l 1,17,-1
 765 270 l 1,18,-1
 934 270 l 1,19,-1
 934 1058 l 1,10,-1
298 1682 m 1,20,-1
 634 1682 l 1,21,-1
 634 1461 l 1,22,-1
 298 1461 l 1,23,-1
 298 1682 l 1,20,-1
828 1682 m 1,24,-1
 1164 1682 l 1,25,-1
 1164 1461 l 1,26,-1
 828 1461 l 1,27,-1
 828 1682 l 1,24,-1
EndSplineSet
EndChar

StartChar: multiply
Encoding: 215 215 172
Width: 1331
GlyphClass: 2
Flags: W
LayerCount: 2
Fore
SplineSet
187 310 m 1,0,-1
 503 621 l 1,1,-1
 189 932 l 1,2,-1
 355 1102 l 1,3,-1
 666 786 l 1,4,-1
 977 1101 l 1,5,-1
 1142 933 l 1,6,-1
 829 623 l 1,7,-1
 1144 312 l 1,8,-1
 977 142 l 1,9,-1
 664 457 l 1,10,-1
 352 142 l 1,11,-1
 187 310 l 1,0,-1
EndSplineSet
EndChar

StartChar: Oslash
Encoding: 216 216 173
Width: 1456
GlyphClass: 2
Flags: W
LayerCount: 2
Fore
SplineSet
240 111 m 1,0,-1
 86 265 l 1,1,-1
 86 1062 l 1,2,-1
 353 1327 l 1,3,-1
 814 1327 l 1,4,-1
 741 1062 l 1,5,-1
 529 1062 l 1,6,-1
 529 265 l 1,7,-1
 645 265 l 1,8,-1
 534 -172 l 1,9,-1
 187 -88 l 1,10,-1
 240 111 l 1,0,-1
1369 265 m 1,11,-1
 1104 0 l 1,12,-1
 646 0 l 1,13,-1
 715 264 l 1,14,-1
 927 265 l 1,15,-1
 927 1062 l 1,16,-1
 814 1062 l 1,17,-1
 923 1499 l 1,18,-1
 1271 1415 l 1,19,-1
 1217 1213 l 1,20,-1
 1369 1062 l 1,21,-1
 1369 265 l 1,11,-1
EndSplineSet
EndChar

StartChar: Ugrave
Encoding: 217 217 174
Width: 1495
GlyphClass: 2
Flags: W
LayerCount: 2
Fore
SplineSet
1388 265 m 1,0,-1
 1123 0 l 1,1,-1
 782 0 l 1,2,-1
 782 265 l 1,3,-1
 946 265 l 1,4,-1
 946 1327 l 1,5,-1
 1388 1327 l 1,6,-1
 1388 265 l 1,0,-1
549 265 m 1,7,-1
 712 265 l 1,8,-1
 712 0 l 1,9,-1
 372 0 l 1,10,-1
 106 265 l 1,11,-1
 106 1327 l 1,12,-1
 549 1327 l 1,13,-1
 549 265 l 1,7,-1
907 1526 m 1,14,-1
 855 1404 l 1,15,-1
 353 1519 l 1,16,-1
 306 1688 l 1,17,-1
 461 1766 l 1,18,-1
 907 1526 l 1,14,-1
EndSplineSet
EndChar

StartChar: Uacute
Encoding: 218 218 175
Width: 1495
GlyphClass: 2
Flags: W
LayerCount: 2
Fore
SplineSet
1388 265 m 1,0,-1
 1123 0 l 1,1,-1
 782 0 l 1,2,-1
 782 265 l 1,3,-1
 946 265 l 1,4,-1
 946 1327 l 1,5,-1
 1388 1327 l 1,6,-1
 1388 265 l 1,0,-1
549 265 m 1,7,-1
 712 265 l 1,8,-1
 712 0 l 1,9,-1
 372 0 l 1,10,-1
 106 265 l 1,11,-1
 106 1327 l 1,12,-1
 549 1327 l 1,13,-1
 549 265 l 1,7,-1
1033 1766 m 1,14,-1
 1188 1688 l 1,15,-1
 1141 1519 l 1,16,-1
 638 1404 l 1,17,-1
 587 1526 l 1,18,-1
 1033 1766 l 1,14,-1
EndSplineSet
EndChar

StartChar: Ucircumflex
Encoding: 219 219 176
Width: 1495
GlyphClass: 2
Flags: W
LayerCount: 2
Fore
SplineSet
1388 265 m 1,0,-1
 1123 0 l 1,1,-1
 782 0 l 1,2,-1
 782 265 l 1,3,-1
 946 265 l 1,4,-1
 946 1327 l 1,5,-1
 1388 1327 l 1,6,-1
 1388 265 l 1,0,-1
549 265 m 1,7,-1
 712 265 l 1,8,-1
 712 0 l 1,9,-1
 372 0 l 1,10,-1
 106 265 l 1,11,-1
 106 1327 l 1,12,-1
 549 1327 l 1,13,-1
 549 265 l 1,7,-1
620 1731 m 1,14,-1
 872 1731 l 1,15,-1
 1126 1471 l 1,16,-1
 1050 1392 l 1,17,-1
 747 1551 l 1,18,-1
 441 1392 l 1,19,-1
 364 1472 l 1,20,-1
 620 1731 l 1,14,-1
EndSplineSet
EndChar

StartChar: Udieresis
Encoding: 220 220 177
Width: 1495
GlyphClass: 2
Flags: W
LayerCount: 2
Fore
SplineSet
1388 265 m 1,0,-1
 1123 0 l 1,1,-1
 782 0 l 1,2,-1
 782 265 l 1,3,-1
 946 265 l 1,4,-1
 946 1327 l 1,5,-1
 1388 1327 l 1,6,-1
 1388 265 l 1,0,-1
549 265 m 1,7,-1
 712 265 l 1,8,-1
 712 0 l 1,9,-1
 372 0 l 1,10,-1
 106 265 l 1,11,-1
 106 1327 l 1,12,-1
 549 1327 l 1,13,-1
 549 265 l 1,7,-1
314 1681 m 1,14,-1
 650 1681 l 1,15,-1
 650 1460 l 1,16,-1
 314 1460 l 1,17,-1
 314 1681 l 1,14,-1
844 1681 m 1,18,-1
 1180 1681 l 1,19,-1
 1180 1460 l 1,20,-1
 844 1460 l 1,21,-1
 844 1681 l 1,18,-1
EndSplineSet
EndChar

StartChar: Yacute
Encoding: 221 221 178
Width: 1297
GlyphClass: 2
Flags: W
LayerCount: 2
Fore
SplineSet
424 422 m 1,0,-1
 -26 1327 l 1,1,-1
 408 1327 l 1,2,-1
 867 391 l 1,3,-1
 867 0 l 1,4,-1
 424 0 l 1,5,-1
 424 422 l 1,0,-1
895 484 m 1,6,-1
 680 920 l 1,7,-1
 898 1327 l 1,8,-1
 1323 1327 l 1,9,-1
 895 484 l 1,6,-1
934 1766 m 1,10,-1
 1089 1688 l 1,11,-1
 1042 1519 l 1,12,-1
 539 1404 l 1,13,-1
 488 1526 l 1,14,-1
 934 1766 l 1,10,-1
EndSplineSet
EndChar

StartChar: Thorn
Encoding: 222 222 179
Width: 1464
GlyphClass: 2
Flags: W
LayerCount: 2
Fore
SplineSet
104 0 m 1,0,-1
 104 1327 l 1,1,-1
 537 1327 l 1,2,-1
 537 0 l 1,3,-1
 104 0 l 1,0,-1
607 873 m 1,4,-1
 607 1138 l 1,5,-1
 1103 1138 l 1,6,-1
 1369 873 l 1,7,-1
 1369 474 l 1,8,-1
 1103 209 l 1,9,-1
 607 209 l 1,10,-1
 607 474 l 1,11,-1
 935 474 l 1,12,-1
 935 873 l 1,13,-1
 607 873 l 1,4,-1
EndSplineSet
EndChar

StartChar: germandbls
Encoding: 223 223 180
Width: 1443
GlyphClass: 2
Flags: W
LayerCount: 2
Fore
SplineSet
666 0 m 1,0,-1
 666 265 l 1,1,-1
 924 265 l 1,2,-1
 924 694 l 1,3,-1
 695 694 l 1,4,-1
 695 908 l 1,5,-1
 845 908 l 1,6,-1
 845 1203 l 1,7,-1
 614 1203 l 1,8,-1
 614 1467 l 1,9,-1
 1016 1467 l 1,10,-1
 1237 1247 l 1,11,-1
 1237 902 l 1,12,-1
 1166 834 l 1,13,-1
 1365 631 l 1,14,-1
 1365 253 l 1,15,-1
 1112 0 l 1,16,-1
 666 0 l 1,0,-1
104 0 m 1,17,-1
 104 1203 l 1,18,-1
 369 1467 l 1,19,-1
 546 1467 l 1,20,-1
 546 0 l 1,21,-1
 104 0 l 1,17,-1
EndSplineSet
EndChar

StartChar: agrave
Encoding: 224 224 181
Width: 1331
GlyphClass: 2
Flags: W
LayerCount: 2
Fore
SplineSet
804 0 m 1,0,-1
 804 797 l 1,1,-1
 175 797 l 1,2,-1
 175 929 l 1,3,-1
 308 1062 l 1,4,-1
 971 1062 l 1,5,-1
 1236 797 l 1,6,-1
 1236 0 l 1,7,-1
 804 0 l 1,0,-1
734 618 m 1,8,-1
 734 434 l 1,9,-1
 506 434 l 1,10,-1
 506 248 l 1,11,-1
 734 248 l 1,12,-1
 734 131 l 1,13,-1
 602 0 l 1,14,-1
 264 0 l 1,15,-1
 86 175 l 1,16,-1
 86 441 l 1,17,-1
 264 618 l 1,18,-1
 734 618 l 1,8,-1
959 1291 m 1,19,-1
 898 1144 l 1,20,-1
 343 1311 l 1,21,-1
 289 1522 l 1,22,-1
 473 1607 l 1,23,-1
 959 1291 l 1,19,-1
EndSplineSet
EndChar

StartChar: aacute
Encoding: 225 225 182
Width: 1331
GlyphClass: 2
Flags: W
LayerCount: 2
Fore
SplineSet
804 0 m 1,0,-1
 804 797 l 1,1,-1
 175 797 l 1,2,-1
 175 929 l 1,3,-1
 308 1062 l 1,4,-1
 971 1062 l 1,5,-1
 1236 797 l 1,6,-1
 1236 0 l 1,7,-1
 804 0 l 1,0,-1
734 618 m 1,8,-1
 734 434 l 1,9,-1
 506 434 l 1,10,-1
 506 248 l 1,11,-1
 734 248 l 1,12,-1
 734 131 l 1,13,-1
 602 0 l 1,14,-1
 264 0 l 1,15,-1
 86 175 l 1,16,-1
 86 441 l 1,17,-1
 264 618 l 1,18,-1
 734 618 l 1,8,-1
867 1607 m 1,19,-1
 1051 1522 l 1,20,-1
 997 1311 l 1,21,-1
 443 1144 l 1,22,-1
 381 1291 l 1,23,-1
 867 1607 l 1,19,-1
EndSplineSet
EndChar

StartChar: acircumflex
Encoding: 226 226 183
Width: 1331
GlyphClass: 2
Flags: W
LayerCount: 2
Fore
SplineSet
804 0 m 1,0,-1
 804 797 l 1,1,-1
 175 797 l 1,2,-1
 175 929 l 1,3,-1
 308 1062 l 1,4,-1
 971 1062 l 1,5,-1
 1236 797 l 1,6,-1
 1236 0 l 1,7,-1
 804 0 l 1,0,-1
734 618 m 1,8,-1
 734 434 l 1,9,-1
 506 434 l 1,10,-1
 506 248 l 1,11,-1
 734 248 l 1,12,-1
 734 131 l 1,13,-1
 602 0 l 1,14,-1
 264 0 l 1,15,-1
 86 175 l 1,16,-1
 86 441 l 1,17,-1
 264 618 l 1,18,-1
 734 618 l 1,8,-1
1113 1250 m 1,19,-1
 1020 1153 l 1,20,-1
 666 1363 l 1,21,-1
 313 1153 l 1,22,-1
 219 1250 l 1,23,-1
 514 1585 l 1,24,-1
 818 1585 l 1,25,-1
 1113 1250 l 1,19,-1
EndSplineSet
EndChar

StartChar: atilde
Encoding: 227 227 184
Width: 1331
GlyphClass: 2
Flags: W
LayerCount: 2
Fore
SplineSet
804 0 m 1,0,-1
 804 797 l 1,1,-1
 175 797 l 1,2,-1
 175 929 l 1,3,-1
 308 1062 l 1,4,-1
 971 1062 l 1,5,-1
 1236 797 l 1,6,-1
 1236 0 l 1,7,-1
 804 0 l 1,0,-1
734 618 m 1,8,-1
 734 434 l 1,9,-1
 506 434 l 1,10,-1
 506 248 l 1,11,-1
 734 248 l 1,12,-1
 734 131 l 1,13,-1
 602 0 l 1,14,-1
 264 0 l 1,15,-1
 86 175 l 1,16,-1
 86 441 l 1,17,-1
 264 618 l 1,18,-1
 734 618 l 1,8,-1
706 1558 m 1,19,-1
 814 1407 l 1,20,-1
 881 1407 l 1,21,-1
 1019 1522 l 1,22,-1
 1106 1435 l 1,23,-1
 911 1221 l 1,24,-1
 628 1221 l 1,25,-1
 520 1371 l 1,26,-1
 453 1371 l 1,27,-1
 315 1257 l 1,28,-1
 228 1344 l 1,29,-1
 423 1558 l 1,30,-1
 706 1558 l 1,19,-1
EndSplineSet
EndChar

StartChar: adieresis
Encoding: 228 228 185
Width: 1331
GlyphClass: 2
Flags: W
LayerCount: 2
Fore
SplineSet
804 0 m 1,0,-1
 804 797 l 1,1,-1
 175 797 l 1,2,-1
 175 929 l 1,3,-1
 308 1062 l 1,4,-1
 971 1062 l 1,5,-1
 1236 797 l 1,6,-1
 1236 0 l 1,7,-1
 804 0 l 1,0,-1
734 618 m 1,8,-1
 734 434 l 1,9,-1
 506 434 l 1,10,-1
 506 248 l 1,11,-1
 734 248 l 1,12,-1
 734 131 l 1,13,-1
 602 0 l 1,14,-1
 264 0 l 1,15,-1
 86 175 l 1,16,-1
 86 441 l 1,17,-1
 264 618 l 1,18,-1
 734 618 l 1,8,-1
232 1560 m 1,19,-1
 568 1560 l 1,20,-1
 568 1279 l 1,21,-1
 232 1279 l 1,22,-1
 232 1560 l 1,19,-1
762 1560 m 1,23,-1
 1098 1560 l 1,24,-1
 1098 1279 l 1,25,-1
 762 1279 l 1,26,-1
 762 1560 l 1,23,-1
EndSplineSet
EndChar

StartChar: aring
Encoding: 229 229 186
Width: 1331
GlyphClass: 2
Flags: W
LayerCount: 2
Fore
SplineSet
804 0 m 1,0,-1
 804 797 l 1,1,-1
 175 797 l 1,2,-1
 175 929 l 1,3,-1
 308 1062 l 1,4,-1
 971 1062 l 1,5,-1
 1236 797 l 1,6,-1
 1236 0 l 1,7,-1
 804 0 l 1,0,-1
734 618 m 1,8,-1
 734 434 l 1,9,-1
 506 434 l 1,10,-1
 506 248 l 1,11,-1
 734 248 l 1,12,-1
 734 131 l 1,13,-1
 602 0 l 1,14,-1
 264 0 l 1,15,-1
 86 175 l 1,16,-1
 86 441 l 1,17,-1
 264 618 l 1,18,-1
 734 618 l 1,8,-1
699 1200 m 1,19,-1
 699 1356 l 1,20,-1
 777 1356 l 1,21,-1
 777 1527 l 1,22,-1
 699 1527 l 1,23,-1
 699 1682 l 1,24,-1
 796 1682 l 1,25,-1
 935 1545 l 1,26,-1
 935 1337 l 1,27,-1
 796 1200 l 1,28,-1
 699 1200 l 1,19,-1
630 1356 m 1,29,-1
 630 1200 l 1,30,-1
 531 1200 l 1,31,-1
 394 1337 l 1,32,-1
 394 1545 l 1,33,-1
 531 1682 l 1,34,-1
 630 1682 l 1,35,-1
 630 1527 l 1,36,-1
 553 1527 l 1,37,-1
 553 1356 l 1,38,-1
 630 1356 l 1,29,-1
EndSplineSet
EndChar

StartChar: ae
Encoding: 230 230 187
Width: 2030
GlyphClass: 2
Flags: W
LayerCount: 2
Fore
SplineSet
308 1062 m 1,0,-1
 925 1062 l 1,1,-1
 1017 973 l 1,2,-1
 1104 1062 l 1,3,-1
 1336 1062 l 1,4,-1
 1336 797 l 1,5,-1
 1236 797 l 1,6,-1
 1236 265 l 1,7,-1
 1336 265 l 1,8,-1
 1336 0 l 1,9,-1
 1104 0 l 1,10,-1
 1015 88 l 1,11,-1
 925 0 l 1,12,-1
 696 0 l 1,13,-1
 696 265 l 1,14,-1
 794 265 l 1,15,-1
 794 797 l 1,16,-1
 175 797 l 1,17,-1
 175 929 l 1,18,-1
 308 1062 l 1,0,-1
724 628 m 1,19,-1
 724 434 l 1,20,-1
 529 434 l 1,21,-1
 529 265 l 1,22,-1
 626 265 l 1,23,-1
 626 0 l 1,24,-1
 264 0 l 1,25,-1
 86 175 l 1,26,-1
 86 451 l 1,27,-1
 264 628 l 1,28,-1
 724 628 l 1,19,-1
1309 434 m 1,29,-1
 1309 628 l 1,30,-1
 1502 628 l 1,31,-1
 1502 797 l 1,32,-1
 1406 797 l 1,33,-1
 1406 1062 l 1,34,-1
 1679 1062 l 1,35,-1
 1945 797 l 1,36,-1
 1945 434 l 1,37,-1
 1309 434 l 1,29,-1
1406 0 m 1,38,-1
 1406 265 l 1,39,-1
 1900 265 l 1,40,-1
 1900 133 l 1,41,-1
 1768 0 l 1,42,-1
 1406 0 l 1,38,-1
EndSplineSet
EndChar

StartChar: ccedilla
Encoding: 231 231 188
Width: 1323
GlyphClass: 2
Flags: W
LayerCount: 2
Fore
SplineSet
537 0 m 1,0,-1
 360 0 l 1,1,-1
 95 265 l 1,2,-1
 95 797 l 1,3,-1
 360 1062 l 1,4,-1
 537 1062 l 1,5,-1
 537 0 l 1,0,-1
607 797 m 1,6,-1
 607 1062 l 1,7,-1
 980 1062 l 1,8,-1
 1245 797 l 1,9,-1
 1245 638 l 1,10,-1
 803 638 l 1,11,-1
 803 797 l 1,12,-1
 607 797 l 1,6,-1
607 0 m 1,13,-1
 607 248 l 1,14,-1
 803 248 l 1,15,-1
 803 381 l 1,16,-1
 1245 381 l 1,17,-1
 1245 265 l 1,18,-1
 980 0 l 1,19,-1
 607 0 l 1,13,-1
647 -225 m 1,20,-1
 647 -62 l 1,21,-1
 849 -62 l 1,22,-1
 849 -307 l 1,23,-1
 674 -507 l 1,24,-1
 362 -507 l 1,25,-1
 362 -225 l 1,26,-1
 647 -225 l 1,20,-1
EndSplineSet
EndChar

StartChar: egrave
Encoding: 232 232 189
Width: 1331
GlyphClass: 2
Flags: W
LayerCount: 2
Fore
SplineSet
537 0 m 1,0,-1
 360 0 l 1,1,-1
 95 265 l 1,2,-1
 95 797 l 1,3,-1
 360 1062 l 1,4,-1
 537 1062 l 1,5,-1
 537 0 l 1,0,-1
607 426 m 1,6,-1
 607 611 l 1,7,-1
 840 611 l 1,8,-1
 840 797 l 1,9,-1
 607 797 l 1,10,-1
 607 1062 l 1,11,-1
 982 1062 l 1,12,-1
 1247 797 l 1,13,-1
 1247 426 l 1,14,-1
 607 426 l 1,6,-1
607 0 m 1,15,-1
 607 248 l 1,16,-1
 1201 248 l 1,17,-1
 1201 133 l 1,18,-1
 1069 0 l 1,19,-1
 607 0 l 1,15,-1
961 1291 m 1,20,-1
 900 1144 l 1,21,-1
 345 1311 l 1,22,-1
 291 1522 l 1,23,-1
 475 1607 l 1,24,-1
 961 1291 l 1,20,-1
EndSplineSet
EndChar

StartChar: eacute
Encoding: 233 233 190
Width: 1331
GlyphClass: 2
Flags: W
LayerCount: 2
Fore
SplineSet
537 0 m 1,0,-1
 360 0 l 1,1,-1
 95 265 l 1,2,-1
 95 797 l 1,3,-1
 360 1062 l 1,4,-1
 537 1062 l 1,5,-1
 537 0 l 1,0,-1
607 426 m 1,6,-1
 607 611 l 1,7,-1
 840 611 l 1,8,-1
 840 797 l 1,9,-1
 607 797 l 1,10,-1
 607 1062 l 1,11,-1
 982 1062 l 1,12,-1
 1247 797 l 1,13,-1
 1247 426 l 1,14,-1
 607 426 l 1,6,-1
607 0 m 1,15,-1
 607 248 l 1,16,-1
 1201 248 l 1,17,-1
 1201 133 l 1,18,-1
 1069 0 l 1,19,-1
 607 0 l 1,15,-1
869 1607 m 1,20,-1
 1053 1522 l 1,21,-1
 999 1311 l 1,22,-1
 445 1144 l 1,23,-1
 383 1291 l 1,24,-1
 869 1607 l 1,20,-1
EndSplineSet
EndChar

StartChar: ecircumflex
Encoding: 234 234 191
Width: 1331
GlyphClass: 2
Flags: W
LayerCount: 2
Fore
SplineSet
537 0 m 1,0,-1
 360 0 l 1,1,-1
 95 265 l 1,2,-1
 95 797 l 1,3,-1
 360 1062 l 1,4,-1
 537 1062 l 1,5,-1
 537 0 l 1,0,-1
607 426 m 1,6,-1
 607 611 l 1,7,-1
 840 611 l 1,8,-1
 840 797 l 1,9,-1
 607 797 l 1,10,-1
 607 1062 l 1,11,-1
 982 1062 l 1,12,-1
 1247 797 l 1,13,-1
 1247 426 l 1,14,-1
 607 426 l 1,6,-1
607 0 m 1,15,-1
 607 248 l 1,16,-1
 1201 248 l 1,17,-1
 1201 133 l 1,18,-1
 1069 0 l 1,19,-1
 607 0 l 1,15,-1
1115 1250 m 1,20,-1
 1022 1153 l 1,21,-1
 668 1363 l 1,22,-1
 315 1153 l 1,23,-1
 221 1250 l 1,24,-1
 516 1585 l 1,25,-1
 820 1585 l 1,26,-1
 1115 1250 l 1,20,-1
EndSplineSet
EndChar

StartChar: edieresis
Encoding: 235 235 192
Width: 1331
GlyphClass: 2
Flags: W
LayerCount: 2
Fore
SplineSet
537 0 m 1,0,-1
 360 0 l 1,1,-1
 95 265 l 1,2,-1
 95 797 l 1,3,-1
 360 1062 l 1,4,-1
 537 1062 l 1,5,-1
 537 0 l 1,0,-1
607 426 m 1,6,-1
 607 611 l 1,7,-1
 840 611 l 1,8,-1
 840 797 l 1,9,-1
 607 797 l 1,10,-1
 607 1062 l 1,11,-1
 982 1062 l 1,12,-1
 1247 797 l 1,13,-1
 1247 426 l 1,14,-1
 607 426 l 1,6,-1
607 0 m 1,15,-1
 607 248 l 1,16,-1
 1201 248 l 1,17,-1
 1201 133 l 1,18,-1
 1069 0 l 1,19,-1
 607 0 l 1,15,-1
234 1560 m 1,20,-1
 570 1560 l 1,21,-1
 570 1279 l 1,22,-1
 234 1279 l 1,23,-1
 234 1560 l 1,20,-1
764 1560 m 1,24,-1
 1100 1560 l 1,25,-1
 1100 1279 l 1,26,-1
 764 1279 l 1,27,-1
 764 1560 l 1,24,-1
EndSplineSet
EndChar

StartChar: igrave
Encoding: 236 236 193
Width: 653
GlyphClass: 2
Flags: W
LayerCount: 2
Fore
SplineSet
105 1062 m 1,0,-1
 548 1062 l 1,1,-1
 548 0 l 1,2,-1
 105 0 l 1,3,-1
 105 1062 l 1,0,-1
621 1291 m 1,4,-1
 560 1144 l 1,5,-1
 5 1311 l 1,6,-1
 -49 1522 l 1,7,-1
 135 1607 l 1,8,-1
 621 1291 l 1,4,-1
EndSplineSet
EndChar

StartChar: iacute
Encoding: 237 237 194
Width: 653
GlyphClass: 2
Flags: W
LayerCount: 2
Fore
SplineSet
105 1062 m 1,0,-1
 548 1062 l 1,1,-1
 548 0 l 1,2,-1
 105 0 l 1,3,-1
 105 1062 l 1,0,-1
529 1607 m 1,4,-1
 713 1522 l 1,5,-1
 659 1311 l 1,6,-1
 105 1144 l 1,7,-1
 43 1291 l 1,8,-1
 529 1607 l 1,4,-1
EndSplineSet
EndChar

StartChar: icircumflex
Encoding: 238 238 195
Width: 653
GlyphClass: 2
Flags: W
LayerCount: 2
Fore
SplineSet
105 1062 m 1,0,-1
 548 1062 l 1,1,-1
 548 0 l 1,2,-1
 105 0 l 1,3,-1
 105 1062 l 1,0,-1
775 1250 m 1,4,-1
 682 1153 l 1,5,-1
 328 1363 l 1,6,-1
 -25 1153 l 1,7,-1
 -119 1250 l 1,8,-1
 176 1585 l 1,9,-1
 480 1585 l 1,10,-1
 775 1250 l 1,4,-1
EndSplineSet
EndChar

StartChar: idieresis
Encoding: 239 239 196
Width: 653
GlyphClass: 2
Flags: W
LayerCount: 2
Fore
SplineSet
105 1062 m 1,0,-1
 548 1062 l 1,1,-1
 548 0 l 1,2,-1
 105 0 l 1,3,-1
 105 1062 l 1,0,-1
-107 1560 m 1,4,-1
 229 1560 l 1,5,-1
 229 1279 l 1,6,-1
 -107 1279 l 1,7,-1
 -107 1560 l 1,4,-1
423 1560 m 1,8,-1
 759 1560 l 1,9,-1
 759 1279 l 1,10,-1
 423 1279 l 1,11,-1
 423 1560 l 1,8,-1
EndSplineSet
EndChar

StartChar: eth
Encoding: 240 240 197
Width: 1353
GlyphClass: 2
Flags: W
LayerCount: 2
Fore
SplineSet
446 1178 m 1,0,-1
 608 1259 l 1,1,-1
 506 1377 l 1,2,-1
 826 1529 l 1,3,-1
 933 1400 l 1,4,-1
 1117 1484 l 1,5,-1
 1205 1312 l 1,6,-1
 1054 1235 l 1,7,-1
 1245 966 l 1,8,-1
 1248 265 l 1,9,-1
 982 0 l 1,10,-1
 805 0 l 1,11,-1
 805 962 l 1,12,-1
 708 1093 l 1,13,-1
 542 1015 l 1,14,-1
 446 1178 l 1,0,-1
539 265 m 1,15,-1
 735 265 l 1,16,-1
 735 0 l 1,17,-1
 363 0 l 1,18,-1
 97 265 l 1,19,-1
 97 702 l 1,20,-1
 363 941 l 1,21,-1
 735 941 l 1,22,-1
 735 702 l 1,23,-1
 539 702 l 1,24,-1
 539 265 l 1,15,-1
EndSplineSet
EndChar

StartChar: ntilde
Encoding: 241 241 198
Width: 1356
GlyphClass: 2
Flags: W
LayerCount: 2
Fore
SplineSet
104 0 m 1,0,-1
 104 1062 l 1,1,-1
 550 1062 l 1,2,-1
 550 0 l 1,3,-1
 104 0 l 1,0,-1
812 797 m 1,4,-1
 622 797 l 1,5,-1
 622 913 l 1,6,-1
 770 1062 l 1,7,-1
 1016 1062 l 1,8,-1
 1255 823 l 1,9,-1
 1255 0 l 1,10,-1
 812 0 l 1,11,-1
 812 797 l 1,4,-1
718 1558 m 1,12,-1
 826 1407 l 1,13,-1
 893 1407 l 1,14,-1
 1031 1522 l 1,15,-1
 1118 1435 l 1,16,-1
 923 1221 l 1,17,-1
 640 1221 l 1,18,-1
 532 1371 l 1,19,-1
 465 1371 l 1,20,-1
 327 1257 l 1,21,-1
 240 1344 l 1,22,-1
 435 1558 l 1,23,-1
 718 1558 l 1,12,-1
EndSplineSet
EndChar

StartChar: ograve
Encoding: 242 242 199
Width: 1383
GlyphClass: 2
Flags: W
LayerCount: 2
Fore
SplineSet
1288 265 m 1,0,-1
 1023 0 l 1,1,-1
 727 0 l 1,2,-1
 727 248 l 1,3,-1
 837 248 l 1,4,-1
 837 797 l 1,5,-1
 727 797 l 1,6,-1
 727 1062 l 1,7,-1
 1023 1062 l 1,8,-1
 1288 797 l 1,9,-1
 1288 265 l 1,0,-1
542 248 m 1,10,-1
 657 248 l 1,11,-1
 657 0 l 1,12,-1
 360 0 l 1,13,-1
 95 265 l 1,14,-1
 95 797 l 1,15,-1
 360 1062 l 1,16,-1
 657 1062 l 1,17,-1
 657 797 l 1,18,-1
 542 797 l 1,19,-1
 542 248 l 1,10,-1
984 1291 m 1,20,-1
 923 1144 l 1,21,-1
 368 1311 l 1,22,-1
 314 1522 l 1,23,-1
 498 1607 l 1,24,-1
 984 1291 l 1,20,-1
EndSplineSet
EndChar

StartChar: oacute
Encoding: 243 243 200
Width: 1383
GlyphClass: 2
Flags: W
LayerCount: 2
Fore
SplineSet
1288 265 m 1,0,-1
 1023 0 l 1,1,-1
 727 0 l 1,2,-1
 727 248 l 1,3,-1
 837 248 l 1,4,-1
 837 797 l 1,5,-1
 727 797 l 1,6,-1
 727 1062 l 1,7,-1
 1023 1062 l 1,8,-1
 1288 797 l 1,9,-1
 1288 265 l 1,0,-1
542 248 m 1,10,-1
 657 248 l 1,11,-1
 657 0 l 1,12,-1
 360 0 l 1,13,-1
 95 265 l 1,14,-1
 95 797 l 1,15,-1
 360 1062 l 1,16,-1
 657 1062 l 1,17,-1
 657 797 l 1,18,-1
 542 797 l 1,19,-1
 542 248 l 1,10,-1
892 1607 m 1,20,-1
 1076 1522 l 1,21,-1
 1022 1311 l 1,22,-1
 468 1144 l 1,23,-1
 406 1291 l 1,24,-1
 892 1607 l 1,20,-1
EndSplineSet
EndChar

StartChar: ocircumflex
Encoding: 244 244 201
Width: 1383
GlyphClass: 2
Flags: W
LayerCount: 2
Fore
SplineSet
1288 265 m 1,0,-1
 1023 0 l 1,1,-1
 727 0 l 1,2,-1
 727 248 l 1,3,-1
 837 248 l 1,4,-1
 837 797 l 1,5,-1
 727 797 l 1,6,-1
 727 1062 l 1,7,-1
 1023 1062 l 1,8,-1
 1288 797 l 1,9,-1
 1288 265 l 1,0,-1
542 248 m 1,10,-1
 657 248 l 1,11,-1
 657 0 l 1,12,-1
 360 0 l 1,13,-1
 95 265 l 1,14,-1
 95 797 l 1,15,-1
 360 1062 l 1,16,-1
 657 1062 l 1,17,-1
 657 797 l 1,18,-1
 542 797 l 1,19,-1
 542 248 l 1,10,-1
1138 1250 m 1,20,-1
 1045 1153 l 1,21,-1
 691 1363 l 1,22,-1
 338 1153 l 1,23,-1
 244 1250 l 1,24,-1
 539 1585 l 1,25,-1
 843 1585 l 1,26,-1
 1138 1250 l 1,20,-1
EndSplineSet
EndChar

StartChar: otilde
Encoding: 245 245 202
Width: 1383
GlyphClass: 2
Flags: W
LayerCount: 2
Fore
SplineSet
1288 265 m 1,0,-1
 1023 0 l 1,1,-1
 727 0 l 1,2,-1
 727 248 l 1,3,-1
 837 248 l 1,4,-1
 837 797 l 1,5,-1
 727 797 l 1,6,-1
 727 1062 l 1,7,-1
 1023 1062 l 1,8,-1
 1288 797 l 1,9,-1
 1288 265 l 1,0,-1
542 248 m 1,10,-1
 657 248 l 1,11,-1
 657 0 l 1,12,-1
 360 0 l 1,13,-1
 95 265 l 1,14,-1
 95 797 l 1,15,-1
 360 1062 l 1,16,-1
 657 1062 l 1,17,-1
 657 797 l 1,18,-1
 542 797 l 1,19,-1
 542 248 l 1,10,-1
731 1558 m 1,20,-1
 839 1407 l 1,21,-1
 906 1407 l 1,22,-1
 1044 1522 l 1,23,-1
 1131 1435 l 1,24,-1
 936 1221 l 1,25,-1
 653 1221 l 1,26,-1
 545 1371 l 1,27,-1
 478 1371 l 1,28,-1
 340 1257 l 1,29,-1
 253 1344 l 1,30,-1
 448 1558 l 1,31,-1
 731 1558 l 1,20,-1
EndSplineSet
EndChar

StartChar: odieresis
Encoding: 246 246 203
Width: 1383
GlyphClass: 2
Flags: W
LayerCount: 2
Fore
SplineSet
1288 265 m 1,0,-1
 1023 0 l 1,1,-1
 727 0 l 1,2,-1
 727 248 l 1,3,-1
 837 248 l 1,4,-1
 837 797 l 1,5,-1
 727 797 l 1,6,-1
 727 1062 l 1,7,-1
 1023 1062 l 1,8,-1
 1288 797 l 1,9,-1
 1288 265 l 1,0,-1
542 248 m 1,10,-1
 657 248 l 1,11,-1
 657 0 l 1,12,-1
 360 0 l 1,13,-1
 95 265 l 1,14,-1
 95 797 l 1,15,-1
 360 1062 l 1,16,-1
 657 1062 l 1,17,-1
 657 797 l 1,18,-1
 542 797 l 1,19,-1
 542 248 l 1,10,-1
257 1560 m 1,20,-1
 593 1560 l 1,21,-1
 593 1279 l 1,22,-1
 257 1279 l 1,23,-1
 257 1560 l 1,20,-1
787 1560 m 1,24,-1
 1123 1560 l 1,25,-1
 1123 1279 l 1,26,-1
 787 1279 l 1,27,-1
 787 1560 l 1,24,-1
EndSplineSet
EndChar

StartChar: divide
Encoding: 247 247 204
Width: 1439
GlyphClass: 2
Flags: W
LayerCount: 2
Fore
SplineSet
186 740 m 1,0,-1
 1253 740 l 1,1,-1
 1253 501 l 1,2,-1
 186 501 l 1,3,-1
 186 740 l 1,0,-1
554 1153 m 1,4,-1
 885 1153 l 1,5,-1
 885 915 l 1,6,-1
 554 915 l 1,7,-1
 554 1153 l 1,4,-1
554 326 m 1,8,-1
 885 326 l 1,9,-1
 885 86 l 1,10,-1
 554 86 l 1,11,-1
 554 326 l 1,8,-1
EndSplineSet
EndChar

StartChar: oslash
Encoding: 248 248 205
Width: 1357
GlyphClass: 2
Flags: W
LayerCount: 2
Fore
SplineSet
257 107 m 1,0,-1
 95 265 l 1,1,-1
 95 797 l 1,2,-1
 369 1062 l 1,3,-1
 698 1062 l 1,4,-1
 626 797 l 1,5,-1
 546 797 l 1,6,-1
 546 265 l 1,7,-1
 569 265 l 1,8,-1
 569 264 l 1,9,-1
 645 264 l 1,10,-1
 516 -221 l 1,11,-1
 193 -137 l 1,12,-1
 257 107 l 1,0,-1
1102 952 m 1,13,-1
 1262 797 l 1,14,-1
 1262 265 l 1,15,-1
 988 0 l 1,16,-1
 663 0 l 1,17,-1
 732 264 l 1,18,-1
 811 265 l 1,19,-1
 811 797 l 1,20,-1
 715 797 l 1,21,-1
 841 1276 l 1,22,-1
 1164 1192 l 1,23,-1
 1102 952 l 1,13,-1
EndSplineSet
EndChar

StartChar: ugrave
Encoding: 249 249 206
Width: 1350
GlyphClass: 2
Flags: W
LayerCount: 2
Fore
SplineSet
1246 1062 m 1,0,-1
 1246 0 l 1,1,-1
 804 0 l 1,2,-1
 804 1062 l 1,3,-1
 1246 1062 l 1,0,-1
537 265 m 1,4,-1
 734 265 l 1,5,-1
 734 133 l 1,6,-1
 606 0 l 1,7,-1
 361 0 l 1,8,-1
 95 265 l 1,9,-1
 95 1062 l 1,10,-1
 537 1062 l 1,11,-1
 537 265 l 1,4,-1
963 1291 m 1,12,-1
 902 1144 l 1,13,-1
 347 1311 l 1,14,-1
 293 1522 l 1,15,-1
 477 1607 l 1,16,-1
 963 1291 l 1,12,-1
EndSplineSet
EndChar

StartChar: uacute
Encoding: 250 250 207
Width: 1350
GlyphClass: 2
Flags: W
LayerCount: 2
Fore
SplineSet
1246 1062 m 1,0,-1
 1246 0 l 1,1,-1
 804 0 l 1,2,-1
 804 1062 l 1,3,-1
 1246 1062 l 1,0,-1
537 265 m 1,4,-1
 734 265 l 1,5,-1
 734 133 l 1,6,-1
 606 0 l 1,7,-1
 361 0 l 1,8,-1
 95 265 l 1,9,-1
 95 1062 l 1,10,-1
 537 1062 l 1,11,-1
 537 265 l 1,4,-1
871 1607 m 1,12,-1
 1055 1522 l 1,13,-1
 1001 1311 l 1,14,-1
 447 1144 l 1,15,-1
 385 1291 l 1,16,-1
 871 1607 l 1,12,-1
EndSplineSet
EndChar

StartChar: ucircumflex
Encoding: 251 251 208
Width: 1350
GlyphClass: 2
Flags: W
LayerCount: 2
Fore
SplineSet
1246 1062 m 1,0,-1
 1246 0 l 1,1,-1
 804 0 l 1,2,-1
 804 1062 l 1,3,-1
 1246 1062 l 1,0,-1
537 265 m 1,4,-1
 734 265 l 1,5,-1
 734 133 l 1,6,-1
 606 0 l 1,7,-1
 361 0 l 1,8,-1
 95 265 l 1,9,-1
 95 1062 l 1,10,-1
 537 1062 l 1,11,-1
 537 265 l 1,4,-1
1117 1250 m 1,12,-1
 1024 1153 l 1,13,-1
 670 1363 l 1,14,-1
 317 1153 l 1,15,-1
 223 1250 l 1,16,-1
 518 1585 l 1,17,-1
 822 1585 l 1,18,-1
 1117 1250 l 1,12,-1
EndSplineSet
EndChar

StartChar: udieresis
Encoding: 252 252 209
Width: 1350
GlyphClass: 2
Flags: W
LayerCount: 2
Fore
SplineSet
1246 1062 m 1,0,-1
 1246 0 l 1,1,-1
 804 0 l 1,2,-1
 804 1062 l 1,3,-1
 1246 1062 l 1,0,-1
537 265 m 1,4,-1
 734 265 l 1,5,-1
 734 133 l 1,6,-1
 606 0 l 1,7,-1
 361 0 l 1,8,-1
 95 265 l 1,9,-1
 95 1062 l 1,10,-1
 537 1062 l 1,11,-1
 537 265 l 1,4,-1
236 1560 m 1,12,-1
 572 1560 l 1,13,-1
 572 1279 l 1,14,-1
 236 1279 l 1,15,-1
 236 1560 l 1,12,-1
766 1560 m 1,16,-1
 1102 1560 l 1,17,-1
 1102 1279 l 1,18,-1
 766 1279 l 1,19,-1
 766 1560 l 1,16,-1
EndSplineSet
EndChar

StartChar: yacute
Encoding: 253 253 210
Width: 1221
GlyphClass: 2
Flags: W
LayerCount: 2
Fore
SplineSet
696 -370 m 1,0,-1
 272 -370 l 1,1,-1
 810 1062 l 1,2,-1
 1235 1062 l 1,3,-1
 696 -370 l 1,0,-1
-14 1062 m 1,4,-1
 427 1062 l 1,5,-1
 576 630 l 1,6,-1
 378 89 l 1,7,-1
 -14 1062 l 1,4,-1
821 1607 m 1,8,-1
 1005 1522 l 1,9,-1
 951 1311 l 1,10,-1
 397 1144 l 1,11,-1
 335 1291 l 1,12,-1
 821 1607 l 1,8,-1
EndSplineSet
EndChar

StartChar: thorn
Encoding: 254 254 211
Width: 1349
GlyphClass: 2
Flags: W
LayerCount: 2
Fore
SplineSet
546 1450 m 1,0,-1
 546 -354 l 1,1,-1
 104 -354 l 1,2,-1
 104 1450 l 1,3,-1
 546 1450 l 1,0,-1
811 797 m 1,4,-1
 613 797 l 1,5,-1
 613 931 l 1,6,-1
 744 1062 l 1,7,-1
 988 1062 l 1,8,-1
 1254 797 l 1,9,-1
 1254 265 l 1,10,-1
 988 0 l 1,11,-1
 613 0 l 1,12,-1
 613 265 l 1,13,-1
 811 265 l 1,14,-1
 811 797 l 1,4,-1
EndSplineSet
EndChar

StartChar: ydieresis
Encoding: 255 255 212
Width: 1221
GlyphClass: 2
Flags: W
LayerCount: 2
Fore
SplineSet
696 -370 m 1,0,-1
 272 -370 l 1,1,-1
 810 1062 l 1,2,-1
 1235 1062 l 1,3,-1
 696 -370 l 1,0,-1
-14 1062 m 1,4,-1
 427 1062 l 1,5,-1
 576 630 l 1,6,-1
 378 89 l 1,7,-1
 -14 1062 l 1,4,-1
186 1560 m 1,8,-1
 522 1560 l 1,9,-1
 522 1279 l 1,10,-1
 186 1279 l 1,11,-1
 186 1560 l 1,8,-1
716 1560 m 1,12,-1
 1052 1560 l 1,13,-1
 1052 1279 l 1,14,-1
 716 1279 l 1,15,-1
 716 1560 l 1,12,-1
EndSplineSet
EndChar

StartChar: Amacron
Encoding: 256 256 213
Width: 1500
GlyphClass: 2
Flags: W
LayerCount: 2
Fore
SplineSet
988 145 m 1,0,-1
 554 145 l 1,1,-1
 646 408 l 1,2,-1
 886 408 l 1,3,-1
 531 1327 l 1,4,-1
 962 1327 l 1,5,-1
 1491 0 l 1,6,-1
 1044 0 l 1,7,-1
 988 145 l 1,0,-1
436 0 m 1,8,-1
 9 0 l 1,9,-1
 483 1267 l 1,10,-1
 679 740 l 1,11,-1
 436 0 l 1,8,-1
383 1651 m 1,12,-1
 1112 1651 l 1,13,-1
 1112 1481 l 1,14,-1
 383 1481 l 1,15,-1
 383 1651 l 1,12,-1
EndSplineSet
EndChar

StartChar: amacron
Encoding: 257 257 214
Width: 1331
GlyphClass: 2
Flags: W
LayerCount: 2
Fore
SplineSet
804 0 m 1,0,-1
 804 797 l 1,1,-1
 175 797 l 1,2,-1
 175 929 l 1,3,-1
 308 1062 l 1,4,-1
 971 1062 l 1,5,-1
 1236 797 l 1,6,-1
 1236 0 l 1,7,-1
 804 0 l 1,0,-1
734 618 m 1,8,-1
 734 434 l 1,9,-1
 506 434 l 1,10,-1
 506 248 l 1,11,-1
 734 248 l 1,12,-1
 734 131 l 1,13,-1
 602 0 l 1,14,-1
 264 0 l 1,15,-1
 86 175 l 1,16,-1
 86 441 l 1,17,-1
 264 618 l 1,18,-1
 734 618 l 1,8,-1
302 1393 m 1,19,-1
 1031 1393 l 1,20,-1
 1031 1223 l 1,21,-1
 302 1223 l 1,22,-1
 302 1393 l 1,19,-1
EndSplineSet
EndChar

StartChar: Abreve
Encoding: 258 258 215
Width: 1500
GlyphClass: 2
Flags: W
LayerCount: 2
Fore
SplineSet
988 145 m 1,0,-1
 554 145 l 1,1,-1
 646 408 l 1,2,-1
 886 408 l 1,3,-1
 531 1327 l 1,4,-1
 962 1327 l 1,5,-1
 1491 0 l 1,6,-1
 1044 0 l 1,7,-1
 988 145 l 1,0,-1
436 0 m 1,8,-1
 9 0 l 1,9,-1
 483 1267 l 1,10,-1
 679 740 l 1,11,-1
 436 0 l 1,8,-1
374 1717 m 1,12,-1
 512 1756 l 1,13,-1
 584 1604 l 1,14,-1
 889 1604 l 1,15,-1
 961 1756 l 1,16,-1
 1099 1717 l 1,17,-1
 1063 1536 l 1,18,-1
 917 1392 l 1,19,-1
 556 1392 l 1,20,-1
 410 1536 l 1,21,-1
 374 1717 l 1,12,-1
EndSplineSet
EndChar

StartChar: abreve
Encoding: 259 259 216
Width: 1331
GlyphClass: 2
Flags: W
LayerCount: 2
Fore
SplineSet
804 0 m 1,0,-1
 804 797 l 1,1,-1
 175 797 l 1,2,-1
 175 929 l 1,3,-1
 308 1062 l 1,4,-1
 971 1062 l 1,5,-1
 1236 797 l 1,6,-1
 1236 0 l 1,7,-1
 804 0 l 1,0,-1
734 618 m 1,8,-1
 734 434 l 1,9,-1
 506 434 l 1,10,-1
 506 248 l 1,11,-1
 734 248 l 1,12,-1
 734 131 l 1,13,-1
 602 0 l 1,14,-1
 264 0 l 1,15,-1
 86 175 l 1,16,-1
 86 441 l 1,17,-1
 264 618 l 1,18,-1
 734 618 l 1,8,-1
283 1530 m 1,19,-1
 421 1569 l 1,20,-1
 503 1387 l 1,21,-1
 828 1387 l 1,22,-1
 910 1569 l 1,23,-1
 1048 1530 l 1,24,-1
 992 1299 l 1,25,-1
 846 1155 l 1,26,-1
 485 1155 l 1,27,-1
 339 1299 l 1,28,-1
 283 1530 l 1,19,-1
EndSplineSet
EndChar

StartChar: Aogonek
Encoding: 260 260 217
Width: 1500
GlyphClass: 2
Flags: W
LayerCount: 2
Fore
SplineSet
988 145 m 1,0,-1
 554 145 l 1,1,-1
 646 408 l 1,2,-1
 886 408 l 1,3,-1
 531 1327 l 1,4,-1
 962 1327 l 1,5,-1
 1491 0 l 1,6,-1
 1044 0 l 1,7,-1
 988 145 l 1,0,-1
436 0 m 1,8,-1
 9 0 l 1,9,-1
 483 1267 l 1,10,-1
 679 740 l 1,11,-1
 436 0 l 1,8,-1
1491 -175 m 1,12,-1
 1491 -445 l 1,13,-1
 1209 -445 l 1,14,-1
 1034 -245 l 1,15,-1
 1034 -62 l 1,16,-1
 1236 -62 l 1,17,-1
 1236 -175 l 1,18,-1
 1491 -175 l 1,12,-1
EndSplineSet
EndChar

StartChar: aogonek
Encoding: 261 261 218
Width: 1331
GlyphClass: 2
Flags: W
LayerCount: 2
Fore
SplineSet
804 0 m 1,0,-1
 804 797 l 1,1,-1
 175 797 l 1,2,-1
 175 929 l 1,3,-1
 308 1062 l 1,4,-1
 971 1062 l 1,5,-1
 1236 797 l 1,6,-1
 1236 0 l 1,7,-1
 804 0 l 1,0,-1
734 618 m 1,8,-1
 734 434 l 1,9,-1
 506 434 l 1,10,-1
 506 248 l 1,11,-1
 734 248 l 1,12,-1
 734 131 l 1,13,-1
 602 0 l 1,14,-1
 264 0 l 1,15,-1
 86 175 l 1,16,-1
 86 441 l 1,17,-1
 264 618 l 1,18,-1
 734 618 l 1,8,-1
1235 -175 m 1,19,-1
 1235 -445 l 1,20,-1
 953 -445 l 1,21,-1
 778 -245 l 1,22,-1
 778 -62 l 1,23,-1
 980 -62 l 1,24,-1
 980 -175 l 1,25,-1
 1235 -175 l 1,19,-1
EndSplineSet
EndChar

StartChar: Cacute
Encoding: 262 262 219
Width: 1440
GlyphClass: 2
Flags: W
LayerCount: 2
Fore
SplineSet
539 0 m 1,0,-1
 363 0 l 1,1,-1
 97 265 l 1,2,-1
 97 1062 l 1,3,-1
 363 1327 l 1,4,-1
 539 1327 l 1,5,-1
 539 0 l 1,0,-1
609 1062 m 1,6,-1
 609 1327 l 1,7,-1
 1080 1327 l 1,8,-1
 1345 1062 l 1,9,-1
 1345 795 l 1,10,-1
 903 795 l 1,11,-1
 903 1062 l 1,12,-1
 609 1062 l 1,6,-1
609 0 m 1,13,-1
 609 265 l 1,14,-1
 903 265 l 1,15,-1
 903 459 l 1,16,-1
 1345 459 l 1,17,-1
 1345 265 l 1,18,-1
 1080 0 l 1,19,-1
 609 0 l 1,13,-1
1003 1767 m 1,20,-1
 1158 1689 l 1,21,-1
 1111 1520 l 1,22,-1
 608 1405 l 1,23,-1
 557 1527 l 1,24,-1
 1003 1767 l 1,20,-1
EndSplineSet
EndChar

StartChar: cacute
Encoding: 263 263 220
Width: 1323
GlyphClass: 2
Flags: W
LayerCount: 2
Fore
SplineSet
537 0 m 1,0,-1
 360 0 l 1,1,-1
 95 265 l 1,2,-1
 95 797 l 1,3,-1
 360 1062 l 1,4,-1
 537 1062 l 1,5,-1
 537 0 l 1,0,-1
607 797 m 1,6,-1
 607 1062 l 1,7,-1
 980 1062 l 1,8,-1
 1245 797 l 1,9,-1
 1245 638 l 1,10,-1
 803 638 l 1,11,-1
 803 797 l 1,12,-1
 607 797 l 1,6,-1
607 0 m 1,13,-1
 607 248 l 1,14,-1
 803 248 l 1,15,-1
 803 381 l 1,16,-1
 1245 381 l 1,17,-1
 1245 265 l 1,18,-1
 980 0 l 1,19,-1
 607 0 l 1,13,-1
881 1607 m 1,20,-1
 1065 1522 l 1,21,-1
 1011 1311 l 1,22,-1
 457 1144 l 1,23,-1
 395 1291 l 1,24,-1
 881 1607 l 1,20,-1
EndSplineSet
EndChar

StartChar: Ccircumflex
Encoding: 264 264 221
Width: 1440
GlyphClass: 2
Flags: W
LayerCount: 2
Fore
SplineSet
539 0 m 1,0,-1
 363 0 l 1,1,-1
 97 265 l 1,2,-1
 97 1062 l 1,3,-1
 363 1327 l 1,4,-1
 539 1327 l 1,5,-1
 539 0 l 1,0,-1
609 1062 m 1,6,-1
 609 1327 l 1,7,-1
 1080 1327 l 1,8,-1
 1345 1062 l 1,9,-1
 1345 795 l 1,10,-1
 903 795 l 1,11,-1
 903 1062 l 1,12,-1
 609 1062 l 1,6,-1
609 0 m 1,13,-1
 609 265 l 1,14,-1
 903 265 l 1,15,-1
 903 459 l 1,16,-1
 1345 459 l 1,17,-1
 1345 265 l 1,18,-1
 1080 0 l 1,19,-1
 609 0 l 1,13,-1
590 1732 m 1,20,-1
 842 1732 l 1,21,-1
 1096 1472 l 1,22,-1
 1020 1393 l 1,23,-1
 717 1552 l 1,24,-1
 411 1393 l 1,25,-1
 334 1473 l 1,26,-1
 590 1732 l 1,20,-1
EndSplineSet
EndChar

StartChar: ccircumflex
Encoding: 265 265 222
Width: 1323
GlyphClass: 2
Flags: W
LayerCount: 2
Fore
SplineSet
537 0 m 1,0,-1
 360 0 l 1,1,-1
 95 265 l 1,2,-1
 95 797 l 1,3,-1
 360 1062 l 1,4,-1
 537 1062 l 1,5,-1
 537 0 l 1,0,-1
607 797 m 1,6,-1
 607 1062 l 1,7,-1
 980 1062 l 1,8,-1
 1245 797 l 1,9,-1
 1245 638 l 1,10,-1
 803 638 l 1,11,-1
 803 797 l 1,12,-1
 607 797 l 1,6,-1
607 0 m 1,13,-1
 607 248 l 1,14,-1
 803 248 l 1,15,-1
 803 381 l 1,16,-1
 1245 381 l 1,17,-1
 1245 265 l 1,18,-1
 980 0 l 1,19,-1
 607 0 l 1,13,-1
1127 1250 m 1,20,-1
 1034 1153 l 1,21,-1
 680 1363 l 1,22,-1
 327 1153 l 1,23,-1
 233 1250 l 1,24,-1
 528 1585 l 1,25,-1
 832 1585 l 1,26,-1
 1127 1250 l 1,20,-1
EndSplineSet
EndChar

StartChar: Cdotaccent
Encoding: 266 266 223
Width: 1440
GlyphClass: 2
Flags: W
LayerCount: 2
Fore
SplineSet
539 0 m 1,0,-1
 363 0 l 1,1,-1
 97 265 l 1,2,-1
 97 1062 l 1,3,-1
 363 1327 l 1,4,-1
 539 1327 l 1,5,-1
 539 0 l 1,0,-1
609 1062 m 1,6,-1
 609 1327 l 1,7,-1
 1080 1327 l 1,8,-1
 1345 1062 l 1,9,-1
 1345 795 l 1,10,-1
 903 795 l 1,11,-1
 903 1062 l 1,12,-1
 609 1062 l 1,6,-1
609 0 m 1,13,-1
 609 265 l 1,14,-1
 903 265 l 1,15,-1
 903 459 l 1,16,-1
 1345 459 l 1,17,-1
 1345 265 l 1,18,-1
 1080 0 l 1,19,-1
 609 0 l 1,13,-1
551 1682 m 1,20,-1
 887 1682 l 1,21,-1
 887 1461 l 1,22,-1
 551 1461 l 1,23,-1
 551 1682 l 1,20,-1
EndSplineSet
EndChar

StartChar: cdotaccent
Encoding: 267 267 224
Width: 1323
GlyphClass: 2
Flags: W
LayerCount: 2
Fore
SplineSet
537 0 m 1,0,-1
 360 0 l 1,1,-1
 95 265 l 1,2,-1
 95 797 l 1,3,-1
 360 1062 l 1,4,-1
 537 1062 l 1,5,-1
 537 0 l 1,0,-1
607 797 m 1,6,-1
 607 1062 l 1,7,-1
 980 1062 l 1,8,-1
 1245 797 l 1,9,-1
 1245 638 l 1,10,-1
 803 638 l 1,11,-1
 803 797 l 1,12,-1
 607 797 l 1,6,-1
607 0 m 1,13,-1
 607 248 l 1,14,-1
 803 248 l 1,15,-1
 803 381 l 1,16,-1
 1245 381 l 1,17,-1
 1245 265 l 1,18,-1
 980 0 l 1,19,-1
 607 0 l 1,13,-1
512 1560 m 1,20,-1
 848 1560 l 1,21,-1
 848 1279 l 1,22,-1
 512 1279 l 1,23,-1
 512 1560 l 1,20,-1
EndSplineSet
EndChar

StartChar: Ccaron
Encoding: 268 268 225
Width: 1440
GlyphClass: 2
Flags: W
LayerCount: 2
Fore
SplineSet
539 0 m 1,0,-1
 363 0 l 1,1,-1
 97 265 l 1,2,-1
 97 1062 l 1,3,-1
 363 1327 l 1,4,-1
 539 1327 l 1,5,-1
 539 0 l 1,0,-1
609 1062 m 1,6,-1
 609 1327 l 1,7,-1
 1080 1327 l 1,8,-1
 1345 1062 l 1,9,-1
 1345 795 l 1,10,-1
 903 795 l 1,11,-1
 903 1062 l 1,12,-1
 609 1062 l 1,6,-1
609 0 m 1,13,-1
 609 265 l 1,14,-1
 903 265 l 1,15,-1
 903 459 l 1,16,-1
 1345 459 l 1,17,-1
 1345 265 l 1,18,-1
 1080 0 l 1,19,-1
 609 0 l 1,13,-1
844 1393 m 1,20,-1
 592 1393 l 1,21,-1
 338 1654 l 1,22,-1
 415 1732 l 1,23,-1
 717 1574 l 1,24,-1
 1023 1732 l 1,25,-1
 1101 1653 l 1,26,-1
 844 1393 l 1,20,-1
EndSplineSet
EndChar

StartChar: ccaron
Encoding: 269 269 226
Width: 1323
GlyphClass: 2
Flags: W
LayerCount: 2
Fore
SplineSet
537 0 m 1,0,-1
 360 0 l 1,1,-1
 95 265 l 1,2,-1
 95 797 l 1,3,-1
 360 1062 l 1,4,-1
 537 1062 l 1,5,-1
 537 0 l 1,0,-1
607 797 m 1,6,-1
 607 1062 l 1,7,-1
 980 1062 l 1,8,-1
 1245 797 l 1,9,-1
 1245 638 l 1,10,-1
 803 638 l 1,11,-1
 803 797 l 1,12,-1
 607 797 l 1,6,-1
607 0 m 1,13,-1
 607 248 l 1,14,-1
 803 248 l 1,15,-1
 803 381 l 1,16,-1
 1245 381 l 1,17,-1
 1245 265 l 1,18,-1
 980 0 l 1,19,-1
 607 0 l 1,13,-1
241 1487 m 1,20,-1
 334 1584 l 1,21,-1
 687 1374 l 1,22,-1
 1041 1584 l 1,23,-1
 1135 1487 l 1,24,-1
 840 1153 l 1,25,-1
 536 1153 l 1,26,-1
 241 1487 l 1,20,-1
EndSplineSet
EndChar

StartChar: Dcaron
Encoding: 270 270 227
Width: 1486
GlyphClass: 2
Flags: W
LayerCount: 2
Fore
SplineSet
629 0 m 1,0,-1
 629 265 l 1,1,-1
 957 265 l 1,2,-1
 957 1062 l 1,3,-1
 629 1062 l 1,4,-1
 629 1327 l 1,5,-1
 1134 1327 l 1,6,-1
 1400 1062 l 1,7,-1
 1400 265 l 1,8,-1
 1134 0 l 1,9,-1
 629 0 l 1,0,-1
117 1327 m 1,10,-1
 559 1327 l 1,11,-1
 559 0 l 1,12,-1
 117 0 l 1,13,-1
 117 1327 l 1,10,-1
854 1393 m 1,14,-1
 602 1393 l 1,15,-1
 348 1654 l 1,16,-1
 425 1732 l 1,17,-1
 727 1574 l 1,18,-1
 1033 1732 l 1,19,-1
 1111 1653 l 1,20,-1
 854 1393 l 1,14,-1
EndSplineSet
EndChar

StartChar: dcaron
Encoding: 271 271 228
Width: 1823
GlyphClass: 2
Flags: W
LayerCount: 2
Fore
SplineSet
1262 1467 m 1,0,-1
 1262 0 l 1,1,-1
 820 0 l 1,2,-1
 820 1467 l 1,3,-1
 1262 1467 l 1,0,-1
537 248 m 1,4,-1
 750 248 l 1,5,-1
 750 105 l 1,6,-1
 645 0 l 1,7,-1
 334 0 l 1,8,-1
 95 239 l 1,9,-1
 95 823 l 1,10,-1
 334 1062 l 1,11,-1
 750 1062 l 1,12,-1
 750 797 l 1,13,-1
 537 797 l 1,14,-1
 537 248 l 1,4,-1
1379 1327 m 1,15,-1
 1765 1327 l 1,16,-1
 1765 1018 l 1,17,-1
 1668 752 l 1,18,-1
 1482 752 l 1,19,-1
 1506 1018 l 1,20,-1
 1379 1018 l 1,21,-1
 1379 1327 l 1,15,-1
EndSplineSet
EndChar

StartChar: Dcroat
Encoding: 272 272 229
Width: 1496
GlyphClass: 2
Flags: W
LayerCount: 2
Fore
SplineSet
629 0 m 1,0,-1
 629 265 l 1,1,-1
 957 265 l 1,2,-1
 957 1062 l 1,3,-1
 629 1062 l 1,4,-1
 629 1327 l 1,5,-1
 1134 1327 l 1,6,-1
 1400 1062 l 1,7,-1
 1400 265 l 1,8,-1
 1134 0 l 1,9,-1
 629 0 l 1,0,-1
29 757 m 1,10,-1
 117 757 l 1,11,-1
 117 1327 l 1,12,-1
 559 1327 l 1,13,-1
 559 757 l 1,14,-1
 774 757 l 1,15,-1
 774 570 l 1,16,-1
 559 570 l 1,17,-1
 559 0 l 1,18,-1
 117 0 l 1,19,-1
 117 570 l 1,20,-1
 29 570 l 1,21,-1
 29 757 l 1,10,-1
EndSplineSet
EndChar

StartChar: dcroat
Encoding: 273 273 230
Width: 1366
GlyphClass: 2
Flags: W
LayerCount: 2
Fore
SplineSet
1262 1467 m 1,0,-1
 1262 1358 l 1,1,-1
 1402 1358 l 1,2,-1
 1402 1179 l 1,3,-1
 1262 1179 l 1,4,-1
 1262 0 l 1,5,-1
 820 0 l 1,6,-1
 820 1179 l 1,7,-1
 631 1179 l 1,8,-1
 631 1358 l 1,9,-1
 820 1358 l 1,10,-1
 820 1467 l 1,11,-1
 1262 1467 l 1,0,-1
537 248 m 1,12,-1
 750 248 l 1,13,-1
 750 105 l 1,14,-1
 645 0 l 1,15,-1
 334 0 l 1,16,-1
 95 239 l 1,17,-1
 95 823 l 1,18,-1
 334 1062 l 1,19,-1
 750 1062 l 1,20,-1
 750 797 l 1,21,-1
 537 797 l 1,22,-1
 537 248 l 1,12,-1
EndSplineSet
EndChar

StartChar: Emacron
Encoding: 274 274 231
Width: 1415
GlyphClass: 2
Flags: W
LayerCount: 2
Fore
SplineSet
559 545 m 1,0,-1
 559 0 l 1,1,-1
 117 0 l 1,2,-1
 117 1327 l 1,3,-1
 559 1327 l 1,4,-1
 559 801 l 1,5,-1
 982 801 l 1,6,-1
 982 545 l 1,7,-1
 559 545 l 1,0,-1
629 1070 m 1,8,-1
 629 1327 l 1,9,-1
 1320 1327 l 1,10,-1
 1320 943 l 1,11,-1
 904 943 l 1,12,-1
 904 1070 l 1,13,-1
 629 1070 l 1,8,-1
629 0 m 1,14,-1
 629 265 l 1,15,-1
 878 265 l 1,16,-1
 878 398 l 1,17,-1
 1320 398 l 1,18,-1
 1320 0 l 1,19,-1
 629 0 l 1,14,-1
372 1651 m 1,20,-1
 1101 1651 l 1,21,-1
 1101 1481 l 1,22,-1
 372 1481 l 1,23,-1
 372 1651 l 1,20,-1
EndSplineSet
EndChar

StartChar: emacron
Encoding: 275 275 232
Width: 1331
GlyphClass: 2
Flags: W
LayerCount: 2
Fore
SplineSet
537 0 m 1,0,-1
 360 0 l 1,1,-1
 95 265 l 1,2,-1
 95 797 l 1,3,-1
 360 1062 l 1,4,-1
 537 1062 l 1,5,-1
 537 0 l 1,0,-1
607 426 m 1,6,-1
 607 611 l 1,7,-1
 840 611 l 1,8,-1
 840 797 l 1,9,-1
 607 797 l 1,10,-1
 607 1062 l 1,11,-1
 982 1062 l 1,12,-1
 1247 797 l 1,13,-1
 1247 426 l 1,14,-1
 607 426 l 1,6,-1
607 0 m 1,15,-1
 607 248 l 1,16,-1
 1201 248 l 1,17,-1
 1201 133 l 1,18,-1
 1069 0 l 1,19,-1
 607 0 l 1,15,-1
304 1393 m 1,20,-1
 1033 1393 l 1,21,-1
 1033 1223 l 1,22,-1
 304 1223 l 1,23,-1
 304 1393 l 1,20,-1
EndSplineSet
EndChar

StartChar: Ebreve
Encoding: 276 276 233
Width: 1415
GlyphClass: 2
Flags: W
LayerCount: 2
Fore
SplineSet
559 545 m 1,0,-1
 559 0 l 1,1,-1
 117 0 l 1,2,-1
 117 1327 l 1,3,-1
 559 1327 l 1,4,-1
 559 801 l 1,5,-1
 982 801 l 1,6,-1
 982 545 l 1,7,-1
 559 545 l 1,0,-1
629 1070 m 1,8,-1
 629 1327 l 1,9,-1
 1320 1327 l 1,10,-1
 1320 943 l 1,11,-1
 904 943 l 1,12,-1
 904 1070 l 1,13,-1
 629 1070 l 1,8,-1
629 0 m 1,14,-1
 629 265 l 1,15,-1
 878 265 l 1,16,-1
 878 398 l 1,17,-1
 1320 398 l 1,18,-1
 1320 0 l 1,19,-1
 629 0 l 1,14,-1
363 1717 m 1,20,-1
 501 1756 l 1,21,-1
 573 1604 l 1,22,-1
 878 1604 l 1,23,-1
 950 1756 l 1,24,-1
 1088 1717 l 1,25,-1
 1052 1536 l 1,26,-1
 906 1392 l 1,27,-1
 545 1392 l 1,28,-1
 399 1536 l 1,29,-1
 363 1717 l 1,20,-1
EndSplineSet
EndChar

StartChar: ebreve
Encoding: 277 277 234
Width: 1331
GlyphClass: 2
Flags: W
LayerCount: 2
Fore
SplineSet
537 0 m 1,0,-1
 360 0 l 1,1,-1
 95 265 l 1,2,-1
 95 797 l 1,3,-1
 360 1062 l 1,4,-1
 537 1062 l 1,5,-1
 537 0 l 1,0,-1
607 426 m 1,6,-1
 607 611 l 1,7,-1
 840 611 l 1,8,-1
 840 797 l 1,9,-1
 607 797 l 1,10,-1
 607 1062 l 1,11,-1
 982 1062 l 1,12,-1
 1247 797 l 1,13,-1
 1247 426 l 1,14,-1
 607 426 l 1,6,-1
607 0 m 1,15,-1
 607 248 l 1,16,-1
 1201 248 l 1,17,-1
 1201 133 l 1,18,-1
 1069 0 l 1,19,-1
 607 0 l 1,15,-1
285 1530 m 1,20,-1
 423 1569 l 1,21,-1
 505 1387 l 1,22,-1
 830 1387 l 1,23,-1
 912 1569 l 1,24,-1
 1050 1530 l 1,25,-1
 994 1299 l 1,26,-1
 848 1155 l 1,27,-1
 487 1155 l 1,28,-1
 341 1299 l 1,29,-1
 285 1530 l 1,20,-1
EndSplineSet
EndChar

StartChar: Edotaccent
Encoding: 278 278 235
Width: 1415
GlyphClass: 2
Flags: W
LayerCount: 2
Fore
SplineSet
559 545 m 1,0,-1
 559 0 l 1,1,-1
 117 0 l 1,2,-1
 117 1327 l 1,3,-1
 559 1327 l 1,4,-1
 559 801 l 1,5,-1
 982 801 l 1,6,-1
 982 545 l 1,7,-1
 559 545 l 1,0,-1
629 1070 m 1,8,-1
 629 1327 l 1,9,-1
 1320 1327 l 1,10,-1
 1320 943 l 1,11,-1
 904 943 l 1,12,-1
 904 1070 l 1,13,-1
 629 1070 l 1,8,-1
629 0 m 1,14,-1
 629 265 l 1,15,-1
 878 265 l 1,16,-1
 878 398 l 1,17,-1
 1320 398 l 1,18,-1
 1320 0 l 1,19,-1
 629 0 l 1,14,-1
569 1682 m 1,20,-1
 905 1682 l 1,21,-1
 905 1461 l 1,22,-1
 569 1461 l 1,23,-1
 569 1682 l 1,20,-1
EndSplineSet
EndChar

StartChar: edotaccent
Encoding: 279 279 236
Width: 1331
GlyphClass: 2
Flags: W
LayerCount: 2
Fore
SplineSet
537 0 m 1,0,-1
 360 0 l 1,1,-1
 95 265 l 1,2,-1
 95 797 l 1,3,-1
 360 1062 l 1,4,-1
 537 1062 l 1,5,-1
 537 0 l 1,0,-1
607 426 m 1,6,-1
 607 611 l 1,7,-1
 840 611 l 1,8,-1
 840 797 l 1,9,-1
 607 797 l 1,10,-1
 607 1062 l 1,11,-1
 982 1062 l 1,12,-1
 1247 797 l 1,13,-1
 1247 426 l 1,14,-1
 607 426 l 1,6,-1
607 0 m 1,15,-1
 607 248 l 1,16,-1
 1201 248 l 1,17,-1
 1201 133 l 1,18,-1
 1069 0 l 1,19,-1
 607 0 l 1,15,-1
500 1560 m 1,20,-1
 836 1560 l 1,21,-1
 836 1279 l 1,22,-1
 500 1279 l 1,23,-1
 500 1560 l 1,20,-1
EndSplineSet
EndChar

StartChar: Eogonek
Encoding: 280 280 237
Width: 1415
GlyphClass: 2
Flags: W
LayerCount: 2
Fore
SplineSet
559 545 m 1,0,-1
 559 0 l 1,1,-1
 117 0 l 1,2,-1
 117 1327 l 1,3,-1
 559 1327 l 1,4,-1
 559 801 l 1,5,-1
 982 801 l 1,6,-1
 982 545 l 1,7,-1
 559 545 l 1,0,-1
629 1070 m 1,8,-1
 629 1327 l 1,9,-1
 1320 1327 l 1,10,-1
 1320 943 l 1,11,-1
 904 943 l 1,12,-1
 904 1070 l 1,13,-1
 629 1070 l 1,8,-1
629 0 m 1,14,-1
 629 265 l 1,15,-1
 878 265 l 1,16,-1
 878 398 l 1,17,-1
 1320 398 l 1,18,-1
 1320 0 l 1,19,-1
 629 0 l 1,14,-1
1320 -175 m 1,20,-1
 1320 -445 l 1,21,-1
 1038 -445 l 1,22,-1
 863 -245 l 1,23,-1
 863 -62 l 1,24,-1
 1065 -62 l 1,25,-1
 1065 -175 l 1,26,-1
 1320 -175 l 1,20,-1
EndSplineSet
EndChar

StartChar: eogonek
Encoding: 281 281 238
Width: 1331
GlyphClass: 2
Flags: W
LayerCount: 2
Fore
SplineSet
537 0 m 1,0,-1
 360 0 l 1,1,-1
 95 265 l 1,2,-1
 95 797 l 1,3,-1
 360 1062 l 1,4,-1
 537 1062 l 1,5,-1
 537 0 l 1,0,-1
607 426 m 1,6,-1
 607 611 l 1,7,-1
 840 611 l 1,8,-1
 840 797 l 1,9,-1
 607 797 l 1,10,-1
 607 1062 l 1,11,-1
 982 1062 l 1,12,-1
 1247 797 l 1,13,-1
 1247 426 l 1,14,-1
 607 426 l 1,6,-1
607 0 m 1,15,-1
 607 248 l 1,16,-1
 1201 248 l 1,17,-1
 1201 133 l 1,18,-1
 1069 0 l 1,19,-1
 607 0 l 1,15,-1
1245 -175 m 1,20,-1
 1245 -445 l 1,21,-1
 963 -445 l 1,22,-1
 788 -245 l 1,23,-1
 788 -62 l 1,24,-1
 990 -62 l 1,25,-1
 990 -175 l 1,26,-1
 1245 -175 l 1,20,-1
EndSplineSet
EndChar

StartChar: Ecaron
Encoding: 282 282 239
Width: 1415
GlyphClass: 2
Flags: W
LayerCount: 2
Fore
SplineSet
559 545 m 1,0,-1
 559 0 l 1,1,-1
 117 0 l 1,2,-1
 117 1327 l 1,3,-1
 559 1327 l 1,4,-1
 559 801 l 1,5,-1
 982 801 l 1,6,-1
 982 545 l 1,7,-1
 559 545 l 1,0,-1
629 1070 m 1,8,-1
 629 1327 l 1,9,-1
 1320 1327 l 1,10,-1
 1320 943 l 1,11,-1
 904 943 l 1,12,-1
 904 1070 l 1,13,-1
 629 1070 l 1,8,-1
629 0 m 1,14,-1
 629 265 l 1,15,-1
 878 265 l 1,16,-1
 878 398 l 1,17,-1
 1320 398 l 1,18,-1
 1320 0 l 1,19,-1
 629 0 l 1,14,-1
862 1393 m 1,20,-1
 610 1393 l 1,21,-1
 356 1654 l 1,22,-1
 433 1732 l 1,23,-1
 735 1574 l 1,24,-1
 1041 1732 l 1,25,-1
 1119 1653 l 1,26,-1
 862 1393 l 1,20,-1
EndSplineSet
EndChar

StartChar: ecaron
Encoding: 283 283 240
Width: 1331
GlyphClass: 2
Flags: W
LayerCount: 2
Fore
SplineSet
537 0 m 1,0,-1
 360 0 l 1,1,-1
 95 265 l 1,2,-1
 95 797 l 1,3,-1
 360 1062 l 1,4,-1
 537 1062 l 1,5,-1
 537 0 l 1,0,-1
607 426 m 1,6,-1
 607 611 l 1,7,-1
 840 611 l 1,8,-1
 840 797 l 1,9,-1
 607 797 l 1,10,-1
 607 1062 l 1,11,-1
 982 1062 l 1,12,-1
 1247 797 l 1,13,-1
 1247 426 l 1,14,-1
 607 426 l 1,6,-1
607 0 m 1,15,-1
 607 248 l 1,16,-1
 1201 248 l 1,17,-1
 1201 133 l 1,18,-1
 1069 0 l 1,19,-1
 607 0 l 1,15,-1
229 1487 m 1,20,-1
 322 1584 l 1,21,-1
 675 1374 l 1,22,-1
 1029 1584 l 1,23,-1
 1123 1487 l 1,24,-1
 828 1153 l 1,25,-1
 524 1153 l 1,26,-1
 229 1487 l 1,20,-1
EndSplineSet
EndChar

StartChar: Gcircumflex
Encoding: 284 284 241
Width: 1495
GlyphClass: 2
Flags: W
LayerCount: 2
Fore
SplineSet
557 265 m 1,0,-1
 936 265 l 1,1,-1
 936 0 l 1,2,-1
 380 0 l 1,3,-1
 115 265 l 1,4,-1
 115 1062 l 1,5,-1
 380 1327 l 1,6,-1
 557 1327 l 1,7,-1
 557 265 l 1,0,-1
791 736 m 1,8,-1
 1398 736 l 1,9,-1
 1398 0 l 1,10,-1
 1006 0 l 1,11,-1
 1006 473 l 1,12,-1
 791 473 l 1,13,-1
 791 736 l 1,8,-1
627 1062 m 1,14,-1
 627 1327 l 1,15,-1
 1166 1327 l 1,16,-1
 1398 1062 l 1,17,-1
 1398 929 l 1,18,-1
 956 929 l 1,19,-1
 956 1062 l 1,20,-1
 627 1062 l 1,14,-1
664 1732 m 1,21,-1
 916 1732 l 1,22,-1
 1170 1472 l 1,23,-1
 1094 1393 l 1,24,-1
 791 1552 l 1,25,-1
 485 1393 l 1,26,-1
 408 1473 l 1,27,-1
 664 1732 l 1,21,-1
EndSplineSet
EndChar

StartChar: gcircumflex
Encoding: 285 285 242
Width: 1340
GlyphClass: 2
Flags: W
LayerCount: 2
Fore
SplineSet
803 797 m 1,0,-1
 607 797 l 1,1,-1
 607 1062 l 1,2,-1
 980 1062 l 1,3,-1
 1245 797 l 1,4,-1
 1245 -105 l 1,5,-1
 980 -372 l 1,6,-1
 397 -372 l 1,7,-1
 264 -238 l 1,8,-1
 264 -140 l 1,9,-1
 803 -140 l 1,10,-1
 803 797 l 1,0,-1
733 248 m 1,11,-1
 733 131 l 1,12,-1
 601 0 l 1,13,-1
 360 0 l 1,14,-1
 95 265 l 1,15,-1
 95 797 l 1,16,-1
 360 1062 l 1,17,-1
 537 1062 l 1,18,-1
 537 248 l 1,19,-1
 733 248 l 1,11,-1
1146 1250 m 1,20,-1
 1053 1153 l 1,21,-1
 699 1363 l 1,22,-1
 346 1153 l 1,23,-1
 252 1250 l 1,24,-1
 547 1585 l 1,25,-1
 851 1585 l 1,26,-1
 1146 1250 l 1,20,-1
EndSplineSet
EndChar

StartChar: Gbreve
Encoding: 286 286 243
Width: 1495
GlyphClass: 2
Flags: W
LayerCount: 2
Fore
SplineSet
557 265 m 1,0,-1
 936 265 l 1,1,-1
 936 0 l 1,2,-1
 380 0 l 1,3,-1
 115 265 l 1,4,-1
 115 1062 l 1,5,-1
 380 1327 l 1,6,-1
 557 1327 l 1,7,-1
 557 265 l 1,0,-1
791 736 m 1,8,-1
 1398 736 l 1,9,-1
 1398 0 l 1,10,-1
 1006 0 l 1,11,-1
 1006 473 l 1,12,-1
 791 473 l 1,13,-1
 791 736 l 1,8,-1
627 1062 m 1,14,-1
 627 1327 l 1,15,-1
 1166 1327 l 1,16,-1
 1398 1062 l 1,17,-1
 1398 929 l 1,18,-1
 956 929 l 1,19,-1
 956 1062 l 1,20,-1
 627 1062 l 1,14,-1
419 1717 m 1,21,-1
 557 1756 l 1,22,-1
 629 1604 l 1,23,-1
 934 1604 l 1,24,-1
 1006 1756 l 1,25,-1
 1144 1717 l 1,26,-1
 1108 1536 l 1,27,-1
 962 1392 l 1,28,-1
 601 1392 l 1,29,-1
 455 1536 l 1,30,-1
 419 1717 l 1,21,-1
EndSplineSet
EndChar

StartChar: gbreve
Encoding: 287 287 244
Width: 1340
GlyphClass: 2
Flags: W
LayerCount: 2
Fore
SplineSet
803 797 m 1,0,-1
 607 797 l 1,1,-1
 607 1062 l 1,2,-1
 980 1062 l 1,3,-1
 1245 797 l 1,4,-1
 1245 -105 l 1,5,-1
 980 -372 l 1,6,-1
 397 -372 l 1,7,-1
 264 -238 l 1,8,-1
 264 -140 l 1,9,-1
 803 -140 l 1,10,-1
 803 797 l 1,0,-1
733 248 m 1,11,-1
 733 131 l 1,12,-1
 601 0 l 1,13,-1
 360 0 l 1,14,-1
 95 265 l 1,15,-1
 95 797 l 1,16,-1
 360 1062 l 1,17,-1
 537 1062 l 1,18,-1
 537 248 l 1,19,-1
 733 248 l 1,11,-1
316 1530 m 1,20,-1
 454 1569 l 1,21,-1
 536 1387 l 1,22,-1
 861 1387 l 1,23,-1
 943 1569 l 1,24,-1
 1081 1530 l 1,25,-1
 1025 1299 l 1,26,-1
 879 1155 l 1,27,-1
 518 1155 l 1,28,-1
 372 1299 l 1,29,-1
 316 1530 l 1,20,-1
EndSplineSet
EndChar

StartChar: Gdotaccent
Encoding: 288 288 245
Width: 1495
GlyphClass: 2
Flags: W
LayerCount: 2
Fore
SplineSet
557 265 m 1,0,-1
 936 265 l 1,1,-1
 936 0 l 1,2,-1
 380 0 l 1,3,-1
 115 265 l 1,4,-1
 115 1062 l 1,5,-1
 380 1327 l 1,6,-1
 557 1327 l 1,7,-1
 557 265 l 1,0,-1
791 736 m 1,8,-1
 1398 736 l 1,9,-1
 1398 0 l 1,10,-1
 1006 0 l 1,11,-1
 1006 473 l 1,12,-1
 791 473 l 1,13,-1
 791 736 l 1,8,-1
627 1062 m 1,14,-1
 627 1327 l 1,15,-1
 1166 1327 l 1,16,-1
 1398 1062 l 1,17,-1
 1398 929 l 1,18,-1
 956 929 l 1,19,-1
 956 1062 l 1,20,-1
 627 1062 l 1,14,-1
625 1682 m 1,21,-1
 961 1682 l 1,22,-1
 961 1461 l 1,23,-1
 625 1461 l 1,24,-1
 625 1682 l 1,21,-1
EndSplineSet
EndChar

StartChar: gdotaccent
Encoding: 289 289 246
Width: 1340
GlyphClass: 2
Flags: W
LayerCount: 2
Fore
SplineSet
803 797 m 1,0,-1
 607 797 l 1,1,-1
 607 1062 l 1,2,-1
 980 1062 l 1,3,-1
 1245 797 l 1,4,-1
 1245 -105 l 1,5,-1
 980 -372 l 1,6,-1
 397 -372 l 1,7,-1
 264 -238 l 1,8,-1
 264 -140 l 1,9,-1
 803 -140 l 1,10,-1
 803 797 l 1,0,-1
733 248 m 1,11,-1
 733 131 l 1,12,-1
 601 0 l 1,13,-1
 360 0 l 1,14,-1
 95 265 l 1,15,-1
 95 797 l 1,16,-1
 360 1062 l 1,17,-1
 537 1062 l 1,18,-1
 537 248 l 1,19,-1
 733 248 l 1,11,-1
531 1560 m 1,20,-1
 867 1560 l 1,21,-1
 867 1279 l 1,22,-1
 531 1279 l 1,23,-1
 531 1560 l 1,20,-1
EndSplineSet
EndChar

StartChar: Gcommaaccent
Encoding: 290 290 247
Width: 1495
GlyphClass: 2
Flags: W
LayerCount: 2
Fore
SplineSet
557 265 m 1,0,-1
 936 265 l 1,1,-1
 936 0 l 1,2,-1
 380 0 l 1,3,-1
 115 265 l 1,4,-1
 115 1062 l 1,5,-1
 380 1327 l 1,6,-1
 557 1327 l 1,7,-1
 557 265 l 1,0,-1
791 736 m 1,8,-1
 1398 736 l 1,9,-1
 1398 0 l 1,10,-1
 1006 0 l 1,11,-1
 1006 473 l 1,12,-1
 791 473 l 1,13,-1
 791 736 l 1,8,-1
627 1062 m 1,14,-1
 627 1327 l 1,15,-1
 1166 1327 l 1,16,-1
 1398 1062 l 1,17,-1
 1398 929 l 1,18,-1
 956 929 l 1,19,-1
 956 1062 l 1,20,-1
 627 1062 l 1,14,-1
526 -169 m 1,21,-1
 968 -169 l 1,22,-1
 968 -416 l 1,23,-1
 801 -689 l 1,24,-1
 623 -689 l 1,25,-1
 684 -461 l 1,26,-1
 526 -461 l 1,27,-1
 526 -169 l 1,21,-1
EndSplineSet
EndChar

StartChar: gcommaaccent
Encoding: 291 291 248
Width: 1340
GlyphClass: 2
Flags: W
LayerCount: 2
Fore
SplineSet
803 797 m 1,0,-1
 607 797 l 1,1,-1
 607 1062 l 1,2,-1
 980 1062 l 1,3,-1
 1245 797 l 1,4,-1
 1245 -105 l 1,5,-1
 980 -372 l 1,6,-1
 397 -372 l 1,7,-1
 264 -238 l 1,8,-1
 264 -140 l 1,9,-1
 803 -140 l 1,10,-1
 803 797 l 1,0,-1
733 248 m 1,11,-1
 733 131 l 1,12,-1
 601 0 l 1,13,-1
 360 0 l 1,14,-1
 95 265 l 1,15,-1
 95 797 l 1,16,-1
 360 1062 l 1,17,-1
 537 1062 l 1,18,-1
 537 248 l 1,19,-1
 733 248 l 1,11,-1
891 1272 m 1,20,-1
 449 1272 l 1,21,-1
 449 1519 l 1,22,-1
 616 1792 l 1,23,-1
 794 1792 l 1,24,-1
 733 1564 l 1,25,-1
 891 1564 l 1,26,-1
 891 1272 l 1,20,-1
EndSplineSet
EndChar

StartChar: Hcircumflex
Encoding: 292 292 249
Width: 1516
GlyphClass: 2
Flags: W
LayerCount: 2
Fore
SplineSet
954 1327 m 1,0,-1
 1400 1327 l 1,1,-1
 1400 0 l 1,2,-1
 957 0 l 1,3,-1
 957 539 l 1,4,-1
 629 539 l 1,5,-1
 629 805 l 1,6,-1
 954 805 l 1,7,-1
 954 1327 l 1,0,-1
559 0 m 1,8,-1
 117 0 l 1,9,-1
 117 1327 l 1,10,-1
 559 1327 l 1,11,-1
 559 0 l 1,8,-1
632 1732 m 1,12,-1
 884 1732 l 1,13,-1
 1138 1472 l 1,14,-1
 1062 1393 l 1,15,-1
 759 1552 l 1,16,-1
 453 1393 l 1,17,-1
 376 1473 l 1,18,-1
 632 1732 l 1,12,-1
EndSplineSet
EndChar

StartChar: hcircumflex
Encoding: 293 293 250
Width: 1349
GlyphClass: 2
Flags: W
LayerCount: 2
Fore
SplineSet
104 1467 m 1,0,-1
 546 1467 l 1,1,-1
 546 0 l 1,2,-1
 104 0 l 1,3,-1
 104 1467 l 1,0,-1
811 797 m 1,4,-1
 616 797 l 1,5,-1
 616 931 l 1,6,-1
 746 1062 l 1,7,-1
 988 1062 l 1,8,-1
 1254 797 l 1,9,-1
 1254 0 l 1,10,-1
 811 0 l 1,11,-1
 811 797 l 1,4,-1
549 1731 m 1,12,-1
 801 1731 l 1,13,-1
 1055 1471 l 1,14,-1
 979 1392 l 1,15,-1
 676 1551 l 1,16,-1
 370 1392 l 1,17,-1
 293 1472 l 1,18,-1
 549 1731 l 1,12,-1
EndSplineSet
EndChar

StartChar: Hbar
Encoding: 294 294 251
Width: 1516
GlyphClass: 2
Flags: W
LayerCount: 2
Fore
SplineSet
629 1144 m 1,0,-1
 954 1144 l 1,1,-1
 954 1327 l 1,2,-1
 1400 1327 l 1,3,-1
 1400 1144 l 1,4,-1
 1516 1144 l 1,5,-1
 1516 955 l 1,6,-1
 1400 955 l 1,7,-1
 1400 0 l 1,8,-1
 957 0 l 1,9,-1
 957 539 l 1,10,-1
 629 539 l 1,11,-1
 629 805 l 1,12,-1
 954 805 l 1,13,-1
 954 955 l 1,14,-1
 629 955 l 1,15,-1
 629 1144 l 1,0,-1
0 1144 m 1,16,-1
 117 1144 l 1,17,-1
 117 1327 l 1,18,-1
 559 1327 l 1,19,-1
 559 0 l 1,20,-1
 117 0 l 1,21,-1
 117 955 l 1,22,-1
 0 955 l 1,23,-1
 0 1144 l 1,16,-1
EndSplineSet
EndChar

StartChar: hbar
Encoding: 295 295 252
Width: 1349
GlyphClass: 2
Flags: W
LayerCount: 2
Fore
SplineSet
104 1150 m 1,0,-1
 -36 1150 l 1,1,-1
 -36 1327 l 1,2,-1
 104 1327 l 1,3,-1
 104 1460 l 1,4,-1
 546 1460 l 1,5,-1
 546 1327 l 1,6,-1
 849 1327 l 1,7,-1
 849 1150 l 1,8,-1
 546 1150 l 1,9,-1
 546 0 l 1,10,-1
 104 0 l 1,11,-1
 104 1150 l 1,0,-1
811 797 m 1,12,-1
 613 797 l 1,13,-1
 613 931 l 1,14,-1
 744 1062 l 1,15,-1
 988 1062 l 1,16,-1
 1254 797 l 1,17,-1
 1254 0 l 1,18,-1
 811 0 l 1,19,-1
 811 797 l 1,12,-1
EndSplineSet
EndChar

StartChar: Itilde
Encoding: 296 296 253
Width: 902
GlyphClass: 2
Flags: W
LayerCount: 2
Fore
SplineSet
97 283 m 1,0,-1
 230 283 l 1,1,-1
 230 1045 l 1,2,-1
 97 1045 l 1,3,-1
 97 1327 l 1,4,-1
 805 1327 l 1,5,-1
 805 1045 l 1,6,-1
 672 1045 l 1,7,-1
 672 283 l 1,8,-1
 805 283 l 1,9,-1
 805 0 l 1,10,-1
 97 0 l 1,11,-1
 97 283 l 1,0,-1
637 1609 m 1,12,-1
 818 1716 l 1,13,-1
 882 1638 l 1,14,-1
 675 1424 l 1,15,-1
 470 1424 l 1,16,-1
 310 1540 l 1,17,-1
 269 1540 l 1,18,-1
 88 1434 l 1,19,-1
 24 1512 l 1,20,-1
 231 1726 l 1,21,-1
 436 1726 l 1,22,-1
 596 1609 l 1,23,-1
 637 1609 l 1,12,-1
EndSplineSet
EndChar

StartChar: itilde
Encoding: 297 297 254
Width: 653
GlyphClass: 2
Flags: W
LayerCount: 2
Fore
SplineSet
105 1062 m 1,0,-1
 548 1062 l 1,1,-1
 548 0 l 1,2,-1
 105 0 l 1,3,-1
 105 1062 l 1,0,-1
368 1558 m 1,4,-1
 476 1407 l 1,5,-1
 543 1407 l 1,6,-1
 681 1522 l 1,7,-1
 768 1435 l 1,8,-1
 573 1221 l 1,9,-1
 290 1221 l 1,10,-1
 182 1371 l 1,11,-1
 115 1371 l 1,12,-1
 -23 1257 l 1,13,-1
 -110 1344 l 1,14,-1
 85 1558 l 1,15,-1
 368 1558 l 1,4,-1
EndSplineSet
EndChar

StartChar: Imacron
Encoding: 298 298 255
Width: 902
GlyphClass: 2
Flags: W
LayerCount: 2
Fore
SplineSet
97 283 m 1,0,-1
 230 283 l 1,1,-1
 230 1045 l 1,2,-1
 97 1045 l 1,3,-1
 97 1327 l 1,4,-1
 805 1327 l 1,5,-1
 805 1045 l 1,6,-1
 672 1045 l 1,7,-1
 672 283 l 1,8,-1
 805 283 l 1,9,-1
 805 0 l 1,10,-1
 97 0 l 1,11,-1
 97 283 l 1,0,-1
89 1650 m 1,12,-1
 818 1650 l 1,13,-1
 818 1480 l 1,14,-1
 89 1480 l 1,15,-1
 89 1650 l 1,12,-1
EndSplineSet
EndChar

StartChar: imacron
Encoding: 299 299 256
Width: 653
GlyphClass: 2
Flags: W
LayerCount: 2
Fore
SplineSet
105 1062 m 1,0,-1
 548 1062 l 1,1,-1
 548 0 l 1,2,-1
 105 0 l 1,3,-1
 105 1062 l 1,0,-1
-36 1393 m 1,4,-1
 693 1393 l 1,5,-1
 693 1223 l 1,6,-1
 -36 1223 l 1,7,-1
 -36 1393 l 1,4,-1
EndSplineSet
EndChar

StartChar: Ibreve
Encoding: 300 300 257
Width: 902
GlyphClass: 2
Flags: W
LayerCount: 2
Fore
SplineSet
97 283 m 1,0,-1
 230 283 l 1,1,-1
 230 1045 l 1,2,-1
 97 1045 l 1,3,-1
 97 1327 l 1,4,-1
 805 1327 l 1,5,-1
 805 1045 l 1,6,-1
 672 1045 l 1,7,-1
 672 283 l 1,8,-1
 805 283 l 1,9,-1
 805 0 l 1,10,-1
 97 0 l 1,11,-1
 97 283 l 1,0,-1
80 1716 m 1,12,-1
 218 1755 l 1,13,-1
 290 1603 l 1,14,-1
 595 1603 l 1,15,-1
 667 1755 l 1,16,-1
 805 1716 l 1,17,-1
 769 1535 l 1,18,-1
 623 1391 l 1,19,-1
 262 1391 l 1,20,-1
 116 1535 l 1,21,-1
 80 1716 l 1,12,-1
EndSplineSet
EndChar

StartChar: ibreve
Encoding: 301 301 258
Width: 653
GlyphClass: 2
Flags: W
LayerCount: 2
Fore
SplineSet
105 1062 m 1,0,-1
 548 1062 l 1,1,-1
 548 0 l 1,2,-1
 105 0 l 1,3,-1
 105 1062 l 1,0,-1
-55 1530 m 1,4,-1
 83 1569 l 1,5,-1
 165 1387 l 1,6,-1
 490 1387 l 1,7,-1
 572 1569 l 1,8,-1
 710 1530 l 1,9,-1
 654 1299 l 1,10,-1
 508 1155 l 1,11,-1
 147 1155 l 1,12,-1
 1 1299 l 1,13,-1
 -55 1530 l 1,4,-1
EndSplineSet
EndChar

StartChar: Iogonek
Encoding: 302 302 259
Width: 902
GlyphClass: 2
Flags: W
LayerCount: 2
Fore
SplineSet
97 283 m 1,0,-1
 230 283 l 1,1,-1
 230 1045 l 1,2,-1
 97 1045 l 1,3,-1
 97 1327 l 1,4,-1
 805 1327 l 1,5,-1
 805 1045 l 1,6,-1
 672 1045 l 1,7,-1
 672 283 l 1,8,-1
 805 283 l 1,9,-1
 805 0 l 1,10,-1
 97 0 l 1,11,-1
 97 283 l 1,0,-1
806 -175 m 1,12,-1
 806 -445 l 1,13,-1
 524 -445 l 1,14,-1
 349 -245 l 1,15,-1
 349 -62 l 1,16,-1
 551 -62 l 1,17,-1
 551 -175 l 1,18,-1
 806 -175 l 1,12,-1
EndSplineSet
EndChar

StartChar: iogonek
Encoding: 303 303 260
Width: 653
GlyphClass: 2
Flags: W
LayerCount: 2
Fore
SplineSet
105 1062 m 1,0,-1
 548 1062 l 1,1,-1
 548 0 l 1,2,-1
 105 0 l 1,3,-1
 105 1062 l 1,0,-1
105 1476 m 1,4,-1
 548 1476 l 1,5,-1
 548 1194 l 1,6,-1
 105 1194 l 1,7,-1
 105 1476 l 1,4,-1
549 -175 m 1,8,-1
 549 -445 l 1,9,-1
 267 -445 l 1,10,-1
 92 -245 l 1,11,-1
 92 -62 l 1,12,-1
 294 -62 l 1,13,-1
 294 -175 l 1,14,-1
 549 -175 l 1,8,-1
EndSplineSet
EndChar

StartChar: Idotaccent
Encoding: 304 304 261
Width: 902
GlyphClass: 2
Flags: W
LayerCount: 2
Fore
SplineSet
97 283 m 1,0,-1
 230 283 l 1,1,-1
 230 1045 l 1,2,-1
 97 1045 l 1,3,-1
 97 1327 l 1,4,-1
 805 1327 l 1,5,-1
 805 1045 l 1,6,-1
 672 1045 l 1,7,-1
 672 283 l 1,8,-1
 805 283 l 1,9,-1
 805 0 l 1,10,-1
 97 0 l 1,11,-1
 97 283 l 1,0,-1
285 1681 m 1,12,-1
 621 1681 l 1,13,-1
 621 1460 l 1,14,-1
 285 1460 l 1,15,-1
 285 1681 l 1,12,-1
EndSplineSet
EndChar

StartChar: dotlessi
Encoding: 305 305 262
Width: 653
GlyphClass: 2
Flags: W
LayerCount: 2
Fore
SplineSet
105 1062 m 1,0,-1
 548 1062 l 1,1,-1
 548 0 l 1,2,-1
 105 0 l 1,3,-1
 105 1062 l 1,0,-1
EndSplineSet
EndChar

StartChar: IJ
Encoding: 306 306 263
Width: 1468
GlyphClass: 2
Flags: W
LayerCount: 2
Fore
SplineSet
119 265 m 1,0,-1
 922 265 l 1,1,-1
 922 1327 l 1,2,-1
 1364 1327 l 1,3,-1
 1364 265 l 1,4,-1
 1099 0 l 1,5,-1
 117 0 l 1,6,-1
 119 265 l 1,0,-1
117 432 m 1,7,-1
 117 1327 l 1,8,-1
 576 1327 l 1,9,-1
 576 432 l 1,10,-1
 117 432 l 1,7,-1
EndSplineSet
EndChar

StartChar: ij
Encoding: 307 307 264
Width: 1336
GlyphClass: 2
Flags: W
LayerCount: 2
Fore
SplineSet
105 239 m 1,0,-1
 105 1062 l 1,1,-1
 548 1062 l 1,2,-1
 548 0 l 1,3,-1
 345 0 l 1,4,-1
 105 239 l 1,0,-1
105 1476 m 1,5,-1
 548 1476 l 1,6,-1
 548 1194 l 1,7,-1
 105 1194 l 1,8,-1
 105 1476 l 1,5,-1
107 -123 m 1,9,-1
 788 -123 l 1,10,-1
 788 1062 l 1,11,-1
 1230 1062 l 1,12,-1
 1230 -123 l 1,13,-1
 964 -389 l 1,14,-1
 107 -389 l 1,15,-1
 107 -123 l 1,9,-1
786 1476 m 1,16,-1
 1229 1476 l 1,17,-1
 1229 1194 l 1,18,-1
 786 1194 l 1,19,-1
 786 1476 l 1,16,-1
EndSplineSet
EndChar

StartChar: Jcircumflex
Encoding: 308 308 265
Width: 1369
GlyphClass: 2
Flags: W
LayerCount: 2
Fore
SplineSet
213 1327 m 1,0,-1
 1265 1327 l 1,1,-1
 1265 265 l 1,2,-1
 1000 0 l 1,3,-1
 823 0 l 1,4,-1
 823 1038 l 1,5,-1
 213 1038 l 1,6,-1
 213 1327 l 1,0,-1
511 265 m 1,7,-1
 753 265 l 1,8,-1
 753 0 l 1,9,-1
 318 0 l 1,10,-1
 52 265 l 1,11,-1
 52 556 l 1,12,-1
 511 556 l 1,13,-1
 511 265 l 1,7,-1
638 1731 m 1,14,-1
 890 1731 l 1,15,-1
 1144 1471 l 1,16,-1
 1068 1392 l 1,17,-1
 765 1551 l 1,18,-1
 459 1392 l 1,19,-1
 382 1472 l 1,20,-1
 638 1731 l 1,14,-1
EndSplineSet
EndChar

StartChar: jcircumflex
Encoding: 309 309 266
Width: 653
GlyphClass: 2
Flags: W
LayerCount: 2
Fore
SplineSet
-100 -88 m 1,0,-1
 105 -88 l 1,1,-1
 105 1062 l 1,2,-1
 548 1062 l 1,3,-1
 548 -88 l 1,4,-1
 282 -354 l 1,5,-1
 -100 -354 l 1,6,-1
 -100 -88 l 1,0,-1
775 1250 m 1,7,-1
 682 1153 l 1,8,-1
 328 1363 l 1,9,-1
 -25 1153 l 1,10,-1
 -119 1250 l 1,11,-1
 176 1585 l 1,12,-1
 480 1585 l 1,13,-1
 775 1250 l 1,7,-1
EndSplineSet
EndChar

StartChar: Kcommaaccent
Encoding: 310 310 267
Width: 1370
GlyphClass: 2
Flags: W
LayerCount: 2
Fore
SplineSet
117 0 m 1,0,-1
 117 1327 l 1,1,-1
 559 1327 l 1,2,-1
 559 0 l 1,3,-1
 117 0 l 1,0,-1
627 188 m 1,4,-1
 627 833 l 1,5,-1
 937 1326 l 1,6,-1
 1397 1327 l 1,7,-1
 627 188 l 1,4,-1
1418 0 m 1,8,-1
 940 0 l 1,9,-1
 790 309 l 1,10,-1
 1052 702 l 1,11,-1
 1418 0 l 1,8,-1
534 -169 m 1,12,-1
 976 -169 l 1,13,-1
 976 -416 l 1,14,-1
 809 -689 l 1,15,-1
 631 -689 l 1,16,-1
 692 -461 l 1,17,-1
 534 -461 l 1,18,-1
 534 -169 l 1,12,-1
EndSplineSet
EndChar

StartChar: kcommaaccent
Encoding: 311 311 268
Width: 1312
GlyphClass: 2
Flags: W
LayerCount: 2
Fore
SplineSet
546 0 m 1,0,-1
 104 0 l 1,1,-1
 104 1467 l 1,2,-1
 546 1467 l 1,3,-1
 546 0 l 1,0,-1
615 150 m 1,4,-1
 615 756 l 1,5,-1
 819 1060 l 1,6,-1
 1276 1061 l 1,7,-1
 615 150 l 1,4,-1
1299 0 m 1,8,-1
 819 0 l 1,9,-1
 746 214 l 1,10,-1
 1007 566 l 1,11,-1
 1299 0 l 1,8,-1
440 -168 m 1,12,-1
 882 -168 l 1,13,-1
 882 -415 l 1,14,-1
 715 -688 l 1,15,-1
 537 -688 l 1,16,-1
 598 -460 l 1,17,-1
 440 -460 l 1,18,-1
 440 -168 l 1,12,-1
EndSplineSet
EndChar

StartChar: kgreenlandic
Encoding: 312 312 269
Width: 1307
GlyphClass: 2
Flags: W
LayerCount: 2
Fore
SplineSet
546 0 m 1,0,-1
 104 0 l 1,1,-1
 104 1062 l 1,2,-1
 546 1062 l 1,3,-1
 546 0 l 1,0,-1
613 150 m 1,4,-1
 613 756 l 1,5,-1
 819 1062 l 1,6,-1
 1276 1061 l 1,7,-1
 613 150 l 1,4,-1
1299 0 m 1,8,-1
 819 0 l 1,9,-1
 745 214 l 1,10,-1
 1002 566 l 1,11,-1
 1299 0 l 1,8,-1
EndSplineSet
EndChar

StartChar: Lacute
Encoding: 313 313 270
Width: 1267
GlyphClass: 2
Flags: W
LayerCount: 2
Fore
SplineSet
117 0 m 1,0,-1
 117 1327 l 1,1,-1
 559 1327 l 1,2,-1
 559 0 l 1,3,-1
 117 0 l 1,0,-1
629 0 m 1,4,-1
 629 265 l 1,5,-1
 848 265 l 1,6,-1
 848 433 l 1,7,-1
 1249 433 l 1,8,-1
 1249 0 l 1,9,-1
 629 0 l 1,4,-1
1136 1598 m 1,10,-1
 1291 1520 l 1,11,-1
 1244 1351 l 1,12,-1
 741 1236 l 1,13,-1
 690 1358 l 1,14,-1
 1136 1598 l 1,10,-1
EndSplineSet
EndChar

StartChar: lacute
Encoding: 314 314 271
Width: 753
GlyphClass: 2
Flags: W
LayerCount: 2
Fore
SplineSet
744 0 m 1,0,-1
 352 0 l 1,1,-1
 104 248 l 1,2,-1
 104 1253 l 1,3,-1
 546 1253 l 1,4,-1
 546 265 l 1,5,-1
 744 265 l 1,6,-1
 744 0 l 1,0,-1
610 1693 m 1,7,-1
 765 1615 l 1,8,-1
 718 1446 l 1,9,-1
 215 1331 l 1,10,-1
 164 1453 l 1,11,-1
 610 1693 l 1,7,-1
EndSplineSet
EndChar

StartChar: Lcommaaccent
Encoding: 315 315 272
Width: 1267
GlyphClass: 2
Flags: W
LayerCount: 2
Fore
SplineSet
117 0 m 1,0,-1
 117 1327 l 1,1,-1
 559 1327 l 1,2,-1
 559 0 l 1,3,-1
 117 0 l 1,0,-1
629 0 m 1,4,-1
 629 265 l 1,5,-1
 848 265 l 1,6,-1
 848 433 l 1,7,-1
 1249 433 l 1,8,-1
 1249 0 l 1,9,-1
 629 0 l 1,4,-1
530 -169 m 1,10,-1
 972 -169 l 1,11,-1
 972 -416 l 1,12,-1
 805 -689 l 1,13,-1
 627 -689 l 1,14,-1
 688 -461 l 1,15,-1
 530 -461 l 1,16,-1
 530 -169 l 1,10,-1
EndSplineSet
EndChar

StartChar: lcommaaccent
Encoding: 316 316 273
Width: 753
GlyphClass: 2
Flags: W
LayerCount: 2
Fore
SplineSet
744 0 m 1,0,-1
 352 0 l 1,1,-1
 104 248 l 1,2,-1
 104 1467 l 1,3,-1
 546 1467 l 1,4,-1
 546 265 l 1,5,-1
 744 265 l 1,6,-1
 744 0 l 1,0,-1
129 -169 m 1,7,-1
 571 -169 l 1,8,-1
 571 -416 l 1,9,-1
 404 -689 l 1,10,-1
 226 -689 l 1,11,-1
 287 -461 l 1,12,-1
 129 -461 l 1,13,-1
 129 -169 l 1,7,-1
EndSplineSet
EndChar

StartChar: Lcaron
Encoding: 317 317 274
Width: 1267
GlyphClass: 2
Flags: W
LayerCount: 2
Fore
SplineSet
117 0 m 1,0,-1
 117 1327 l 1,1,-1
 559 1327 l 1,2,-1
 559 0 l 1,3,-1
 117 0 l 1,0,-1
629 0 m 1,4,-1
 629 265 l 1,5,-1
 848 265 l 1,6,-1
 848 433 l 1,7,-1
 1249 433 l 1,8,-1
 1249 0 l 1,9,-1
 629 0 l 1,4,-1
751 1327 m 1,10,-1
 1137 1327 l 1,11,-1
 1137 1018 l 1,12,-1
 1040 752 l 1,13,-1
 854 752 l 1,14,-1
 878 1018 l 1,15,-1
 751 1018 l 1,16,-1
 751 1327 l 1,10,-1
EndSplineSet
EndChar

StartChar: lcaron
Encoding: 318 318 275
Width: 1138
GlyphClass: 2
Flags: W
LayerCount: 2
Fore
SplineSet
744 0 m 1,0,-1
 352 0 l 1,1,-1
 104 248 l 1,2,-1
 104 1467 l 1,3,-1
 546 1467 l 1,4,-1
 546 265 l 1,5,-1
 744 265 l 1,6,-1
 744 0 l 1,0,-1
710 1327 m 1,7,-1
 1096 1327 l 1,8,-1
 1096 1018 l 1,9,-1
 999 752 l 1,10,-1
 813 752 l 1,11,-1
 837 1018 l 1,12,-1
 710 1018 l 1,13,-1
 710 1327 l 1,7,-1
EndSplineSet
EndChar

StartChar: Ldot
Encoding: 319 319 276
Width: 1265
GlyphClass: 2
Flags: W
LayerCount: 2
Fore
SplineSet
116 0 m 1,0,-1
 116 1327 l 1,1,-1
 558 1327 l 1,2,-1
 558 0 l 1,3,-1
 116 0 l 1,0,-1
628 0 m 1,4,-1
 628 265 l 1,5,-1
 847 265 l 1,6,-1
 847 433 l 1,7,-1
 1248 433 l 1,8,-1
 1248 0 l 1,9,-1
 628 0 l 1,4,-1
862 1071 m 1,10,-1
 1039 1071 l 1,11,-1
 1172 938 l 1,12,-1
 1172 761 l 1,13,-1
 1039 629 l 1,14,-1
 862 629 l 1,15,-1
 730 761 l 1,16,-1
 730 938 l 1,17,-1
 862 1071 l 1,10,-1
EndSplineSet
EndChar

StartChar: ldot
Encoding: 320 320 277
Width: 1096
GlyphClass: 2
Flags: W
LayerCount: 2
Fore
SplineSet
778 906 m 1,0,-1
 954 906 l 1,1,-1
 1087 773 l 1,2,-1
 1087 596 l 1,3,-1
 954 464 l 1,4,-1
 778 464 l 1,5,-1
 645 596 l 1,6,-1
 645 773 l 1,7,-1
 778 906 l 1,0,-1
744 0 m 1,8,-1
 352 0 l 1,9,-1
 104 248 l 1,10,-1
 104 1467 l 1,11,-1
 546 1467 l 1,12,-1
 546 265 l 1,13,-1
 744 265 l 1,14,-1
 744 0 l 1,8,-1
EndSplineSet
EndChar

StartChar: Lslash
Encoding: 321 321 278
Width: 1327
GlyphClass: 2
Flags: W
LayerCount: 2
Fore
SplineSet
177 0 m 1,0,-1
 177 444 l 1,1,-1
 61 396 l 1,2,-1
 -29 594 l 1,3,-1
 177 679 l 1,4,-1
 177 1327 l 1,5,-1
 619 1327 l 1,6,-1
 619 863 l 1,7,-1
 975 1011 l 1,8,-1
 1065 813 l 1,9,-1
 619 627 l 1,10,-1
 619 0 l 1,11,-1
 177 0 l 1,0,-1
689 0 m 1,12,-1
 689 265 l 1,13,-1
 908 265 l 1,14,-1
 908 433 l 1,15,-1
 1309 433 l 1,16,-1
 1309 0 l 1,17,-1
 689 0 l 1,12,-1
EndSplineSet
EndChar

StartChar: lslash
Encoding: 322 322 279
Width: 753
GlyphClass: 2
Flags: W
LayerCount: 2
Fore
SplineSet
-13 606 m 1,0,-1
 -13 783 l 1,1,-1
 727 1037 l 1,2,-1
 727 860 l 1,3,-1
 -13 606 l 1,0,-1
744 0 m 1,4,-1
 352 0 l 1,5,-1
 104 248 l 1,6,-1
 104 1467 l 1,7,-1
 546 1467 l 1,8,-1
 546 265 l 1,9,-1
 744 265 l 1,10,-1
 744 0 l 1,4,-1
EndSplineSet
EndChar

StartChar: Nacute
Encoding: 323 323 280
Width: 1508
GlyphClass: 2
Flags: W
LayerCount: 2
Fore
SplineSet
1391 0 m 1,0,-1
 921 0 l 1,1,-1
 117 1327 l 1,2,-1
 584 1327 l 1,3,-1
 1391 0 l 1,0,-1
117 0 m 1,4,-1
 117 1201 l 1,5,-1
 502 570 l 1,6,-1
 502 0 l 1,7,-1
 117 0 l 1,4,-1
1391 1327 m 1,8,-1
 1391 126 l 1,9,-1
 1006 760 l 1,10,-1
 1006 1327 l 1,11,-1
 1391 1327 l 1,8,-1
1030 1766 m 1,12,-1
 1185 1688 l 1,13,-1
 1138 1519 l 1,14,-1
 635 1404 l 1,15,-1
 584 1526 l 1,16,-1
 1030 1766 l 1,12,-1
EndSplineSet
EndChar

StartChar: nacute
Encoding: 324 324 281
Width: 1356
GlyphClass: 2
Flags: W
LayerCount: 2
Fore
SplineSet
104 0 m 1,0,-1
 104 1062 l 1,1,-1
 550 1062 l 1,2,-1
 550 0 l 1,3,-1
 104 0 l 1,0,-1
812 797 m 1,4,-1
 622 797 l 1,5,-1
 622 913 l 1,6,-1
 770 1062 l 1,7,-1
 1016 1062 l 1,8,-1
 1255 823 l 1,9,-1
 1255 0 l 1,10,-1
 812 0 l 1,11,-1
 812 797 l 1,4,-1
879 1607 m 1,12,-1
 1063 1522 l 1,13,-1
 1009 1311 l 1,14,-1
 455 1144 l 1,15,-1
 393 1291 l 1,16,-1
 879 1607 l 1,12,-1
EndSplineSet
EndChar

StartChar: Ncommaaccent
Encoding: 325 325 282
Width: 1508
GlyphClass: 2
Flags: W
LayerCount: 2
Fore
SplineSet
1391 0 m 1,0,-1
 921 0 l 1,1,-1
 117 1327 l 1,2,-1
 584 1327 l 1,3,-1
 1391 0 l 1,0,-1
117 0 m 1,4,-1
 117 1201 l 1,5,-1
 502 570 l 1,6,-1
 502 0 l 1,7,-1
 117 0 l 1,4,-1
1391 1327 m 1,8,-1
 1391 126 l 1,9,-1
 1006 760 l 1,10,-1
 1006 1327 l 1,11,-1
 1391 1327 l 1,8,-1
516 -169 m 1,12,-1
 958 -169 l 1,13,-1
 958 -416 l 1,14,-1
 791 -689 l 1,15,-1
 613 -689 l 1,16,-1
 674 -461 l 1,17,-1
 516 -461 l 1,18,-1
 516 -169 l 1,12,-1
EndSplineSet
EndChar

StartChar: ncommaaccent
Encoding: 326 326 283
Width: 1356
GlyphClass: 2
Flags: W
LayerCount: 2
Fore
SplineSet
104 0 m 1,0,-1
 104 1062 l 1,1,-1
 550 1062 l 1,2,-1
 550 0 l 1,3,-1
 104 0 l 1,0,-1
812 797 m 1,4,-1
 622 797 l 1,5,-1
 622 913 l 1,6,-1
 770 1062 l 1,7,-1
 1016 1062 l 1,8,-1
 1255 823 l 1,9,-1
 1255 0 l 1,10,-1
 812 0 l 1,11,-1
 812 797 l 1,4,-1
456 -169 m 1,12,-1
 898 -169 l 1,13,-1
 898 -416 l 1,14,-1
 731 -689 l 1,15,-1
 553 -689 l 1,16,-1
 614 -461 l 1,17,-1
 456 -461 l 1,18,-1
 456 -169 l 1,12,-1
EndSplineSet
EndChar

StartChar: Ncaron
Encoding: 327 327 284
Width: 1508
GlyphClass: 2
Flags: W
LayerCount: 2
Fore
SplineSet
1391 0 m 1,0,-1
 921 0 l 1,1,-1
 117 1327 l 1,2,-1
 584 1327 l 1,3,-1
 1391 0 l 1,0,-1
117 0 m 1,4,-1
 117 1201 l 1,5,-1
 502 570 l 1,6,-1
 502 0 l 1,7,-1
 117 0 l 1,4,-1
1391 1327 m 1,8,-1
 1391 126 l 1,9,-1
 1006 760 l 1,10,-1
 1006 1327 l 1,11,-1
 1391 1327 l 1,8,-1
871 1392 m 1,12,-1
 619 1392 l 1,13,-1
 365 1653 l 1,14,-1
 442 1731 l 1,15,-1
 744 1573 l 1,16,-1
 1050 1731 l 1,17,-1
 1128 1652 l 1,18,-1
 871 1392 l 1,12,-1
EndSplineSet
EndChar

StartChar: ncaron
Encoding: 328 328 285
Width: 1356
GlyphClass: 2
Flags: W
LayerCount: 2
Fore
SplineSet
104 0 m 1,0,-1
 104 1062 l 1,1,-1
 550 1062 l 1,2,-1
 550 0 l 1,3,-1
 104 0 l 1,0,-1
812 797 m 1,4,-1
 622 797 l 1,5,-1
 622 913 l 1,6,-1
 770 1062 l 1,7,-1
 1016 1062 l 1,8,-1
 1255 823 l 1,9,-1
 1255 0 l 1,10,-1
 812 0 l 1,11,-1
 812 797 l 1,4,-1
239 1487 m 1,12,-1
 332 1584 l 1,13,-1
 685 1374 l 1,14,-1
 1039 1584 l 1,15,-1
 1133 1487 l 1,16,-1
 838 1153 l 1,17,-1
 534 1153 l 1,18,-1
 239 1487 l 1,12,-1
EndSplineSet
EndChar

StartChar: Eng
Encoding: 330 330 286
Width: 1508
GlyphClass: 2
Flags: W
LayerCount: 2
Fore
SplineSet
1391 1327 m 1,0,-1
 1391 -109 l 1,1,-1
 1126 -444 l 1,2,-1
 680 -444 l 1,3,-1
 680 -179 l 1,4,-1
 1006 -179 l 1,5,-1
 1006 1327 l 1,6,-1
 1391 1327 l 1,0,-1
939 742 m 1,7,-1
 939 0 l 1,8,-1
 117 1327 l 1,9,-1
 584 1327 l 1,10,-1
 939 742 l 1,7,-1
117 0 m 1,11,-1
 117 1201 l 1,12,-1
 502 578 l 1,13,-1
 502 0 l 1,14,-1
 117 0 l 1,11,-1
EndSplineSet
EndChar

StartChar: eng
Encoding: 331 331 287
Width: 1356
GlyphClass: 2
Flags: W
LayerCount: 2
Fore
SplineSet
812 797 m 1,0,-1
 622 797 l 1,1,-1
 622 913 l 1,2,-1
 770 1062 l 1,3,-1
 1016 1062 l 1,4,-1
 1255 823 l 1,5,-1
 1255 -180 l 1,6,-1
 989 -446 l 1,7,-1
 607 -446 l 1,8,-1
 607 -180 l 1,9,-1
 812 -180 l 1,10,-1
 812 797 l 1,0,-1
104 0 m 1,11,-1
 104 1062 l 1,12,-1
 550 1062 l 1,13,-1
 550 0 l 1,14,-1
 104 0 l 1,11,-1
EndSplineSet
EndChar

StartChar: Omacron
Encoding: 332 332 288
Width: 1463
GlyphClass: 2
Flags: W
LayerCount: 2
Fore
SplineSet
529 270 m 1,0,-1
 695 270 l 1,1,-1
 695 0 l 1,2,-1
 355 0 l 1,3,-1
 86 265 l 1,4,-1
 86 1062 l 1,5,-1
 355 1327 l 1,6,-1
 695 1327 l 1,7,-1
 695 1058 l 1,8,-1
 529 1058 l 1,9,-1
 529 270 l 1,0,-1
934 1058 m 1,10,-1
 765 1058 l 1,11,-1
 765 1327 l 1,12,-1
 1108 1327 l 1,13,-1
 1376 1062 l 1,14,-1
 1376 265 l 1,15,-1
 1108 0 l 1,16,-1
 765 0 l 1,17,-1
 765 270 l 1,18,-1
 934 270 l 1,19,-1
 934 1058 l 1,10,-1
368 1650 m 1,20,-1
 1097 1650 l 1,21,-1
 1097 1480 l 1,22,-1
 368 1480 l 1,23,-1
 368 1650 l 1,20,-1
EndSplineSet
EndChar

StartChar: omacron
Encoding: 333 333 289
Width: 1383
GlyphClass: 2
Flags: W
LayerCount: 2
Fore
SplineSet
1288 265 m 1,0,-1
 1023 0 l 1,1,-1
 727 0 l 1,2,-1
 727 248 l 1,3,-1
 837 248 l 1,4,-1
 837 797 l 1,5,-1
 727 797 l 1,6,-1
 727 1062 l 1,7,-1
 1023 1062 l 1,8,-1
 1288 797 l 1,9,-1
 1288 265 l 1,0,-1
542 248 m 1,10,-1
 657 248 l 1,11,-1
 657 0 l 1,12,-1
 360 0 l 1,13,-1
 95 265 l 1,14,-1
 95 797 l 1,15,-1
 360 1062 l 1,16,-1
 657 1062 l 1,17,-1
 657 797 l 1,18,-1
 542 797 l 1,19,-1
 542 248 l 1,10,-1
327 1393 m 1,20,-1
 1056 1393 l 1,21,-1
 1056 1223 l 1,22,-1
 327 1223 l 1,23,-1
 327 1393 l 1,20,-1
EndSplineSet
EndChar

StartChar: Obreve
Encoding: 334 334 290
Width: 1463
GlyphClass: 2
Flags: W
LayerCount: 2
Fore
SplineSet
529 270 m 1,0,-1
 695 270 l 1,1,-1
 695 0 l 1,2,-1
 355 0 l 1,3,-1
 86 265 l 1,4,-1
 86 1062 l 1,5,-1
 355 1327 l 1,6,-1
 695 1327 l 1,7,-1
 695 1058 l 1,8,-1
 529 1058 l 1,9,-1
 529 270 l 1,0,-1
934 1058 m 1,10,-1
 765 1058 l 1,11,-1
 765 1327 l 1,12,-1
 1108 1327 l 1,13,-1
 1376 1062 l 1,14,-1
 1376 265 l 1,15,-1
 1108 0 l 1,16,-1
 765 0 l 1,17,-1
 765 270 l 1,18,-1
 934 270 l 1,19,-1
 934 1058 l 1,10,-1
359 1717 m 1,20,-1
 497 1756 l 1,21,-1
 569 1604 l 1,22,-1
 874 1604 l 1,23,-1
 946 1756 l 1,24,-1
 1084 1717 l 1,25,-1
 1048 1536 l 1,26,-1
 902 1392 l 1,27,-1
 541 1392 l 1,28,-1
 395 1536 l 1,29,-1
 359 1717 l 1,20,-1
EndSplineSet
EndChar

StartChar: obreve
Encoding: 335 335 291
Width: 1383
GlyphClass: 2
Flags: W
LayerCount: 2
Fore
SplineSet
1288 265 m 1,0,-1
 1023 0 l 1,1,-1
 727 0 l 1,2,-1
 727 248 l 1,3,-1
 837 248 l 1,4,-1
 837 797 l 1,5,-1
 727 797 l 1,6,-1
 727 1062 l 1,7,-1
 1023 1062 l 1,8,-1
 1288 797 l 1,9,-1
 1288 265 l 1,0,-1
542 248 m 1,10,-1
 657 248 l 1,11,-1
 657 0 l 1,12,-1
 360 0 l 1,13,-1
 95 265 l 1,14,-1
 95 797 l 1,15,-1
 360 1062 l 1,16,-1
 657 1062 l 1,17,-1
 657 797 l 1,18,-1
 542 797 l 1,19,-1
 542 248 l 1,10,-1
308 1530 m 1,20,-1
 446 1569 l 1,21,-1
 528 1387 l 1,22,-1
 853 1387 l 1,23,-1
 935 1569 l 1,24,-1
 1073 1530 l 1,25,-1
 1017 1299 l 1,26,-1
 871 1155 l 1,27,-1
 510 1155 l 1,28,-1
 364 1299 l 1,29,-1
 308 1530 l 1,20,-1
EndSplineSet
EndChar

StartChar: Ohungarumlaut
Encoding: 336 336 292
Width: 1463
GlyphClass: 2
Flags: W
LayerCount: 2
Fore
SplineSet
529 270 m 1,0,-1
 695 270 l 1,1,-1
 695 0 l 1,2,-1
 355 0 l 1,3,-1
 86 265 l 1,4,-1
 86 1062 l 1,5,-1
 355 1327 l 1,6,-1
 695 1327 l 1,7,-1
 695 1058 l 1,8,-1
 529 1058 l 1,9,-1
 529 270 l 1,0,-1
934 1058 m 1,10,-1
 765 1058 l 1,11,-1
 765 1327 l 1,12,-1
 1108 1327 l 1,13,-1
 1376 1062 l 1,14,-1
 1376 265 l 1,15,-1
 1108 0 l 1,16,-1
 765 0 l 1,17,-1
 765 270 l 1,18,-1
 934 270 l 1,19,-1
 934 1058 l 1,10,-1
701 1767 m 1,20,-1
 849 1719 l 1,21,-1
 851 1580 l 1,22,-1
 507 1415 l 1,23,-1
 418 1527 l 1,24,-1
 701 1767 l 1,20,-1
1225 1767 m 1,25,-1
 1373 1719 l 1,26,-1
 1375 1580 l 1,27,-1
 1031 1415 l 1,28,-1
 942 1527 l 1,29,-1
 1225 1767 l 1,25,-1
EndSplineSet
EndChar

StartChar: ohungarumlaut
Encoding: 337 337 293
Width: 1383
GlyphClass: 2
Flags: W
LayerCount: 2
Fore
SplineSet
1288 265 m 1,0,-1
 1023 0 l 1,1,-1
 727 0 l 1,2,-1
 727 248 l 1,3,-1
 837 248 l 1,4,-1
 837 797 l 1,5,-1
 727 797 l 1,6,-1
 727 1062 l 1,7,-1
 1023 1062 l 1,8,-1
 1288 797 l 1,9,-1
 1288 265 l 1,0,-1
542 248 m 1,10,-1
 657 248 l 1,11,-1
 657 0 l 1,12,-1
 360 0 l 1,13,-1
 95 265 l 1,14,-1
 95 797 l 1,15,-1
 360 1062 l 1,16,-1
 657 1062 l 1,17,-1
 657 797 l 1,18,-1
 542 797 l 1,19,-1
 542 248 l 1,10,-1
674 1607 m 1,20,-1
 858 1552 l 1,21,-1
 844 1371 l 1,22,-1
 438 1144 l 1,23,-1
 336 1271 l 1,24,-1
 674 1607 l 1,20,-1
1222 1607 m 1,25,-1
 1406 1552 l 1,26,-1
 1392 1371 l 1,27,-1
 986 1144 l 1,28,-1
 884 1271 l 1,29,-1
 1222 1607 l 1,25,-1
EndSplineSet
EndChar

StartChar: OE
Encoding: 338 338 294
Width: 2261
GlyphClass: 2
Flags: W
LayerCount: 2
Fore
SplineSet
1145 88 m 1,0,-1
 1055 0 l 1,1,-1
 761 0 l 1,2,-1
 761 265 l 1,3,-1
 927 265 l 1,4,-1
 927 1062 l 1,5,-1
 761 1062 l 1,6,-1
 761 1327 l 1,7,-1
 1055 1327 l 1,8,-1
 1147 1239 l 1,9,-1
 1234 1327 l 1,10,-1
 1369 1327 l 1,11,-1
 1369 785 l 1,12,-1
 1812 785 l 1,13,-1
 1812 553 l 1,14,-1
 1369 553 l 1,15,-1
 1369 0 l 1,16,-1
 1234 0 l 1,17,-1
 1145 88 l 1,0,-1
529 265 m 1,18,-1
 694 265 l 1,19,-1
 694 0 l 1,20,-1
 353 0 l 1,21,-1
 86 265 l 1,22,-1
 86 1062 l 1,23,-1
 353 1327 l 1,24,-1
 694 1327 l 1,25,-1
 694 1062 l 1,26,-1
 529 1062 l 1,27,-1
 529 265 l 1,18,-1
1437 1062 m 1,28,-1
 1437 1327 l 1,29,-1
 2166 1327 l 1,30,-1
 2166 929 l 1,31,-1
 1724 929 l 1,32,-1
 1724 1062 l 1,33,-1
 1437 1062 l 1,28,-1
1437 0 m 1,34,-1
 1437 265 l 1,35,-1
 1724 265 l 1,36,-1
 1724 398 l 1,37,-1
 2166 398 l 1,38,-1
 2166 0 l 1,39,-1
 1437 0 l 1,34,-1
EndSplineSet
EndChar

StartChar: oe
Encoding: 339 339 295
Width: 2042
GlyphClass: 2
Flags: W
LayerCount: 2
Fore
SplineSet
704 1062 m 1,0,-1
 934 1062 l 1,1,-1
 1026 973 l 1,2,-1
 1113 1062 l 1,3,-1
 1344 1062 l 1,4,-1
 1344 797 l 1,5,-1
 1245 797 l 1,6,-1
 1245 265 l 1,7,-1
 1344 265 l 1,8,-1
 1344 0 l 1,9,-1
 1113 0 l 1,10,-1
 1024 88 l 1,11,-1
 934 0 l 1,12,-1
 704 0 l 1,13,-1
 704 265 l 1,14,-1
 803 265 l 1,15,-1
 803 797 l 1,16,-1
 704 797 l 1,17,-1
 704 1062 l 1,0,-1
1315 434 m 1,18,-1
 1315 628 l 1,19,-1
 1511 628 l 1,20,-1
 1511 797 l 1,21,-1
 1414 797 l 1,22,-1
 1414 1062 l 1,23,-1
 1687 1062 l 1,24,-1
 1954 797 l 1,25,-1
 1954 434 l 1,26,-1
 1315 434 l 1,18,-1
1414 0 m 1,27,-1
 1414 265 l 1,28,-1
 1909 265 l 1,29,-1
 1909 133 l 1,30,-1
 1776 0 l 1,31,-1
 1414 0 l 1,27,-1
537 265 m 1,32,-1
 634 265 l 1,33,-1
 634 0 l 1,34,-1
 360 0 l 1,35,-1
 95 265 l 1,36,-1
 95 797 l 1,37,-1
 360 1062 l 1,38,-1
 634 1062 l 1,39,-1
 634 797 l 1,40,-1
 537 797 l 1,41,-1
 537 265 l 1,32,-1
EndSplineSet
EndChar

StartChar: Racute
Encoding: 340 340 296
Width: 1486
GlyphClass: 2
Flags: W
LayerCount: 2
Fore
SplineSet
117 0 m 1,0,-1
 117 1327 l 1,1,-1
 559 1327 l 1,2,-1
 559 0 l 1,3,-1
 117 0 l 1,0,-1
629 1062 m 1,4,-1
 629 1327 l 1,5,-1
 1134 1327 l 1,6,-1
 1400 1062 l 1,7,-1
 1400 664 l 1,8,-1
 1196 460 l 1,9,-1
 1182 488 l 1,10,-1
 767 433 l 1,11,-1
 783 398 l 1,12,-1
 629 398 l 1,13,-1
 629 655 l 1,14,-1
 961 655 l 1,15,-1
 961 1062 l 1,16,-1
 629 1062 l 1,4,-1
1445 0 m 1,17,-1
 973 0 l 1,18,-1
 783 398 l 1,19,-1
 1134 398 l 1,20,-1
 1196 460 l 1,21,-1
 1445 0 l 1,17,-1
1066 1766 m 1,22,-1
 1221 1688 l 1,23,-1
 1174 1519 l 1,24,-1
 671 1404 l 1,25,-1
 620 1526 l 1,26,-1
 1066 1766 l 1,22,-1
EndSplineSet
EndChar

StartChar: racute
Encoding: 341 341 297
Width: 1280
GlyphClass: 2
Flags: W
LayerCount: 2
Fore
SplineSet
805 797 m 1,0,-1
 617 797 l 1,1,-1
 617 913 l 1,2,-1
 765 1062 l 1,3,-1
 1033 1062 l 1,4,-1
 1248 814 l 1,5,-1
 1248 539 l 1,6,-1
 805 539 l 1,7,-1
 805 797 l 1,0,-1
104 0 m 1,8,-1
 104 1062 l 1,9,-1
 546 1062 l 1,10,-1
 546 0 l 1,11,-1
 104 0 l 1,8,-1
854 1607 m 1,12,-1
 1038 1522 l 1,13,-1
 984 1311 l 1,14,-1
 430 1144 l 1,15,-1
 368 1291 l 1,16,-1
 854 1607 l 1,12,-1
EndSplineSet
EndChar

StartChar: Rcommaaccent
Encoding: 342 342 298
Width: 1486
GlyphClass: 2
Flags: W
LayerCount: 2
Fore
SplineSet
117 0 m 1,0,-1
 117 1327 l 1,1,-1
 559 1327 l 1,2,-1
 559 0 l 1,3,-1
 117 0 l 1,0,-1
629 1062 m 1,4,-1
 629 1327 l 1,5,-1
 1134 1327 l 1,6,-1
 1400 1062 l 1,7,-1
 1400 664 l 1,8,-1
 1196 460 l 1,9,-1
 1182 488 l 1,10,-1
 767 433 l 1,11,-1
 783 398 l 1,12,-1
 629 398 l 1,13,-1
 629 655 l 1,14,-1
 961 655 l 1,15,-1
 961 1062 l 1,16,-1
 629 1062 l 1,4,-1
1445 0 m 1,17,-1
 973 0 l 1,18,-1
 783 398 l 1,19,-1
 1134 398 l 1,20,-1
 1196 460 l 1,21,-1
 1445 0 l 1,17,-1
551 -169 m 1,22,-1
 993 -169 l 1,23,-1
 993 -416 l 1,24,-1
 826 -689 l 1,25,-1
 648 -689 l 1,26,-1
 709 -461 l 1,27,-1
 551 -461 l 1,28,-1
 551 -169 l 1,22,-1
EndSplineSet
EndChar

StartChar: rcommaaccent
Encoding: 343 343 299
Width: 1280
GlyphClass: 2
Flags: W
LayerCount: 2
Fore
SplineSet
805 797 m 1,0,-1
 617 797 l 1,1,-1
 617 913 l 1,2,-1
 765 1062 l 1,3,-1
 1033 1062 l 1,4,-1
 1248 814 l 1,5,-1
 1248 539 l 1,6,-1
 805 539 l 1,7,-1
 805 797 l 1,0,-1
104 0 m 1,8,-1
 104 1062 l 1,9,-1
 546 1062 l 1,10,-1
 546 0 l 1,11,-1
 104 0 l 1,8,-1
116 -169 m 1,12,-1
 558 -169 l 1,13,-1
 558 -416 l 1,14,-1
 391 -689 l 1,15,-1
 213 -689 l 1,16,-1
 274 -461 l 1,17,-1
 116 -461 l 1,18,-1
 116 -169 l 1,12,-1
EndSplineSet
EndChar

StartChar: Rcaron
Encoding: 344 344 300
Width: 1486
GlyphClass: 2
Flags: W
LayerCount: 2
Fore
SplineSet
117 0 m 1,0,-1
 117 1327 l 1,1,-1
 559 1327 l 1,2,-1
 559 0 l 1,3,-1
 117 0 l 1,0,-1
629 1062 m 1,4,-1
 629 1327 l 1,5,-1
 1134 1327 l 1,6,-1
 1400 1062 l 1,7,-1
 1400 664 l 1,8,-1
 1196 460 l 1,9,-1
 1182 488 l 1,10,-1
 767 433 l 1,11,-1
 783 398 l 1,12,-1
 629 398 l 1,13,-1
 629 655 l 1,14,-1
 961 655 l 1,15,-1
 961 1062 l 1,16,-1
 629 1062 l 1,4,-1
1445 0 m 1,17,-1
 973 0 l 1,18,-1
 783 398 l 1,19,-1
 1134 398 l 1,20,-1
 1196 460 l 1,21,-1
 1445 0 l 1,17,-1
907 1392 m 1,22,-1
 655 1392 l 1,23,-1
 401 1653 l 1,24,-1
 478 1731 l 1,25,-1
 780 1573 l 1,26,-1
 1086 1731 l 1,27,-1
 1164 1652 l 1,28,-1
 907 1392 l 1,22,-1
EndSplineSet
EndChar

StartChar: rcaron
Encoding: 345 345 301
Width: 1280
GlyphClass: 2
Flags: W
LayerCount: 2
Fore
SplineSet
805 797 m 1,0,-1
 617 797 l 1,1,-1
 617 913 l 1,2,-1
 765 1062 l 1,3,-1
 1033 1062 l 1,4,-1
 1248 814 l 1,5,-1
 1248 539 l 1,6,-1
 805 539 l 1,7,-1
 805 797 l 1,0,-1
104 0 m 1,8,-1
 104 1062 l 1,9,-1
 546 1062 l 1,10,-1
 546 0 l 1,11,-1
 104 0 l 1,8,-1
214 1487 m 1,12,-1
 307 1584 l 1,13,-1
 660 1374 l 1,14,-1
 1014 1584 l 1,15,-1
 1108 1487 l 1,16,-1
 813 1153 l 1,17,-1
 509 1153 l 1,18,-1
 214 1487 l 1,12,-1
EndSplineSet
EndChar

StartChar: Sacute
Encoding: 346 346 302
Width: 1477
GlyphClass: 2
Flags: W
LayerCount: 2
Fore
SplineSet
937 0 m 1,0,-1
 937 497 l 1,1,-1
 363 497 l 1,2,-1
 97 763 l 1,3,-1
 97 1062 l 1,4,-1
 363 1327 l 1,5,-1
 513 1327 l 1,6,-1
 513 856 l 1,7,-1
 1123 856 l 1,8,-1
 1380 590 l 1,9,-1
 1380 265 l 1,10,-1
 1115 0 l 1,11,-1
 937 0 l 1,0,-1
583 1088 m 1,12,-1
 583 1327 l 1,13,-1
 1114 1327 l 1,14,-1
 1344 1096 l 1,15,-1
 1344 955 l 1,16,-1
 937 955 l 1,17,-1
 937 1088 l 1,18,-1
 583 1088 l 1,12,-1
97 398 m 1,19,-1
 539 398 l 1,20,-1
 539 240 l 1,21,-1
 867 240 l 1,22,-1
 867 0 l 1,23,-1
 320 0 l 1,24,-1
 97 265 l 1,25,-1
 97 398 l 1,19,-1
1053 1773 m 1,26,-1
 1208 1695 l 1,27,-1
 1161 1526 l 1,28,-1
 658 1411 l 1,29,-1
 607 1533 l 1,30,-1
 1053 1773 l 1,26,-1
EndSplineSet
EndChar

StartChar: sacute
Encoding: 347 347 303
Width: 1315
GlyphClass: 2
Flags: W
LayerCount: 2
Fore
SplineSet
335 1062 m 1,0,-1
 512 1062 l 1,1,-1
 512 687 l 1,2,-1
 1016 687 l 1,3,-1
 1246 455 l 1,4,-1
 1246 248 l 1,5,-1
 999 0 l 1,6,-1
 804 0 l 1,7,-1
 804 401 l 1,8,-1
 326 401 l 1,9,-1
 96 622 l 1,10,-1
 96 824 l 1,11,-1
 335 1062 l 1,0,-1
538 195 m 1,12,-1
 734 195 l 1,13,-1
 734 0 l 1,14,-1
 279 1 l 1,15,-1
 95 219 l 1,16,-1
 95 304 l 1,17,-1
 538 304 l 1,18,-1
 538 195 l 1,12,-1
804 867 m 1,19,-1
 582 867 l 1,20,-1
 582 1062 l 1,21,-1
 1052 1062 l 1,22,-1
 1210 904 l 1,23,-1
 1210 784 l 1,24,-1
 804 784 l 1,25,-1
 804 867 l 1,19,-1
881 1607 m 1,26,-1
 1065 1522 l 1,27,-1
 1011 1311 l 1,28,-1
 457 1144 l 1,29,-1
 395 1291 l 1,30,-1
 881 1607 l 1,26,-1
EndSplineSet
EndChar

StartChar: Scircumflex
Encoding: 348 348 304
Width: 1477
GlyphClass: 2
Flags: W
LayerCount: 2
Fore
SplineSet
937 0 m 1,0,-1
 937 497 l 1,1,-1
 363 497 l 1,2,-1
 97 763 l 1,3,-1
 97 1062 l 1,4,-1
 363 1327 l 1,5,-1
 513 1327 l 1,6,-1
 513 856 l 1,7,-1
 1123 856 l 1,8,-1
 1380 590 l 1,9,-1
 1380 265 l 1,10,-1
 1115 0 l 1,11,-1
 937 0 l 1,0,-1
583 1088 m 1,12,-1
 583 1327 l 1,13,-1
 1114 1327 l 1,14,-1
 1344 1096 l 1,15,-1
 1344 955 l 1,16,-1
 937 955 l 1,17,-1
 937 1088 l 1,18,-1
 583 1088 l 1,12,-1
97 398 m 1,19,-1
 539 398 l 1,20,-1
 539 240 l 1,21,-1
 867 240 l 1,22,-1
 867 0 l 1,23,-1
 320 0 l 1,24,-1
 97 265 l 1,25,-1
 97 398 l 1,19,-1
640 1738 m 1,26,-1
 892 1738 l 1,27,-1
 1146 1478 l 1,28,-1
 1070 1399 l 1,29,-1
 767 1558 l 1,30,-1
 461 1399 l 1,31,-1
 384 1479 l 1,32,-1
 640 1738 l 1,26,-1
EndSplineSet
EndChar

StartChar: scircumflex
Encoding: 349 349 305
Width: 1315
GlyphClass: 2
Flags: W
LayerCount: 2
Fore
SplineSet
335 1062 m 1,0,-1
 512 1062 l 1,1,-1
 512 687 l 1,2,-1
 1016 687 l 1,3,-1
 1246 455 l 1,4,-1
 1246 248 l 1,5,-1
 999 0 l 1,6,-1
 804 0 l 1,7,-1
 804 401 l 1,8,-1
 326 401 l 1,9,-1
 96 622 l 1,10,-1
 96 824 l 1,11,-1
 335 1062 l 1,0,-1
538 195 m 1,12,-1
 734 195 l 1,13,-1
 734 0 l 1,14,-1
 279 1 l 1,15,-1
 95 219 l 1,16,-1
 95 304 l 1,17,-1
 538 304 l 1,18,-1
 538 195 l 1,12,-1
804 867 m 1,19,-1
 582 867 l 1,20,-1
 582 1062 l 1,21,-1
 1052 1062 l 1,22,-1
 1210 904 l 1,23,-1
 1210 784 l 1,24,-1
 804 784 l 1,25,-1
 804 867 l 1,19,-1
1127 1250 m 1,26,-1
 1034 1153 l 1,27,-1
 680 1363 l 1,28,-1
 327 1153 l 1,29,-1
 233 1250 l 1,30,-1
 528 1585 l 1,31,-1
 832 1585 l 1,32,-1
 1127 1250 l 1,26,-1
EndSplineSet
EndChar

StartChar: Scedilla
Encoding: 350 350 306
Width: 1477
GlyphClass: 2
Flags: W
LayerCount: 2
Fore
SplineSet
937 0 m 1,0,-1
 937 497 l 1,1,-1
 363 497 l 1,2,-1
 97 763 l 1,3,-1
 97 1062 l 1,4,-1
 363 1327 l 1,5,-1
 513 1327 l 1,6,-1
 513 856 l 1,7,-1
 1123 856 l 1,8,-1
 1380 590 l 1,9,-1
 1380 265 l 1,10,-1
 1115 0 l 1,11,-1
 937 0 l 1,0,-1
583 1088 m 1,12,-1
 583 1327 l 1,13,-1
 1114 1327 l 1,14,-1
 1344 1096 l 1,15,-1
 1344 955 l 1,16,-1
 937 955 l 1,17,-1
 937 1088 l 1,18,-1
 583 1088 l 1,12,-1
97 398 m 1,19,-1
 539 398 l 1,20,-1
 539 240 l 1,21,-1
 867 240 l 1,22,-1
 867 0 l 1,23,-1
 320 0 l 1,24,-1
 97 265 l 1,25,-1
 97 398 l 1,19,-1
741 -225 m 1,26,-1
 741 -62 l 1,27,-1
 943 -62 l 1,28,-1
 943 -307 l 1,29,-1
 768 -507 l 1,30,-1
 456 -507 l 1,31,-1
 456 -225 l 1,32,-1
 741 -225 l 1,26,-1
EndSplineSet
EndChar

StartChar: scedilla
Encoding: 351 351 307
Width: 1315
GlyphClass: 2
Flags: W
LayerCount: 2
Fore
SplineSet
335 1062 m 1,0,-1
 512 1062 l 1,1,-1
 512 687 l 1,2,-1
 1016 687 l 1,3,-1
 1246 455 l 1,4,-1
 1246 248 l 1,5,-1
 999 0 l 1,6,-1
 804 0 l 1,7,-1
 804 401 l 1,8,-1
 326 401 l 1,9,-1
 96 622 l 1,10,-1
 96 824 l 1,11,-1
 335 1062 l 1,0,-1
538 195 m 1,12,-1
 734 195 l 1,13,-1
 734 0 l 1,14,-1
 279 1 l 1,15,-1
 95 219 l 1,16,-1
 95 304 l 1,17,-1
 538 304 l 1,18,-1
 538 195 l 1,12,-1
804 867 m 1,19,-1
 582 867 l 1,20,-1
 582 1062 l 1,21,-1
 1052 1062 l 1,22,-1
 1210 904 l 1,23,-1
 1210 784 l 1,24,-1
 804 784 l 1,25,-1
 804 867 l 1,19,-1
653 -225 m 1,26,-1
 653 -62 l 1,27,-1
 855 -62 l 1,28,-1
 855 -307 l 1,29,-1
 680 -507 l 1,30,-1
 368 -507 l 1,31,-1
 368 -225 l 1,32,-1
 653 -225 l 1,26,-1
EndSplineSet
EndChar

StartChar: Scaron
Encoding: 352 352 308
Width: 1477
GlyphClass: 2
Flags: W
LayerCount: 2
Fore
SplineSet
937 0 m 1,0,-1
 937 497 l 1,1,-1
 363 497 l 1,2,-1
 97 763 l 1,3,-1
 97 1062 l 1,4,-1
 363 1327 l 1,5,-1
 513 1327 l 1,6,-1
 513 856 l 1,7,-1
 1123 856 l 1,8,-1
 1380 590 l 1,9,-1
 1380 265 l 1,10,-1
 1115 0 l 1,11,-1
 937 0 l 1,0,-1
583 1088 m 1,12,-1
 583 1327 l 1,13,-1
 1114 1327 l 1,14,-1
 1344 1096 l 1,15,-1
 1344 955 l 1,16,-1
 937 955 l 1,17,-1
 937 1088 l 1,18,-1
 583 1088 l 1,12,-1
97 398 m 1,19,-1
 539 398 l 1,20,-1
 539 240 l 1,21,-1
 867 240 l 1,22,-1
 867 0 l 1,23,-1
 320 0 l 1,24,-1
 97 265 l 1,25,-1
 97 398 l 1,19,-1
894 1399 m 1,26,-1
 642 1399 l 1,27,-1
 388 1660 l 1,28,-1
 465 1738 l 1,29,-1
 767 1580 l 1,30,-1
 1073 1738 l 1,31,-1
 1151 1659 l 1,32,-1
 894 1399 l 1,26,-1
EndSplineSet
EndChar

StartChar: scaron
Encoding: 353 353 309
Width: 1315
GlyphClass: 2
Flags: W
LayerCount: 2
Fore
SplineSet
335 1062 m 1,0,-1
 512 1062 l 1,1,-1
 512 687 l 1,2,-1
 1016 687 l 1,3,-1
 1246 455 l 1,4,-1
 1246 248 l 1,5,-1
 999 0 l 1,6,-1
 804 0 l 1,7,-1
 804 401 l 1,8,-1
 326 401 l 1,9,-1
 96 622 l 1,10,-1
 96 824 l 1,11,-1
 335 1062 l 1,0,-1
538 195 m 1,12,-1
 734 195 l 1,13,-1
 734 0 l 1,14,-1
 279 1 l 1,15,-1
 95 219 l 1,16,-1
 95 304 l 1,17,-1
 538 304 l 1,18,-1
 538 195 l 1,12,-1
804 867 m 1,19,-1
 582 867 l 1,20,-1
 582 1062 l 1,21,-1
 1052 1062 l 1,22,-1
 1210 904 l 1,23,-1
 1210 784 l 1,24,-1
 804 784 l 1,25,-1
 804 867 l 1,19,-1
241 1487 m 1,26,-1
 334 1584 l 1,27,-1
 687 1374 l 1,28,-1
 1041 1584 l 1,29,-1
 1135 1487 l 1,30,-1
 840 1153 l 1,31,-1
 536 1153 l 1,32,-1
 241 1487 l 1,26,-1
EndSplineSet
EndChar

StartChar: Tcommaaccent
Encoding: 354 354 310
Width: 1256
GlyphClass: 2
Flags: W
LayerCount: 2
Fore
SplineSet
398 969 m 1,0,-1
 858 969 l 1,1,-1
 858 0 l 1,2,-1
 398 0 l 1,3,-1
 398 969 l 1,0,-1
52 1327 m 1,4,-1
 1204 1327 l 1,5,-1
 1204 1038 l 1,6,-1
 52 1038 l 1,7,-1
 52 1327 l 1,4,-1
407 -169 m 1,8,-1
 849 -169 l 1,9,-1
 849 -416 l 1,10,-1
 682 -689 l 1,11,-1
 504 -689 l 1,12,-1
 565 -461 l 1,13,-1
 407 -461 l 1,14,-1
 407 -169 l 1,8,-1
EndSplineSet
EndChar

StartChar: tcommaaccent
Encoding: 355 355 311
Width: 915
GlyphClass: 2
Flags: W
LayerCount: 2
Fore
SplineSet
558 265 m 1,0,-1
 850 265 l 1,1,-1
 850 0 l 1,2,-1
 382 0 l 1,3,-1
 116 265 l 1,4,-1
 116 797 l 1,5,-1
 28 797 l 1,6,-1
 28 1062 l 1,7,-1
 116 1062 l 1,8,-1
 116 1177 l 1,9,-1
 558 1327 l 1,10,-1
 558 265 l 1,0,-1
628 797 m 1,11,-1
 628 1062 l 1,12,-1
 866 1062 l 1,13,-1
 866 797 l 1,14,-1
 628 797 l 1,11,-1
210 -169 m 1,15,-1
 652 -169 l 1,16,-1
 652 -416 l 1,17,-1
 485 -689 l 1,18,-1
 307 -689 l 1,19,-1
 368 -461 l 1,20,-1
 210 -461 l 1,21,-1
 210 -169 l 1,15,-1
EndSplineSet
EndChar

StartChar: Tcaron
Encoding: 356 356 312
Width: 1256
GlyphClass: 2
Flags: W
LayerCount: 2
Fore
SplineSet
398 969 m 1,0,-1
 858 969 l 1,1,-1
 858 0 l 1,2,-1
 398 0 l 1,3,-1
 398 969 l 1,0,-1
52 1327 m 1,4,-1
 1204 1327 l 1,5,-1
 1204 1038 l 1,6,-1
 52 1038 l 1,7,-1
 52 1327 l 1,4,-1
752 1392 m 1,8,-1
 500 1392 l 1,9,-1
 246 1653 l 1,10,-1
 323 1731 l 1,11,-1
 625 1573 l 1,12,-1
 931 1731 l 1,13,-1
 1009 1652 l 1,14,-1
 752 1392 l 1,8,-1
EndSplineSet
EndChar

StartChar: tcaron
Encoding: 357 357 313
Width: 1324
GlyphClass: 2
Flags: W
LayerCount: 2
Fore
SplineSet
558 265 m 1,0,-1
 850 265 l 1,1,-1
 850 0 l 1,2,-1
 382 0 l 1,3,-1
 116 265 l 1,4,-1
 116 797 l 1,5,-1
 28 797 l 1,6,-1
 28 1062 l 1,7,-1
 116 1062 l 1,8,-1
 116 1177 l 1,9,-1
 558 1327 l 1,10,-1
 558 265 l 1,0,-1
628 797 m 1,11,-1
 628 1062 l 1,12,-1
 866 1062 l 1,13,-1
 866 797 l 1,14,-1
 628 797 l 1,11,-1
938 1471 m 1,15,-1
 1324 1471 l 1,16,-1
 1324 1162 l 1,17,-1
 1227 896 l 1,18,-1
 1041 896 l 1,19,-1
 1065 1162 l 1,20,-1
 938 1162 l 1,21,-1
 938 1471 l 1,15,-1
EndSplineSet
EndChar

StartChar: Tbar
Encoding: 358 358 314
Width: 1256
GlyphClass: 2
Flags: W
LayerCount: 2
Fore
SplineSet
181 675 m 1,0,-1
 398 675 l 1,1,-1
 398 969 l 1,2,-1
 858 969 l 1,3,-1
 858 675 l 1,4,-1
 1068 675 l 1,5,-1
 1068 486 l 1,6,-1
 858 486 l 1,7,-1
 858 0 l 1,8,-1
 398 0 l 1,9,-1
 398 486 l 1,10,-1
 181 486 l 1,11,-1
 181 675 l 1,0,-1
52 1327 m 1,12,-1
 1204 1327 l 1,13,-1
 1204 1038 l 1,14,-1
 52 1038 l 1,15,-1
 52 1327 l 1,12,-1
EndSplineSet
EndChar

StartChar: tbar
Encoding: 359 359 315
Width: 915
GlyphClass: 2
Flags: W
LayerCount: 2
Fore
SplineSet
558 635 m 1,0,-1
 696 635 l 1,1,-1
 696 446 l 1,2,-1
 558 446 l 1,3,-1
 558 265 l 1,4,-1
 850 265 l 1,5,-1
 850 0 l 1,6,-1
 382 0 l 1,7,-1
 116 265 l 1,8,-1
 116 446 l 1,9,-1
 27 446 l 1,10,-1
 27 635 l 1,11,-1
 116 635 l 1,12,-1
 116 797 l 1,13,-1
 28 797 l 1,14,-1
 28 1062 l 1,15,-1
 116 1062 l 1,16,-1
 116 1177 l 1,17,-1
 558 1327 l 1,18,-1
 558 635 l 1,0,-1
628 797 m 1,19,-1
 628 1062 l 1,20,-1
 866 1062 l 1,21,-1
 866 797 l 1,22,-1
 628 797 l 1,19,-1
EndSplineSet
EndChar

StartChar: Utilde
Encoding: 360 360 316
Width: 1495
GlyphClass: 2
Flags: W
LayerCount: 2
Fore
SplineSet
1388 265 m 1,0,-1
 1123 0 l 1,1,-1
 782 0 l 1,2,-1
 782 265 l 1,3,-1
 946 265 l 1,4,-1
 946 1327 l 1,5,-1
 1388 1327 l 1,6,-1
 1388 265 l 1,0,-1
549 265 m 1,7,-1
 712 265 l 1,8,-1
 712 0 l 1,9,-1
 372 0 l 1,10,-1
 106 265 l 1,11,-1
 106 1327 l 1,12,-1
 549 1327 l 1,13,-1
 549 265 l 1,7,-1
932 1609 m 1,14,-1
 1113 1716 l 1,15,-1
 1177 1638 l 1,16,-1
 970 1424 l 1,17,-1
 765 1424 l 1,18,-1
 605 1540 l 1,19,-1
 564 1540 l 1,20,-1
 383 1434 l 1,21,-1
 319 1512 l 1,22,-1
 526 1726 l 1,23,-1
 731 1726 l 1,24,-1
 891 1609 l 1,25,-1
 932 1609 l 1,14,-1
EndSplineSet
EndChar

StartChar: utilde
Encoding: 361 361 317
Width: 1350
GlyphClass: 2
Flags: W
LayerCount: 2
Fore
SplineSet
1246 1062 m 1,0,-1
 1246 0 l 1,1,-1
 804 0 l 1,2,-1
 804 1062 l 1,3,-1
 1246 1062 l 1,0,-1
537 265 m 1,4,-1
 734 265 l 1,5,-1
 734 133 l 1,6,-1
 606 0 l 1,7,-1
 361 0 l 1,8,-1
 95 265 l 1,9,-1
 95 1062 l 1,10,-1
 537 1062 l 1,11,-1
 537 265 l 1,4,-1
710 1558 m 1,12,-1
 818 1407 l 1,13,-1
 885 1407 l 1,14,-1
 1023 1522 l 1,15,-1
 1110 1435 l 1,16,-1
 915 1221 l 1,17,-1
 632 1221 l 1,18,-1
 524 1371 l 1,19,-1
 457 1371 l 1,20,-1
 319 1257 l 1,21,-1
 232 1344 l 1,22,-1
 427 1558 l 1,23,-1
 710 1558 l 1,12,-1
EndSplineSet
EndChar

StartChar: Umacron
Encoding: 362 362 318
Width: 1495
GlyphClass: 2
Flags: W
LayerCount: 2
Fore
SplineSet
1388 265 m 1,0,-1
 1123 0 l 1,1,-1
 782 0 l 1,2,-1
 782 265 l 1,3,-1
 946 265 l 1,4,-1
 946 1327 l 1,5,-1
 1388 1327 l 1,6,-1
 1388 265 l 1,0,-1
549 265 m 1,7,-1
 712 265 l 1,8,-1
 712 0 l 1,9,-1
 372 0 l 1,10,-1
 106 265 l 1,11,-1
 106 1327 l 1,12,-1
 549 1327 l 1,13,-1
 549 265 l 1,7,-1
384 1650 m 1,14,-1
 1113 1650 l 1,15,-1
 1113 1480 l 1,16,-1
 384 1480 l 1,17,-1
 384 1650 l 1,14,-1
EndSplineSet
EndChar

StartChar: umacron
Encoding: 363 363 319
Width: 1350
GlyphClass: 2
Flags: W
LayerCount: 2
Fore
SplineSet
1246 1062 m 1,0,-1
 1246 0 l 1,1,-1
 804 0 l 1,2,-1
 804 1062 l 1,3,-1
 1246 1062 l 1,0,-1
537 265 m 1,4,-1
 734 265 l 1,5,-1
 734 133 l 1,6,-1
 606 0 l 1,7,-1
 361 0 l 1,8,-1
 95 265 l 1,9,-1
 95 1062 l 1,10,-1
 537 1062 l 1,11,-1
 537 265 l 1,4,-1
306 1393 m 1,12,-1
 1035 1393 l 1,13,-1
 1035 1223 l 1,14,-1
 306 1223 l 1,15,-1
 306 1393 l 1,12,-1
EndSplineSet
EndChar

StartChar: Ubreve
Encoding: 364 364 320
Width: 1495
GlyphClass: 2
Flags: W
LayerCount: 2
Fore
SplineSet
1388 265 m 1,0,-1
 1123 0 l 1,1,-1
 782 0 l 1,2,-1
 782 265 l 1,3,-1
 946 265 l 1,4,-1
 946 1327 l 1,5,-1
 1388 1327 l 1,6,-1
 1388 265 l 1,0,-1
549 265 m 1,7,-1
 712 265 l 1,8,-1
 712 0 l 1,9,-1
 372 0 l 1,10,-1
 106 265 l 1,11,-1
 106 1327 l 1,12,-1
 549 1327 l 1,13,-1
 549 265 l 1,7,-1
375 1716 m 1,14,-1
 513 1755 l 1,15,-1
 585 1603 l 1,16,-1
 890 1603 l 1,17,-1
 962 1755 l 1,18,-1
 1100 1716 l 1,19,-1
 1064 1535 l 1,20,-1
 918 1391 l 1,21,-1
 557 1391 l 1,22,-1
 411 1535 l 1,23,-1
 375 1716 l 1,14,-1
EndSplineSet
EndChar

StartChar: ubreve
Encoding: 365 365 321
Width: 1350
GlyphClass: 2
Flags: W
LayerCount: 2
Fore
SplineSet
1246 1062 m 1,0,-1
 1246 0 l 1,1,-1
 804 0 l 1,2,-1
 804 1062 l 1,3,-1
 1246 1062 l 1,0,-1
537 265 m 1,4,-1
 734 265 l 1,5,-1
 734 133 l 1,6,-1
 606 0 l 1,7,-1
 361 0 l 1,8,-1
 95 265 l 1,9,-1
 95 1062 l 1,10,-1
 537 1062 l 1,11,-1
 537 265 l 1,4,-1
287 1530 m 1,12,-1
 425 1569 l 1,13,-1
 507 1387 l 1,14,-1
 832 1387 l 1,15,-1
 914 1569 l 1,16,-1
 1052 1530 l 1,17,-1
 996 1299 l 1,18,-1
 850 1155 l 1,19,-1
 489 1155 l 1,20,-1
 343 1299 l 1,21,-1
 287 1530 l 1,12,-1
EndSplineSet
EndChar

StartChar: Uring
Encoding: 366 366 322
Width: 1495
GlyphClass: 2
Flags: W
LayerCount: 2
Fore
SplineSet
1388 265 m 1,0,-1
 1123 0 l 1,1,-1
 782 0 l 1,2,-1
 782 265 l 1,3,-1
 946 265 l 1,4,-1
 946 1327 l 1,5,-1
 1388 1327 l 1,6,-1
 1388 265 l 1,0,-1
549 265 m 1,7,-1
 712 265 l 1,8,-1
 712 0 l 1,9,-1
 372 0 l 1,10,-1
 106 265 l 1,11,-1
 106 1327 l 1,12,-1
 549 1327 l 1,13,-1
 549 265 l 1,7,-1
780 1333 m 1,14,-1
 780 1489 l 1,15,-1
 858 1489 l 1,16,-1
 858 1610 l 1,17,-1
 780 1610 l 1,18,-1
 780 1765 l 1,19,-1
 897 1765 l 1,20,-1
 1036 1628 l 1,21,-1
 1036 1470 l 1,22,-1
 897 1333 l 1,23,-1
 780 1333 l 1,14,-1
711 1489 m 1,24,-1
 711 1333 l 1,25,-1
 592 1333 l 1,26,-1
 455 1470 l 1,27,-1
 455 1628 l 1,28,-1
 592 1765 l 1,29,-1
 711 1765 l 1,30,-1
 711 1610 l 1,31,-1
 634 1610 l 1,32,-1
 634 1489 l 1,33,-1
 711 1489 l 1,24,-1
EndSplineSet
EndChar

StartChar: uring
Encoding: 367 367 323
Width: 1350
GlyphClass: 2
Flags: W
LayerCount: 2
Fore
SplineSet
1246 1062 m 1,0,-1
 1246 0 l 1,1,-1
 804 0 l 1,2,-1
 804 1062 l 1,3,-1
 1246 1062 l 1,0,-1
537 265 m 1,4,-1
 734 265 l 1,5,-1
 734 133 l 1,6,-1
 606 0 l 1,7,-1
 361 0 l 1,8,-1
 95 265 l 1,9,-1
 95 1062 l 1,10,-1
 537 1062 l 1,11,-1
 537 265 l 1,4,-1
703 1200 m 1,12,-1
 703 1356 l 1,13,-1
 781 1356 l 1,14,-1
 781 1527 l 1,15,-1
 703 1527 l 1,16,-1
 703 1682 l 1,17,-1
 800 1682 l 1,18,-1
 939 1545 l 1,19,-1
 939 1337 l 1,20,-1
 800 1200 l 1,21,-1
 703 1200 l 1,12,-1
634 1356 m 1,22,-1
 634 1200 l 1,23,-1
 535 1200 l 1,24,-1
 398 1337 l 1,25,-1
 398 1545 l 1,26,-1
 535 1682 l 1,27,-1
 634 1682 l 1,28,-1
 634 1527 l 1,29,-1
 557 1527 l 1,30,-1
 557 1356 l 1,31,-1
 634 1356 l 1,22,-1
EndSplineSet
EndChar

StartChar: Uhungarumlaut
Encoding: 368 368 324
Width: 1495
GlyphClass: 2
Flags: W
LayerCount: 2
Fore
SplineSet
1388 265 m 1,0,-1
 1123 0 l 1,1,-1
 782 0 l 1,2,-1
 782 265 l 1,3,-1
 946 265 l 1,4,-1
 946 1327 l 1,5,-1
 1388 1327 l 1,6,-1
 1388 265 l 1,0,-1
549 265 m 1,7,-1
 712 265 l 1,8,-1
 712 0 l 1,9,-1
 372 0 l 1,10,-1
 106 265 l 1,11,-1
 106 1327 l 1,12,-1
 549 1327 l 1,13,-1
 549 265 l 1,7,-1
717 1766 m 1,14,-1
 865 1718 l 1,15,-1
 867 1579 l 1,16,-1
 523 1414 l 1,17,-1
 434 1526 l 1,18,-1
 717 1766 l 1,14,-1
1241 1766 m 1,19,-1
 1389 1718 l 1,20,-1
 1391 1579 l 1,21,-1
 1047 1414 l 1,22,-1
 958 1526 l 1,23,-1
 1241 1766 l 1,19,-1
EndSplineSet
EndChar

StartChar: uhungarumlaut
Encoding: 369 369 325
Width: 1350
GlyphClass: 2
Flags: W
LayerCount: 2
Fore
SplineSet
1246 1062 m 1,0,-1
 1246 0 l 1,1,-1
 804 0 l 1,2,-1
 804 1062 l 1,3,-1
 1246 1062 l 1,0,-1
537 265 m 1,4,-1
 734 265 l 1,5,-1
 734 133 l 1,6,-1
 606 0 l 1,7,-1
 361 0 l 1,8,-1
 95 265 l 1,9,-1
 95 1062 l 1,10,-1
 537 1062 l 1,11,-1
 537 265 l 1,4,-1
653 1607 m 1,12,-1
 837 1552 l 1,13,-1
 823 1371 l 1,14,-1
 417 1144 l 1,15,-1
 315 1271 l 1,16,-1
 653 1607 l 1,12,-1
1201 1607 m 1,17,-1
 1385 1552 l 1,18,-1
 1371 1371 l 1,19,-1
 965 1144 l 1,20,-1
 863 1271 l 1,21,-1
 1201 1607 l 1,17,-1
EndSplineSet
EndChar

StartChar: Uogonek
Encoding: 370 370 326
Width: 1495
GlyphClass: 2
Flags: W
LayerCount: 2
Fore
SplineSet
1388 265 m 1,0,-1
 1123 0 l 1,1,-1
 782 0 l 1,2,-1
 782 265 l 1,3,-1
 946 265 l 1,4,-1
 946 1327 l 1,5,-1
 1388 1327 l 1,6,-1
 1388 265 l 1,0,-1
549 265 m 1,7,-1
 712 265 l 1,8,-1
 712 0 l 1,9,-1
 372 0 l 1,10,-1
 106 265 l 1,11,-1
 106 1327 l 1,12,-1
 549 1327 l 1,13,-1
 549 265 l 1,7,-1
1263 -175 m 1,14,-1
 1263 -445 l 1,15,-1
 981 -445 l 1,16,-1
 806 -245 l 1,17,-1
 806 -62 l 1,18,-1
 1008 -62 l 1,19,-1
 1008 -175 l 1,20,-1
 1263 -175 l 1,14,-1
EndSplineSet
EndChar

StartChar: uogonek
Encoding: 371 371 327
Width: 1350
GlyphClass: 2
Flags: W
LayerCount: 2
Fore
SplineSet
1246 1062 m 1,0,-1
 1246 0 l 1,1,-1
 804 0 l 1,2,-1
 804 1062 l 1,3,-1
 1246 1062 l 1,0,-1
537 265 m 1,4,-1
 734 265 l 1,5,-1
 734 133 l 1,6,-1
 606 0 l 1,7,-1
 361 0 l 1,8,-1
 95 265 l 1,9,-1
 95 1062 l 1,10,-1
 537 1062 l 1,11,-1
 537 265 l 1,4,-1
1246 -175 m 1,12,-1
 1246 -445 l 1,13,-1
 964 -445 l 1,14,-1
 789 -245 l 1,15,-1
 789 -62 l 1,16,-1
 991 -62 l 1,17,-1
 991 -175 l 1,18,-1
 1246 -175 l 1,12,-1
EndSplineSet
EndChar

StartChar: Wcircumflex
Encoding: 372 372 328
Width: 1928
GlyphClass: 2
Flags: W
LayerCount: 2
Fore
SplineSet
609 598 m 1,0,-1
 742 1155 l 1,1,-1
 915 525 l 1,2,-1
 772 0 l 1,3,-1
 371 0 l 1,4,-1
 -26 1327 l 1,5,-1
 414 1327 l 1,6,-1
 609 598 l 1,0,-1
1547 0 m 1,7,-1
 1125 0 l 1,8,-1
 761 1327 l 1,9,-1
 1207 1327 l 1,10,-1
 1547 0 l 1,7,-1
1551 1327 m 1,11,-1
 1954 1327 l 1,12,-1
 1594 69 l 1,13,-1
 1414 776 l 1,14,-1
 1551 1327 l 1,11,-1
882 1732 m 1,15,-1
 1134 1732 l 1,16,-1
 1388 1472 l 1,17,-1
 1312 1393 l 1,18,-1
 1009 1552 l 1,19,-1
 703 1393 l 1,20,-1
 626 1473 l 1,21,-1
 882 1732 l 1,15,-1
EndSplineSet
EndChar

StartChar: wcircumflex
Encoding: 373 373 329
Width: 1846
GlyphClass: 2
Flags: W
LayerCount: 2
Fore
SplineSet
-14 1062 m 1,0,-1
 408 1062 l 1,1,-1
 581 509 l 1,2,-1
 704 892 l 1,3,-1
 863 403 l 1,4,-1
 737 -1 l 1,5,-1
 736 0 l 1,6,-1
 367 0 l 1,7,-1
 -14 1062 l 1,0,-1
710 1062 m 1,8,-1
 1127 1062 l 1,9,-1
 1469 0 l 1,10,-1
 1068 0 l 1,11,-1
 710 1062 l 1,8,-1
1513 66 m 1,12,-1
 1327 638 l 1,13,-1
 1446 1062 l 1,14,-1
 1860 1062 l 1,15,-1
 1513 66 l 1,12,-1
1368 1250 m 1,16,-1
 1275 1153 l 1,17,-1
 921 1363 l 1,18,-1
 568 1153 l 1,19,-1
 474 1250 l 1,20,-1
 769 1585 l 1,21,-1
 1073 1585 l 1,22,-1
 1368 1250 l 1,16,-1
EndSplineSet
EndChar

StartChar: Ycircumflex
Encoding: 374 374 330
Width: 1297
GlyphClass: 2
Flags: W
LayerCount: 2
Fore
SplineSet
424 422 m 1,0,-1
 -26 1327 l 1,1,-1
 408 1327 l 1,2,-1
 867 391 l 1,3,-1
 867 0 l 1,4,-1
 424 0 l 1,5,-1
 424 422 l 1,0,-1
895 484 m 1,6,-1
 680 920 l 1,7,-1
 898 1327 l 1,8,-1
 1323 1327 l 1,9,-1
 895 484 l 1,6,-1
521 1731 m 1,10,-1
 773 1731 l 1,11,-1
 1027 1471 l 1,12,-1
 951 1392 l 1,13,-1
 648 1551 l 1,14,-1
 342 1392 l 1,15,-1
 265 1472 l 1,16,-1
 521 1731 l 1,10,-1
EndSplineSet
EndChar

StartChar: ycircumflex
Encoding: 375 375 331
Width: 1221
GlyphClass: 2
Flags: W
LayerCount: 2
Fore
SplineSet
696 -370 m 1,0,-1
 272 -370 l 1,1,-1
 810 1062 l 1,2,-1
 1235 1062 l 1,3,-1
 696 -370 l 1,0,-1
-14 1062 m 1,4,-1
 427 1062 l 1,5,-1
 576 630 l 1,6,-1
 378 89 l 1,7,-1
 -14 1062 l 1,4,-1
1067 1250 m 1,8,-1
 974 1153 l 1,9,-1
 620 1363 l 1,10,-1
 267 1153 l 1,11,-1
 173 1250 l 1,12,-1
 468 1585 l 1,13,-1
 772 1585 l 1,14,-1
 1067 1250 l 1,8,-1
EndSplineSet
EndChar

StartChar: Ydieresis
Encoding: 376 376 332
Width: 1297
GlyphClass: 2
Flags: W
LayerCount: 2
Fore
SplineSet
424 422 m 1,0,-1
 -26 1327 l 1,1,-1
 408 1327 l 1,2,-1
 867 391 l 1,3,-1
 867 0 l 1,4,-1
 424 0 l 1,5,-1
 424 422 l 1,0,-1
895 484 m 1,6,-1
 680 920 l 1,7,-1
 898 1327 l 1,8,-1
 1323 1327 l 1,9,-1
 895 484 l 1,6,-1
216 1741 m 1,10,-1
 552 1741 l 1,11,-1
 552 1460 l 1,12,-1
 216 1460 l 1,13,-1
 216 1741 l 1,10,-1
746 1741 m 1,14,-1
 1082 1741 l 1,15,-1
 1082 1460 l 1,16,-1
 746 1460 l 1,17,-1
 746 1741 l 1,14,-1
EndSplineSet
EndChar

StartChar: Zacute
Encoding: 377 377 333
Width: 1271
GlyphClass: 2
Flags: W
LayerCount: 2
Fore
SplineSet
52 248 m 1,0,-1
 919 1327 l 1,1,-1
 1219 1327 l 1,2,-1
 1219 1070 l 1,3,-1
 343 0 l 1,4,-1
 52 0 l 1,5,-1
 52 248 l 1,0,-1
1201 0 m 1,6,-1
 432 0 l 1,7,-1
 684 291 l 1,8,-1
 1201 291 l 1,9,-1
 1201 0 l 1,6,-1
79 1327 m 1,10,-1
 832 1327 l 1,11,-1
 581 1037 l 1,12,-1
 79 1037 l 1,13,-1
 79 1327 l 1,10,-1
934 1767 m 1,14,-1
 1089 1689 l 1,15,-1
 1042 1520 l 1,16,-1
 539 1405 l 1,17,-1
 488 1527 l 1,18,-1
 934 1767 l 1,14,-1
EndSplineSet
EndChar

StartChar: zacute
Encoding: 378 378 334
Width: 1181
GlyphClass: 2
Flags: W
LayerCount: 2
Fore
SplineSet
1091 0 m 1,0,-1
 473 0 l 1,1,-1
 708 265 l 1,2,-1
 1091 265 l 1,3,-1
 1091 0 l 1,0,-1
105 1062 m 1,4,-1
 702 1062 l 1,5,-1
 473 797 l 1,6,-1
 105 797 l 1,7,-1
 105 1062 l 1,4,-1
95 257 m 1,8,-1
 785 1062 l 1,9,-1
 1090 1062 l 1,10,-1
 1090 797 l 1,11,-1
 391 0 l 1,12,-1
 95 0 l 1,13,-1
 95 257 l 1,8,-1
835 1607 m 1,14,-1
 1019 1522 l 1,15,-1
 965 1311 l 1,16,-1
 411 1144 l 1,17,-1
 349 1291 l 1,18,-1
 835 1607 l 1,14,-1
EndSplineSet
EndChar

StartChar: Zdotaccent
Encoding: 379 379 335
Width: 1271
GlyphClass: 2
Flags: W
LayerCount: 2
Fore
SplineSet
52 248 m 1,0,-1
 919 1327 l 1,1,-1
 1219 1327 l 1,2,-1
 1219 1070 l 1,3,-1
 343 0 l 1,4,-1
 52 0 l 1,5,-1
 52 248 l 1,0,-1
1201 0 m 1,6,-1
 432 0 l 1,7,-1
 684 291 l 1,8,-1
 1201 291 l 1,9,-1
 1201 0 l 1,6,-1
79 1327 m 1,10,-1
 832 1327 l 1,11,-1
 581 1037 l 1,12,-1
 79 1037 l 1,13,-1
 79 1327 l 1,10,-1
482 1682 m 1,14,-1
 818 1682 l 1,15,-1
 818 1461 l 1,16,-1
 482 1461 l 1,17,-1
 482 1682 l 1,14,-1
EndSplineSet
EndChar

StartChar: zdotaccent
Encoding: 380 380 336
Width: 1181
GlyphClass: 2
Flags: W
LayerCount: 2
Fore
SplineSet
1091 0 m 1,0,-1
 473 0 l 1,1,-1
 708 265 l 1,2,-1
 1091 265 l 1,3,-1
 1091 0 l 1,0,-1
105 1062 m 1,4,-1
 702 1062 l 1,5,-1
 473 797 l 1,6,-1
 105 797 l 1,7,-1
 105 1062 l 1,4,-1
95 257 m 1,8,-1
 785 1062 l 1,9,-1
 1090 1062 l 1,10,-1
 1090 797 l 1,11,-1
 391 0 l 1,12,-1
 95 0 l 1,13,-1
 95 257 l 1,8,-1
466 1560 m 1,14,-1
 802 1560 l 1,15,-1
 802 1279 l 1,16,-1
 466 1279 l 1,17,-1
 466 1560 l 1,14,-1
EndSplineSet
EndChar

StartChar: Zcaron
Encoding: 381 381 337
Width: 1271
GlyphClass: 2
Flags: W
LayerCount: 2
Fore
SplineSet
52 248 m 1,0,-1
 919 1327 l 1,1,-1
 1219 1327 l 1,2,-1
 1219 1070 l 1,3,-1
 343 0 l 1,4,-1
 52 0 l 1,5,-1
 52 248 l 1,0,-1
1201 0 m 1,6,-1
 432 0 l 1,7,-1
 684 291 l 1,8,-1
 1201 291 l 1,9,-1
 1201 0 l 1,6,-1
79 1327 m 1,10,-1
 832 1327 l 1,11,-1
 581 1037 l 1,12,-1
 79 1037 l 1,13,-1
 79 1327 l 1,10,-1
775 1393 m 1,14,-1
 523 1393 l 1,15,-1
 269 1654 l 1,16,-1
 346 1732 l 1,17,-1
 648 1574 l 1,18,-1
 954 1732 l 1,19,-1
 1032 1653 l 1,20,-1
 775 1393 l 1,14,-1
EndSplineSet
EndChar

StartChar: zcaron
Encoding: 382 382 338
Width: 1181
GlyphClass: 2
Flags: W
LayerCount: 2
Fore
SplineSet
1091 0 m 1,0,-1
 473 0 l 1,1,-1
 708 265 l 1,2,-1
 1091 265 l 1,3,-1
 1091 0 l 1,0,-1
105 1062 m 1,4,-1
 702 1062 l 1,5,-1
 473 797 l 1,6,-1
 105 797 l 1,7,-1
 105 1062 l 1,4,-1
95 257 m 1,8,-1
 785 1062 l 1,9,-1
 1090 1062 l 1,10,-1
 1090 797 l 1,11,-1
 391 0 l 1,12,-1
 95 0 l 1,13,-1
 95 257 l 1,8,-1
195 1487 m 1,14,-1
 288 1584 l 1,15,-1
 641 1374 l 1,16,-1
 995 1584 l 1,17,-1
 1089 1487 l 1,18,-1
 794 1153 l 1,19,-1
 490 1153 l 1,20,-1
 195 1487 l 1,14,-1
EndSplineSet
EndChar

StartChar: florin
Encoding: 402 402 339
Width: 1194
GlyphClass: 2
Flags: W
LayerCount: 2
Fore
SplineSet
813 1202 m 1,0,-1
 611 -340 l 1,1,-1
 168 -340 l 1,2,-1
 295 578 l 1,3,-1
 190 578 l 1,4,-1
 224 843 l 1,5,-1
 329 843 l 1,6,-1
 372 1219 l 1,7,-1
 671 1467 l 1,8,-1
 1167 1467 l 1,9,-1
 1133 1202 l 1,10,-1
 813 1202 l 1,0,-1
805 578 m 1,11,-1
 842 843 l 1,12,-1
 1092 843 l 1,13,-1
 1058 578 l 1,14,-1
 805 578 l 1,11,-1
EndSplineSet
EndChar

StartChar: AEacute
Encoding: 508 508 340
Width: 2305
GlyphClass: 2
Flags: W
LayerCount: 2
Fore
SplineSet
1449 530 m 1,0,-1
 1449 0 l 1,1,-1
 1007 0 l 1,2,-1
 1007 1327 l 1,3,-1
 1449 1327 l 1,4,-1
 1449 797 l 1,5,-1
 1891 797 l 1,6,-1
 1891 530 l 1,7,-1
 1449 530 l 1,0,-1
939 211 m 1,8,-1
 560 211 l 1,9,-1
 465 0 l 1,10,-1
 9 0 l 1,11,-1
 642 1327 l 1,12,-1
 939 1327 l 1,13,-1
 939 1051 l 1,14,-1
 678 474 l 1,15,-1
 939 474 l 1,16,-1
 939 211 l 1,8,-1
1516 1062 m 1,17,-1
 1516 1327 l 1,18,-1
 2246 1327 l 1,19,-1
 2246 929 l 1,20,-1
 1803 929 l 1,21,-1
 1803 1062 l 1,22,-1
 1516 1062 l 1,17,-1
1516 0 m 1,23,-1
 1516 265 l 1,24,-1
 1803 265 l 1,25,-1
 1803 398 l 1,26,-1
 2246 398 l 1,27,-1
 2246 0 l 1,28,-1
 1516 0 l 1,23,-1
1522 1767 m 1,29,-1
 1677 1689 l 1,30,-1
 1630 1520 l 1,31,-1
 1127 1405 l 1,32,-1
 1076 1527 l 1,33,-1
 1522 1767 l 1,29,-1
EndSplineSet
EndChar

StartChar: aeacute
Encoding: 509 509 341
Width: 2030
GlyphClass: 2
Flags: W
LayerCount: 2
Fore
SplineSet
308 1062 m 1,0,-1
 925 1062 l 1,1,-1
 1017 973 l 1,2,-1
 1104 1062 l 1,3,-1
 1336 1062 l 1,4,-1
 1336 797 l 1,5,-1
 1236 797 l 1,6,-1
 1236 265 l 1,7,-1
 1336 265 l 1,8,-1
 1336 0 l 1,9,-1
 1104 0 l 1,10,-1
 1015 88 l 1,11,-1
 925 0 l 1,12,-1
 696 0 l 1,13,-1
 696 265 l 1,14,-1
 794 265 l 1,15,-1
 794 797 l 1,16,-1
 175 797 l 1,17,-1
 175 929 l 1,18,-1
 308 1062 l 1,0,-1
724 628 m 1,19,-1
 724 434 l 1,20,-1
 529 434 l 1,21,-1
 529 265 l 1,22,-1
 626 265 l 1,23,-1
 626 0 l 1,24,-1
 264 0 l 1,25,-1
 86 175 l 1,26,-1
 86 451 l 1,27,-1
 264 628 l 1,28,-1
 724 628 l 1,19,-1
1309 434 m 1,29,-1
 1309 628 l 1,30,-1
 1502 628 l 1,31,-1
 1502 797 l 1,32,-1
 1406 797 l 1,33,-1
 1406 1062 l 1,34,-1
 1679 1062 l 1,35,-1
 1945 797 l 1,36,-1
 1945 434 l 1,37,-1
 1309 434 l 1,29,-1
1406 0 m 1,38,-1
 1406 265 l 1,39,-1
 1900 265 l 1,40,-1
 1900 133 l 1,41,-1
 1768 0 l 1,42,-1
 1406 0 l 1,38,-1
1221 1607 m 1,43,-1
 1405 1522 l 1,44,-1
 1351 1311 l 1,45,-1
 797 1144 l 1,46,-1
 735 1291 l 1,47,-1
 1221 1607 l 1,43,-1
EndSplineSet
EndChar

StartChar: Scommaaccent
Encoding: 536 536 342
Width: 1477
GlyphClass: 2
Flags: W
LayerCount: 2
Fore
SplineSet
937 0 m 1,0,-1
 937 497 l 1,1,-1
 363 497 l 1,2,-1
 97 763 l 1,3,-1
 97 1062 l 1,4,-1
 363 1327 l 1,5,-1
 513 1327 l 1,6,-1
 513 856 l 1,7,-1
 1123 856 l 1,8,-1
 1380 590 l 1,9,-1
 1380 265 l 1,10,-1
 1115 0 l 1,11,-1
 937 0 l 1,0,-1
583 1088 m 1,12,-1
 583 1327 l 1,13,-1
 1114 1327 l 1,14,-1
 1344 1096 l 1,15,-1
 1344 955 l 1,16,-1
 937 955 l 1,17,-1
 937 1088 l 1,18,-1
 583 1088 l 1,12,-1
97 398 m 1,19,-1
 539 398 l 1,20,-1
 539 240 l 1,21,-1
 867 240 l 1,22,-1
 867 0 l 1,23,-1
 320 0 l 1,24,-1
 97 265 l 1,25,-1
 97 398 l 1,19,-1
543 -169 m 1,26,-1
 985 -169 l 1,27,-1
 985 -416 l 1,28,-1
 818 -689 l 1,29,-1
 640 -689 l 1,30,-1
 701 -461 l 1,31,-1
 543 -461 l 1,32,-1
 543 -169 l 1,26,-1
EndSplineSet
EndChar

StartChar: scommaaccent
Encoding: 537 537 343
Width: 1315
GlyphClass: 2
Flags: W
LayerCount: 2
Fore
SplineSet
335 1062 m 1,0,-1
 512 1062 l 1,1,-1
 512 687 l 1,2,-1
 1016 687 l 1,3,-1
 1246 455 l 1,4,-1
 1246 248 l 1,5,-1
 999 0 l 1,6,-1
 804 0 l 1,7,-1
 804 401 l 1,8,-1
 326 401 l 1,9,-1
 96 622 l 1,10,-1
 96 824 l 1,11,-1
 335 1062 l 1,0,-1
538 195 m 1,12,-1
 734 195 l 1,13,-1
 734 0 l 1,14,-1
 279 1 l 1,15,-1
 95 219 l 1,16,-1
 95 304 l 1,17,-1
 538 304 l 1,18,-1
 538 195 l 1,12,-1
804 867 m 1,19,-1
 582 867 l 1,20,-1
 582 1062 l 1,21,-1
 1052 1062 l 1,22,-1
 1210 904 l 1,23,-1
 1210 784 l 1,24,-1
 804 784 l 1,25,-1
 804 867 l 1,19,-1
455 -169 m 1,26,-1
 897 -169 l 1,27,-1
 897 -416 l 1,28,-1
 730 -689 l 1,29,-1
 552 -689 l 1,30,-1
 613 -461 l 1,31,-1
 455 -461 l 1,32,-1
 455 -169 l 1,26,-1
EndSplineSet
EndChar

StartChar: dotlessj
Encoding: 567 567 344
Width: 653
GlyphClass: 2
Flags: W
LayerCount: 2
Fore
SplineSet
-100 -88 m 1,0,-1
 105 -88 l 1,1,-1
 105 1062 l 1,2,-1
 548 1062 l 1,3,-1
 548 -88 l 1,4,-1
 282 -354 l 1,5,-1
 -100 -354 l 1,6,-1
 -100 -88 l 1,0,-1
EndSplineSet
EndChar

StartChar: circumflex
Encoding: 710 710 345
Width: 1240
GlyphClass: 2
Flags: W
LayerCount: 2
Fore
SplineSet
1067 1250 m 1,0,-1
 974 1153 l 1,1,-1
 620 1363 l 1,2,-1
 267 1153 l 1,3,-1
 173 1250 l 1,4,-1
 468 1585 l 1,5,-1
 772 1585 l 1,6,-1
 1067 1250 l 1,0,-1
EndSplineSet
EndChar

StartChar: caron
Encoding: 711 711 346
Width: 1240
GlyphClass: 2
Flags: W
LayerCount: 2
Fore
SplineSet
173 1487 m 1,0,-1
 266 1584 l 1,1,-1
 619 1374 l 1,2,-1
 973 1584 l 1,3,-1
 1067 1487 l 1,4,-1
 772 1153 l 1,5,-1
 468 1153 l 1,6,-1
 173 1487 l 1,0,-1
EndSplineSet
EndChar

StartChar: breve
Encoding: 728 728 347
Width: 1240
GlyphClass: 2
Flags: W
LayerCount: 2
Fore
SplineSet
240 1530 m 1,0,-1
 378 1569 l 1,1,-1
 460 1387 l 1,2,-1
 785 1387 l 1,3,-1
 867 1569 l 1,4,-1
 1005 1530 l 1,5,-1
 949 1299 l 1,6,-1
 803 1155 l 1,7,-1
 442 1155 l 1,8,-1
 296 1299 l 1,9,-1
 240 1530 l 1,0,-1
EndSplineSet
EndChar

StartChar: dotaccent
Encoding: 729 729 348
Width: 680
GlyphClass: 2
Flags: W
LayerCount: 2
Fore
SplineSet
170 1560 m 1,0,-1
 506 1560 l 1,1,-1
 506 1279 l 1,2,-1
 170 1279 l 1,3,-1
 170 1560 l 1,0,-1
EndSplineSet
EndChar

StartChar: ring
Encoding: 730 730 349
Width: 1145
GlyphClass: 2
Flags: W
LayerCount: 2
Fore
SplineSet
605 1200 m 1,0,-1
 605 1356 l 1,1,-1
 683 1356 l 1,2,-1
 683 1527 l 1,3,-1
 605 1527 l 1,4,-1
 605 1682 l 1,5,-1
 702 1682 l 1,6,-1
 841 1545 l 1,7,-1
 841 1337 l 1,8,-1
 702 1200 l 1,9,-1
 605 1200 l 1,0,-1
536 1356 m 1,10,-1
 536 1200 l 1,11,-1
 437 1200 l 1,12,-1
 300 1337 l 1,13,-1
 300 1545 l 1,14,-1
 437 1682 l 1,15,-1
 536 1682 l 1,16,-1
 536 1527 l 1,17,-1
 459 1527 l 1,18,-1
 459 1356 l 1,19,-1
 536 1356 l 1,10,-1
EndSplineSet
EndChar

StartChar: ogonek
Encoding: 731 731 350
Width: 1008
GlyphClass: 2
Flags: W
LayerCount: 2
Fore
SplineSet
852 -175 m 1,0,-1
 852 -445 l 1,1,-1
 570 -445 l 1,2,-1
 395 -245 l 1,3,-1
 395 -62 l 1,4,-1
 597 -62 l 1,5,-1
 597 -175 l 1,6,-1
 852 -175 l 1,0,-1
EndSplineSet
EndChar

StartChar: tilde
Encoding: 732 732 351
Width: 1309
GlyphClass: 2
Flags: W
LayerCount: 2
Fore
SplineSet
694 1558 m 1,0,-1
 802 1407 l 1,1,-1
 869 1407 l 1,2,-1
 1007 1522 l 1,3,-1
 1094 1435 l 1,4,-1
 899 1221 l 1,5,-1
 616 1221 l 1,6,-1
 508 1371 l 1,7,-1
 441 1371 l 1,8,-1
 303 1257 l 1,9,-1
 216 1344 l 1,10,-1
 411 1558 l 1,11,-1
 694 1558 l 1,0,-1
EndSplineSet
EndChar

StartChar: hungarumlaut
Encoding: 733 733 352
Width: 1098
GlyphClass: 2
Flags: W
LayerCount: 2
Fore
SplineSet
542 1607 m 1,0,-1
 726 1552 l 1,1,-1
 712 1371 l 1,2,-1
 306 1144 l 1,3,-1
 204 1271 l 1,4,-1
 542 1607 l 1,0,-1
1090 1607 m 1,5,-1
 1274 1552 l 1,6,-1
 1260 1371 l 1,7,-1
 854 1144 l 1,8,-1
 752 1271 l 1,9,-1
 1090 1607 l 1,5,-1
EndSplineSet
EndChar

StartChar: Delta
Encoding: 916 916 353
AltUni2: 002206.ffffffff.0
Width: 1500
GlyphClass: 2
Flags: W
LayerCount: 2
Fore
SplineSet
602 263 m 1,0,-1
 942 263 l 1,1,-1
 532 1327 l 1,2,-1
 963 1327 l 1,3,-1
 1491 0 l 1,4,-1
 510 0 l 1,5,-1
 602 263 l 1,0,-1
436 0 m 1,6,-1
 9 0 l 1,7,-1
 484 1267 l 1,8,-1
 680 740 l 1,9,-1
 436 0 l 1,6,-1
EndSplineSet
EndChar

StartChar: pi
Encoding: 960 960 354
Width: 1383
GlyphClass: 2
Flags: W
LayerCount: 2
Fore
SplineSet
95 724 m 1,0,-1
 535 724 l 1,1,-1
 535 0 l 1,2,-1
 95 0 l 1,3,-1
 95 724 l 1,0,-1
95 1062 m 1,4,-1
 1289 1062 l 1,5,-1
 1289 793 l 1,6,-1
 95 793 l 1,7,-1
 95 1062 l 1,4,-1
850 724 m 1,8,-1
 1290 724 l 1,9,-1
 1290 0 l 1,10,-1
 850 0 l 1,11,-1
 850 724 l 1,8,-1
EndSplineSet
EndChar

StartChar: uni1E02
Encoding: 7682 7682 355
Width: 1495
GlyphClass: 2
Flags: W
LayerCount: 2
Fore
SplineSet
957 1062 m 1,0,-1
 629 1062 l 1,1,-1
 629 1327 l 1,2,-1
 1142 1327 l 1,3,-1
 1408 1062 l 1,4,-1
 1408 792 l 1,5,-1
 1275 659 l 1,6,-1
 1408 526 l 1,7,-1
 1408 265 l 1,8,-1
 1142 0 l 1,9,-1
 629 0 l 1,10,-1
 629 265 l 1,11,-1
 957 265 l 1,12,-1
 957 548 l 1,13,-1
 629 548 l 1,14,-1
 629 779 l 1,15,-1
 957 779 l 1,16,-1
 957 1062 l 1,0,-1
117 1327 m 1,17,-1
 559 1327 l 1,18,-1
 559 0 l 1,19,-1
 117 0 l 1,20,-1
 117 1327 l 1,17,-1
584 1682 m 1,21,-1
 920 1682 l 1,22,-1
 920 1461 l 1,23,-1
 584 1461 l 1,24,-1
 584 1682 l 1,21,-1
EndSplineSet
EndChar

StartChar: uni1E03
Encoding: 7683 7683 356
Width: 1340
GlyphClass: 2
Flags: W
LayerCount: 2
Fore
SplineSet
546 1467 m 1,0,-1
 546 0 l 1,1,-1
 104 0 l 1,2,-1
 104 1467 l 1,3,-1
 546 1467 l 1,0,-1
814 797 m 1,4,-1
 616 797 l 1,5,-1
 616 931 l 1,6,-1
 746 1062 l 1,7,-1
 988 1062 l 1,8,-1
 1254 797 l 1,9,-1
 1254 265 l 1,10,-1
 988 0 l 1,11,-1
 616 0 l 1,12,-1
 616 248 l 1,13,-1
 814 248 l 1,14,-1
 814 797 l 1,4,-1
813 1560 m 1,15,-1
 1149 1560 l 1,16,-1
 1149 1279 l 1,17,-1
 813 1279 l 1,18,-1
 813 1560 l 1,15,-1
EndSplineSet
EndChar

StartChar: uni1E0A
Encoding: 7690 7690 357
Width: 1486
GlyphClass: 2
Flags: W
LayerCount: 2
Fore
SplineSet
629 0 m 1,0,-1
 629 265 l 1,1,-1
 957 265 l 1,2,-1
 957 1062 l 1,3,-1
 629 1062 l 1,4,-1
 629 1327 l 1,5,-1
 1134 1327 l 1,6,-1
 1400 1062 l 1,7,-1
 1400 265 l 1,8,-1
 1134 0 l 1,9,-1
 629 0 l 1,0,-1
117 1327 m 1,10,-1
 559 1327 l 1,11,-1
 559 0 l 1,12,-1
 117 0 l 1,13,-1
 117 1327 l 1,10,-1
561 1682 m 1,14,-1
 897 1682 l 1,15,-1
 897 1461 l 1,16,-1
 561 1461 l 1,17,-1
 561 1682 l 1,14,-1
EndSplineSet
EndChar

StartChar: uni1E0B
Encoding: 7691 7691 358
Width: 1366
GlyphClass: 2
Flags: W
LayerCount: 2
Fore
SplineSet
1262 1467 m 1,0,-1
 1262 0 l 1,1,-1
 820 0 l 1,2,-1
 820 1467 l 1,3,-1
 1262 1467 l 1,0,-1
537 248 m 1,4,-1
 750 248 l 1,5,-1
 750 105 l 1,6,-1
 645 0 l 1,7,-1
 334 0 l 1,8,-1
 95 239 l 1,9,-1
 95 823 l 1,10,-1
 334 1062 l 1,11,-1
 750 1062 l 1,12,-1
 750 797 l 1,13,-1
 537 797 l 1,14,-1
 537 248 l 1,4,-1
170 1560 m 1,15,-1
 506 1560 l 1,16,-1
 506 1279 l 1,17,-1
 170 1279 l 1,18,-1
 170 1560 l 1,15,-1
EndSplineSet
EndChar

StartChar: uni1E1E
Encoding: 7710 7710 359
Width: 1329
GlyphClass: 2
Flags: W
LayerCount: 2
Fore
SplineSet
117 1327 m 1,0,-1
 559 1327 l 1,1,-1
 559 734 l 1,2,-1
 967 734 l 1,3,-1
 967 473 l 1,4,-1
 559 473 l 1,5,-1
 559 0 l 1,6,-1
 117 0 l 1,7,-1
 117 1327 l 1,0,-1
629 1062 m 1,8,-1
 629 1327 l 1,9,-1
 1303 1327 l 1,10,-1
 1303 887 l 1,11,-1
 861 887 l 1,12,-1
 861 1062 l 1,13,-1
 629 1062 l 1,8,-1
514 1682 m 1,14,-1
 850 1682 l 1,15,-1
 850 1461 l 1,16,-1
 514 1461 l 1,17,-1
 514 1682 l 1,14,-1
EndSplineSet
EndChar

StartChar: uni1E1F
Encoding: 7711 7711 360
Width: 907
GlyphClass: 2
Flags: W
LayerCount: 2
Fore
SplineSet
586 1202 m 1,0,-1
 586 0 l 1,1,-1
 143 0 l 1,2,-1
 143 797 l 1,3,-1
 38 797 l 1,4,-1
 38 1062 l 1,5,-1
 143 1062 l 1,6,-1
 143 1219 l 1,7,-1
 410 1467 l 1,8,-1
 906 1467 l 1,9,-1
 906 1202 l 1,10,-1
 586 1202 l 1,0,-1
653 797 m 1,11,-1
 656 1062 l 1,12,-1
 906 1062 l 1,13,-1
 906 797 l 1,14,-1
 653 797 l 1,11,-1
211 1830 m 1,15,-1
 547 1830 l 1,16,-1
 547 1549 l 1,17,-1
 211 1549 l 1,18,-1
 211 1830 l 1,15,-1
EndSplineSet
EndChar

StartChar: uni1E40
Encoding: 7744 7744 361
Width: 1848
GlyphClass: 2
Flags: W
LayerCount: 2
Fore
SplineSet
118 1327 m 1,0,-1
 588 1327 l 1,1,-1
 944 737 l 1,2,-1
 1224 1217 l 1,3,-1
 1224 549 l 1,4,-1
 905 0 l 1,5,-1
 118 1327 l 1,0,-1
1289 0 m 1,6,-1
 1289 1327 l 1,7,-1
 1731 1327 l 1,8,-1
 1731 0 l 1,9,-1
 1289 0 l 1,6,-1
117 0 m 1,10,-1
 117 1204 l 1,11,-1
 530 511 l 1,12,-1
 530 0 l 1,13,-1
 117 0 l 1,10,-1
761 1682 m 1,14,-1
 1097 1682 l 1,15,-1
 1097 1461 l 1,16,-1
 761 1461 l 1,17,-1
 761 1682 l 1,14,-1
EndSplineSet
EndChar

StartChar: uni1E41
Encoding: 7745 7745 362
Width: 2043
GlyphClass: 2
Flags: W
LayerCount: 2
Fore
SplineSet
119 0 m 1,0,-1
 119 1062 l 1,1,-1
 562 1062 l 1,2,-1
 562 0 l 1,3,-1
 119 0 l 1,0,-1
812 797 m 1,4,-1
 632 797 l 1,5,-1
 632 922 l 1,6,-1
 771 1062 l 1,7,-1
 1113 1062 l 1,8,-1
 1255 920 l 1,9,-1
 1255 0 l 1,10,-1
 812 0 l 1,11,-1
 812 797 l 1,4,-1
1505 797 m 1,12,-1
 1325 797 l 1,13,-1
 1325 920 l 1,14,-1
 1461 1062 l 1,15,-1
 1731 1062 l 1,16,-1
 1947 844 l 1,17,-1
 1947 0 l 1,18,-1
 1505 0 l 1,19,-1
 1505 797 l 1,12,-1
873 1560 m 1,20,-1
 1209 1560 l 1,21,-1
 1209 1279 l 1,22,-1
 873 1279 l 1,23,-1
 873 1560 l 1,20,-1
EndSplineSet
EndChar

StartChar: uni1E56
Encoding: 7766 7766 363
Width: 1458
GlyphClass: 2
Flags: W
LayerCount: 2
Fore
SplineSet
115 0 m 1,0,-1
 115 1327 l 1,1,-1
 549 1327 l 1,2,-1
 549 0 l 1,3,-1
 115 0 l 1,0,-1
619 1062 m 1,4,-1
 619 1327 l 1,5,-1
 1115 1327 l 1,6,-1
 1380 1062 l 1,7,-1
 1380 607 l 1,8,-1
 1115 341 l 1,9,-1
 619 341 l 1,10,-1
 619 607 l 1,11,-1
 940 607 l 1,12,-1
 940 1062 l 1,13,-1
 619 1062 l 1,4,-1
602 1682 m 1,14,-1
 938 1682 l 1,15,-1
 938 1461 l 1,16,-1
 602 1461 l 1,17,-1
 602 1682 l 1,14,-1
EndSplineSet
EndChar

StartChar: uni1E57
Encoding: 7767 7767 364
Width: 1349
GlyphClass: 2
Flags: W
LayerCount: 2
Fore
SplineSet
104 -354 m 1,0,-1
 104 1062 l 1,1,-1
 546 1062 l 1,2,-1
 546 -354 l 1,3,-1
 104 -354 l 1,0,-1
811 797 m 1,4,-1
 616 797 l 1,5,-1
 616 931 l 1,6,-1
 746 1062 l 1,7,-1
 988 1062 l 1,8,-1
 1254 797 l 1,9,-1
 1254 265 l 1,10,-1
 988 0 l 1,11,-1
 616 0 l 1,12,-1
 616 248 l 1,13,-1
 811 248 l 1,14,-1
 811 797 l 1,4,-1
669 1560 m 1,15,-1
 1005 1560 l 1,16,-1
 1005 1279 l 1,17,-1
 669 1279 l 1,18,-1
 669 1560 l 1,15,-1
EndSplineSet
EndChar

StartChar: uni1E60
Encoding: 7776 7776 365
Width: 1477
GlyphClass: 2
Flags: W
LayerCount: 2
Fore
SplineSet
937 0 m 1,0,-1
 937 497 l 1,1,-1
 363 497 l 1,2,-1
 97 763 l 1,3,-1
 97 1062 l 1,4,-1
 363 1327 l 1,5,-1
 513 1327 l 1,6,-1
 513 856 l 1,7,-1
 1123 856 l 1,8,-1
 1380 590 l 1,9,-1
 1380 265 l 1,10,-1
 1115 0 l 1,11,-1
 937 0 l 1,0,-1
583 1088 m 1,12,-1
 583 1327 l 1,13,-1
 1114 1327 l 1,14,-1
 1344 1096 l 1,15,-1
 1344 955 l 1,16,-1
 937 955 l 1,17,-1
 937 1088 l 1,18,-1
 583 1088 l 1,12,-1
97 398 m 1,19,-1
 539 398 l 1,20,-1
 539 240 l 1,21,-1
 867 240 l 1,22,-1
 867 0 l 1,23,-1
 320 0 l 1,24,-1
 97 265 l 1,25,-1
 97 398 l 1,19,-1
601 1688 m 1,26,-1
 937 1688 l 1,27,-1
 937 1467 l 1,28,-1
 601 1467 l 1,29,-1
 601 1688 l 1,26,-1
EndSplineSet
EndChar

StartChar: uni1E61
Encoding: 7777 7777 366
Width: 1315
GlyphClass: 2
Flags: W
LayerCount: 2
Fore
SplineSet
335 1062 m 1,0,-1
 512 1062 l 1,1,-1
 512 687 l 1,2,-1
 1016 687 l 1,3,-1
 1246 455 l 1,4,-1
 1246 248 l 1,5,-1
 999 0 l 1,6,-1
 804 0 l 1,7,-1
 804 401 l 1,8,-1
 326 401 l 1,9,-1
 96 622 l 1,10,-1
 96 824 l 1,11,-1
 335 1062 l 1,0,-1
538 195 m 1,12,-1
 734 195 l 1,13,-1
 734 0 l 1,14,-1
 279 1 l 1,15,-1
 95 219 l 1,16,-1
 95 304 l 1,17,-1
 538 304 l 1,18,-1
 538 195 l 1,12,-1
804 867 m 1,19,-1
 582 867 l 1,20,-1
 582 1062 l 1,21,-1
 1052 1062 l 1,22,-1
 1210 904 l 1,23,-1
 1210 784 l 1,24,-1
 804 784 l 1,25,-1
 804 867 l 1,19,-1
512 1560 m 1,26,-1
 848 1560 l 1,27,-1
 848 1279 l 1,28,-1
 512 1279 l 1,29,-1
 512 1560 l 1,26,-1
EndSplineSet
EndChar

StartChar: uni1E6A
Encoding: 7786 7786 367
Width: 1256
GlyphClass: 2
Flags: W
LayerCount: 2
Fore
SplineSet
398 969 m 1,0,-1
 858 969 l 1,1,-1
 858 0 l 1,2,-1
 398 0 l 1,3,-1
 398 969 l 1,0,-1
52 1327 m 1,4,-1
 1204 1327 l 1,5,-1
 1204 1038 l 1,6,-1
 52 1038 l 1,7,-1
 52 1327 l 1,4,-1
458 1681 m 1,8,-1
 794 1681 l 1,9,-1
 794 1460 l 1,10,-1
 458 1460 l 1,11,-1
 458 1681 l 1,8,-1
EndSplineSet
EndChar

StartChar: uni1E6B
Encoding: 7787 7787 368
Width: 915
GlyphClass: 2
Flags: W
LayerCount: 2
Fore
SplineSet
558 265 m 1,0,-1
 850 265 l 1,1,-1
 850 0 l 1,2,-1
 382 0 l 1,3,-1
 116 265 l 1,4,-1
 116 797 l 1,5,-1
 28 797 l 1,6,-1
 28 1062 l 1,7,-1
 116 1062 l 1,8,-1
 116 1177 l 1,9,-1
 558 1327 l 1,10,-1
 558 265 l 1,0,-1
628 797 m 1,11,-1
 628 1062 l 1,12,-1
 866 1062 l 1,13,-1
 866 797 l 1,14,-1
 628 797 l 1,11,-1
170 1664 m 1,15,-1
 506 1664 l 1,16,-1
 506 1383 l 1,17,-1
 170 1383 l 1,18,-1
 170 1664 l 1,15,-1
EndSplineSet
EndChar

StartChar: Wgrave
Encoding: 7808 7808 369
Width: 1928
GlyphClass: 2
Flags: W
LayerCount: 2
Fore
SplineSet
609 598 m 1,0,-1
 742 1155 l 1,1,-1
 915 525 l 1,2,-1
 772 0 l 1,3,-1
 371 0 l 1,4,-1
 -26 1327 l 1,5,-1
 414 1327 l 1,6,-1
 609 598 l 1,0,-1
1547 0 m 1,7,-1
 1125 0 l 1,8,-1
 761 1327 l 1,9,-1
 1207 1327 l 1,10,-1
 1547 0 l 1,7,-1
1551 1327 m 1,11,-1
 1954 1327 l 1,12,-1
 1594 69 l 1,13,-1
 1414 776 l 1,14,-1
 1551 1327 l 1,11,-1
1169 1527 m 1,15,-1
 1117 1405 l 1,16,-1
 615 1520 l 1,17,-1
 568 1689 l 1,18,-1
 723 1767 l 1,19,-1
 1169 1527 l 1,15,-1
EndSplineSet
EndChar

StartChar: wgrave
Encoding: 7809 7809 370
Width: 1846
GlyphClass: 2
Flags: W
LayerCount: 2
Fore
SplineSet
-14 1062 m 1,0,-1
 408 1062 l 1,1,-1
 581 509 l 1,2,-1
 704 892 l 1,3,-1
 863 403 l 1,4,-1
 737 -1 l 1,5,-1
 736 0 l 1,6,-1
 367 0 l 1,7,-1
 -14 1062 l 1,0,-1
710 1062 m 1,8,-1
 1127 1062 l 1,9,-1
 1469 0 l 1,10,-1
 1068 0 l 1,11,-1
 710 1062 l 1,8,-1
1513 66 m 1,12,-1
 1327 638 l 1,13,-1
 1446 1062 l 1,14,-1
 1860 1062 l 1,15,-1
 1513 66 l 1,12,-1
1214 1291 m 1,16,-1
 1153 1144 l 1,17,-1
 598 1311 l 1,18,-1
 544 1522 l 1,19,-1
 728 1607 l 1,20,-1
 1214 1291 l 1,16,-1
EndSplineSet
EndChar

StartChar: Wacute
Encoding: 7810 7810 371
Width: 1928
GlyphClass: 2
Flags: W
LayerCount: 2
Fore
SplineSet
609 598 m 1,0,-1
 742 1155 l 1,1,-1
 915 525 l 1,2,-1
 772 0 l 1,3,-1
 371 0 l 1,4,-1
 -26 1327 l 1,5,-1
 414 1327 l 1,6,-1
 609 598 l 1,0,-1
1547 0 m 1,7,-1
 1125 0 l 1,8,-1
 761 1327 l 1,9,-1
 1207 1327 l 1,10,-1
 1547 0 l 1,7,-1
1551 1327 m 1,11,-1
 1954 1327 l 1,12,-1
 1594 69 l 1,13,-1
 1414 776 l 1,14,-1
 1551 1327 l 1,11,-1
1295 1767 m 1,15,-1
 1450 1689 l 1,16,-1
 1403 1520 l 1,17,-1
 900 1405 l 1,18,-1
 849 1527 l 1,19,-1
 1295 1767 l 1,15,-1
EndSplineSet
EndChar

StartChar: wacute
Encoding: 7811 7811 372
Width: 1846
GlyphClass: 2
Flags: W
LayerCount: 2
Fore
SplineSet
-14 1062 m 1,0,-1
 408 1062 l 1,1,-1
 581 509 l 1,2,-1
 704 892 l 1,3,-1
 863 403 l 1,4,-1
 737 -1 l 1,5,-1
 736 0 l 1,6,-1
 367 0 l 1,7,-1
 -14 1062 l 1,0,-1
710 1062 m 1,8,-1
 1127 1062 l 1,9,-1
 1469 0 l 1,10,-1
 1068 0 l 1,11,-1
 710 1062 l 1,8,-1
1513 66 m 1,12,-1
 1327 638 l 1,13,-1
 1446 1062 l 1,14,-1
 1860 1062 l 1,15,-1
 1513 66 l 1,12,-1
1122 1607 m 1,16,-1
 1306 1522 l 1,17,-1
 1252 1311 l 1,18,-1
 698 1144 l 1,19,-1
 636 1291 l 1,20,-1
 1122 1607 l 1,16,-1
EndSplineSet
EndChar

StartChar: Wdieresis
Encoding: 7812 7812 373
Width: 1928
GlyphClass: 2
Flags: W
LayerCount: 2
Fore
SplineSet
609 598 m 1,0,-1
 742 1155 l 1,1,-1
 915 525 l 1,2,-1
 772 0 l 1,3,-1
 371 0 l 1,4,-1
 -26 1327 l 1,5,-1
 414 1327 l 1,6,-1
 609 598 l 1,0,-1
1547 0 m 1,7,-1
 1125 0 l 1,8,-1
 761 1327 l 1,9,-1
 1207 1327 l 1,10,-1
 1547 0 l 1,7,-1
1551 1327 m 1,11,-1
 1954 1327 l 1,12,-1
 1594 69 l 1,13,-1
 1414 776 l 1,14,-1
 1551 1327 l 1,11,-1
576 1682 m 1,15,-1
 912 1682 l 1,16,-1
 912 1461 l 1,17,-1
 576 1461 l 1,18,-1
 576 1682 l 1,15,-1
1106 1682 m 1,19,-1
 1442 1682 l 1,20,-1
 1442 1461 l 1,21,-1
 1106 1461 l 1,22,-1
 1106 1682 l 1,19,-1
EndSplineSet
EndChar

StartChar: wdieresis
Encoding: 7813 7813 374
Width: 1846
GlyphClass: 2
Flags: W
LayerCount: 2
Fore
SplineSet
-14 1062 m 1,0,-1
 408 1062 l 1,1,-1
 581 509 l 1,2,-1
 704 892 l 1,3,-1
 863 403 l 1,4,-1
 737 -1 l 1,5,-1
 736 0 l 1,6,-1
 367 0 l 1,7,-1
 -14 1062 l 1,0,-1
710 1062 m 1,8,-1
 1127 1062 l 1,9,-1
 1469 0 l 1,10,-1
 1068 0 l 1,11,-1
 710 1062 l 1,8,-1
1513 66 m 1,12,-1
 1327 638 l 1,13,-1
 1446 1062 l 1,14,-1
 1860 1062 l 1,15,-1
 1513 66 l 1,12,-1
490 1560 m 1,16,-1
 826 1560 l 1,17,-1
 826 1279 l 1,18,-1
 490 1279 l 1,19,-1
 490 1560 l 1,16,-1
1020 1560 m 1,20,-1
 1356 1560 l 1,21,-1
 1356 1279 l 1,22,-1
 1020 1279 l 1,23,-1
 1020 1560 l 1,20,-1
EndSplineSet
EndChar

StartChar: Ygrave
Encoding: 7922 7922 375
Width: 1297
GlyphClass: 2
Flags: W
LayerCount: 2
Fore
SplineSet
424 422 m 1,0,-1
 -26 1327 l 1,1,-1
 408 1327 l 1,2,-1
 867 391 l 1,3,-1
 867 0 l 1,4,-1
 424 0 l 1,5,-1
 424 422 l 1,0,-1
895 484 m 1,6,-1
 680 920 l 1,7,-1
 898 1327 l 1,8,-1
 1323 1327 l 1,9,-1
 895 484 l 1,6,-1
808 1526 m 1,10,-1
 756 1404 l 1,11,-1
 254 1519 l 1,12,-1
 207 1688 l 1,13,-1
 362 1766 l 1,14,-1
 808 1526 l 1,10,-1
EndSplineSet
EndChar

StartChar: ygrave
Encoding: 7923 7923 376
Width: 1221
GlyphClass: 2
Flags: W
LayerCount: 2
Fore
SplineSet
696 -370 m 1,0,-1
 272 -370 l 1,1,-1
 810 1062 l 1,2,-1
 1235 1062 l 1,3,-1
 696 -370 l 1,0,-1
-14 1062 m 1,4,-1
 427 1062 l 1,5,-1
 576 630 l 1,6,-1
 378 89 l 1,7,-1
 -14 1062 l 1,4,-1
913 1291 m 1,8,-1
 852 1144 l 1,9,-1
 297 1311 l 1,10,-1
 243 1522 l 1,11,-1
 427 1607 l 1,12,-1
 913 1291 l 1,8,-1
EndSplineSet
EndChar

StartChar: endash
Encoding: 8211 8211 377
Width: 1623
GlyphClass: 2
Flags: W
LayerCount: 2
Fore
SplineSet
186 740 m 1,0,-1
 1437 740 l 1,1,-1
 1437 501 l 1,2,-1
 186 501 l 1,3,-1
 186 740 l 1,0,-1
EndSplineSet
EndChar

StartChar: emdash
Encoding: 8212 8212 378
Width: 1991
GlyphClass: 2
Flags: W
LayerCount: 2
Fore
SplineSet
186 740 m 1,0,-1
 1805 740 l 1,1,-1
 1805 501 l 1,2,-1
 186 501 l 1,3,-1
 186 740 l 1,0,-1
EndSplineSet
EndChar

StartChar: quoteleft
Encoding: 8216 8216 379
Width: 814
GlyphClass: 2
Flags: W
LayerCount: 2
Fore
SplineSet
650 752 m 1,0,-1
 164 752 l 1,1,-1
 164 1062 l 1,2,-1
 340 1327 l 1,3,-1
 607 1327 l 1,4,-1
 482 1062 l 1,5,-1
 650 1062 l 1,6,-1
 650 752 l 1,0,-1
EndSplineSet
EndChar

StartChar: quoteright
Encoding: 8217 8217 380
Width: 814
GlyphClass: 2
Flags: W
LayerCount: 2
Fore
SplineSet
164 1327 m 1,0,-1
 650 1327 l 1,1,-1
 650 1017 l 1,2,-1
 474 752 l 1,3,-1
 207 752 l 1,4,-1
 332 1017 l 1,5,-1
 164 1017 l 1,6,-1
 164 1327 l 1,0,-1
EndSplineSet
EndChar

StartChar: quotesinglbase
Encoding: 8218 8218 381
Width: 814
GlyphClass: 2
Flags: W
LayerCount: 2
Fore
SplineSet
164 309 m 1,0,-1
 650 309 l 1,1,-1
 650 -1 l 1,2,-1
 474 -266 l 1,3,-1
 207 -266 l 1,4,-1
 332 -1 l 1,5,-1
 164 -1 l 1,6,-1
 164 309 l 1,0,-1
EndSplineSet
EndChar

StartChar: quotedblleft
Encoding: 8220 8220 382
Width: 1421
GlyphClass: 2
Flags: W
LayerCount: 2
Fore
SplineSet
650 752 m 1,0,-1
 164 752 l 1,1,-1
 164 1062 l 1,2,-1
 340 1327 l 1,3,-1
 607 1327 l 1,4,-1
 482 1062 l 1,5,-1
 650 1062 l 1,6,-1
 650 752 l 1,0,-1
1259 752 m 1,7,-1
 773 752 l 1,8,-1
 773 1062 l 1,9,-1
 949 1327 l 1,10,-1
 1216 1327 l 1,11,-1
 1091 1062 l 1,12,-1
 1259 1062 l 1,13,-1
 1259 752 l 1,7,-1
EndSplineSet
EndChar

StartChar: quotedblright
Encoding: 8221 8221 383
Width: 1418
GlyphClass: 2
Flags: W
LayerCount: 2
Fore
SplineSet
768 1327 m 1,0,-1
 1254 1327 l 1,1,-1
 1254 1017 l 1,2,-1
 1078 752 l 1,3,-1
 811 752 l 1,4,-1
 936 1017 l 1,5,-1
 768 1017 l 1,6,-1
 768 1327 l 1,0,-1
164 1327 m 1,7,-1
 650 1327 l 1,8,-1
 650 1017 l 1,9,-1
 474 752 l 1,10,-1
 207 752 l 1,11,-1
 332 1017 l 1,12,-1
 164 1017 l 1,13,-1
 164 1327 l 1,7,-1
EndSplineSet
EndChar

StartChar: dagger
Encoding: 8224 8224 385
Width: 1507
GlyphClass: 2
Flags: W
LayerCount: 2
Fore
SplineSet
557 429 m 1,0,-1
 556 429 l 1,1,-1
 657 822 l 1,2,-1
 295 761 l 1,3,-1
 161 923 l 1,4,-1
 295 1084 l 1,5,-1
 660 1020 l 1,6,-1
 592 1416 l 1,7,-1
 753 1551 l 1,8,-1
 915 1416 l 1,9,-1
 847 1020 l 1,10,-1
 1211 1083 l 1,11,-1
 1346 921 l 1,12,-1
 1211 759 l 1,13,-1
 849 821 l 1,14,-1
 948 431 l 1,15,-1
 950 430 l 1,16,-1
 799 -315 l 1,17,-1
 708 -315 l 1,18,-1
 557 429 l 1,0,-1
EndSplineSet
EndChar

StartChar: daggerdbl
Encoding: 8225 8225 386
Width: 1507
GlyphClass: 2
Flags: W
LayerCount: 2
Fore
SplineSet
557 614 m 1,0,-1
 654 820 l 1,1,-1
 295 760 l 1,2,-1
 161 922 l 1,3,-1
 295 1083 l 1,4,-1
 660 1020 l 1,5,-1
 592 1415 l 1,6,-1
 753 1550 l 1,7,-1
 915 1415 l 1,8,-1
 847 1020 l 1,9,-1
 1211 1082 l 1,10,-1
 1346 920 l 1,11,-1
 1211 759 l 1,12,-1
 854 820 l 1,13,-1
 952 615 l 1,14,-1
 852 414 l 1,15,-1
 1211 474 l 1,16,-1
 1346 313 l 1,17,-1
 1211 151 l 1,18,-1
 847 215 l 1,19,-1
 915 -181 l 1,20,-1
 753 -315 l 1,21,-1
 592 -181 l 1,22,-1
 660 215 l 1,23,-1
 295 153 l 1,24,-1
 161 314 l 1,25,-1
 295 476 l 1,26,-1
 658 414 l 1,27,-1
 557 614 l 1,0,-1
EndSplineSet
EndChar

StartChar: bullet
Encoding: 8226 8226 387
Width: 918
GlyphClass: 2
Flags: W
LayerCount: 2
Fore
SplineSet
326 966 m 1,0,-1
 592 966 l 1,1,-1
 768 789 l 1,2,-1
 768 524 l 1,3,-1
 592 346 l 1,4,-1
 326 346 l 1,5,-1
 149 524 l 1,6,-1
 149 789 l 1,7,-1
 326 966 l 1,0,-1
EndSplineSet
EndChar

StartChar: ellipsis
Encoding: 8230 8230 388
Width: 2208
GlyphClass: 2
Flags: W
LayerCount: 2
Fore
SplineSet
147 309 m 1,0,-1
 589 309 l 1,1,-1
 589 0 l 1,2,-1
 147 0 l 1,3,-1
 147 309 l 1,0,-1
883 309 m 1,4,-1
 1325 309 l 1,5,-1
 1325 0 l 1,6,-1
 883 0 l 1,7,-1
 883 309 l 1,4,-1
1618 309 m 1,8,-1
 2060 309 l 1,9,-1
 2060 0 l 1,10,-1
 1618 0 l 1,11,-1
 1618 309 l 1,8,-1
EndSplineSet
EndChar

